<mxfile host="app.diagrams.net" agent="Mozilla/5.0 (Macintosh; Intel Mac OS X 10_15_7) AppleWebKit/537.36 (KHTML, like Gecko) Chrome/135.0.0.0 Safari/537.36 Edg/135.0.0.0" version="26.2.9">
  <diagram id="C5RBs43oDa-KdzZeNtuy" name="Page-1">
    <mxGraphModel dx="1421" dy="720" grid="1" gridSize="10" guides="1" tooltips="1" connect="1" arrows="1" fold="1" page="1" pageScale="1" pageWidth="669" pageHeight="709" math="0" shadow="0">
      <root>
        <mxCell id="WIyWlLk6GJQsqaUBKTNV-0" />
        <mxCell id="WIyWlLk6GJQsqaUBKTNV-1" parent="WIyWlLk6GJQsqaUBKTNV-0" />
        <mxCell id="-kNc6pRZ_eXD2U5e0rUi-0" value="Item level analysis" style="text;html=1;align=left;verticalAlign=middle;resizable=1;points=[];autosize=1;strokeColor=default;fillColor=none;movable=1;rotatable=1;deletable=1;editable=1;locked=0;connectable=1;fontStyle=1" vertex="1" parent="WIyWlLk6GJQsqaUBKTNV-1">
          <mxGeometry x="9" width="120" height="25" as="geometry" />
        </mxCell>
        <mxCell id="-kNc6pRZ_eXD2U5e0rUi-13" value="" style="group;movable=1;resizable=1;rotatable=1;deletable=1;editable=1;locked=0;connectable=1;strokeColor=none;" vertex="1" connectable="0" parent="WIyWlLk6GJQsqaUBKTNV-1">
          <mxGeometry x="20" y="26" width="482" height="288" as="geometry" />
        </mxCell>
        <mxCell id="-kNc6pRZ_eXD2U5e0rUi-4" value="" style="rounded=1;whiteSpace=wrap;html=1;movable=1;resizable=1;rotatable=1;deletable=1;editable=1;locked=0;connectable=1;" vertex="1" parent="-kNc6pRZ_eXD2U5e0rUi-13">
          <mxGeometry x="-11" y="4" width="450" height="230" as="geometry" />
        </mxCell>
        <mxCell id="-kNc6pRZ_eXD2U5e0rUi-12" value="&lt;font style=&quot;font-size: 10px;&quot;&gt;4 year follow up&lt;/font&gt;" style="text;html=1;align=left;verticalAlign=middle;resizable=1;points=[];autosize=1;strokeColor=none;fillColor=none;movable=1;rotatable=1;deletable=1;editable=1;locked=0;connectable=1;" vertex="1" parent="-kNc6pRZ_eXD2U5e0rUi-13">
          <mxGeometry x="9" width="90" height="30" as="geometry" />
        </mxCell>
        <mxCell id="-kNc6pRZ_eXD2U5e0rUi-14" value="" style="group;movable=1;resizable=1;rotatable=1;deletable=1;editable=1;locked=0;connectable=1;" vertex="1" connectable="0" parent="-kNc6pRZ_eXD2U5e0rUi-13">
          <mxGeometry x="11" y="24" width="471" height="264" as="geometry" />
        </mxCell>
        <mxCell id="-kNc6pRZ_eXD2U5e0rUi-15" value="" style="rounded=1;whiteSpace=wrap;html=1;movable=1;resizable=1;rotatable=1;deletable=1;editable=1;locked=0;connectable=1;" vertex="1" parent="-kNc6pRZ_eXD2U5e0rUi-14">
          <mxGeometry x="-11" y="4" width="450" height="230" as="geometry" />
        </mxCell>
        <mxCell id="-kNc6pRZ_eXD2U5e0rUi-16" value="&lt;font style=&quot;font-size: 10px;&quot;&gt;2year follow up&lt;/font&gt;" style="text;html=1;align=left;verticalAlign=middle;resizable=1;points=[];autosize=1;strokeColor=none;fillColor=none;movable=1;rotatable=1;deletable=1;editable=1;locked=0;connectable=1;" vertex="1" parent="-kNc6pRZ_eXD2U5e0rUi-14">
          <mxGeometry x="8" width="90" height="30" as="geometry" />
        </mxCell>
        <mxCell id="-kNc6pRZ_eXD2U5e0rUi-17" value="" style="group;movable=1;resizable=1;rotatable=1;deletable=1;editable=1;locked=0;connectable=1;" vertex="1" connectable="0" parent="-kNc6pRZ_eXD2U5e0rUi-14">
          <mxGeometry y="20" width="449" height="234" as="geometry" />
        </mxCell>
        <mxCell id="-kNc6pRZ_eXD2U5e0rUi-18" value="" style="rounded=1;whiteSpace=wrap;html=1;movable=1;resizable=1;rotatable=1;deletable=1;editable=1;locked=0;connectable=1;" vertex="1" parent="-kNc6pRZ_eXD2U5e0rUi-17">
          <mxGeometry y="4" width="449" height="230" as="geometry" />
        </mxCell>
        <mxCell id="-kNc6pRZ_eXD2U5e0rUi-19" value="&lt;font style=&quot;font-size: 10px;&quot;&gt;Baseline&lt;/font&gt;" style="text;html=1;align=left;verticalAlign=middle;resizable=1;points=[];autosize=1;strokeColor=none;fillColor=none;movable=1;rotatable=1;deletable=1;editable=1;locked=0;connectable=1;" vertex="1" parent="-kNc6pRZ_eXD2U5e0rUi-17">
          <mxGeometry x="17.569565217391304" width="58.56521739130435" height="30" as="geometry" />
        </mxCell>
        <mxCell id="-kNc6pRZ_eXD2U5e0rUi-24" value="&lt;div style=&quot;&quot;&gt;&lt;font style=&quot;font-size: 10px;&quot;&gt;&lt;span style=&quot;background-color: transparent; color: light-dark(rgb(0, 0, 0), rgb(255, 255, 255));&quot;&gt;a&lt;/span&gt;&lt;span style=&quot;background-color: transparent;&quot;&gt;ccult_q1_&lt;/span&gt;&lt;span style=&quot;background-color: transparent; color: light-dark(rgb(0, 0, 0), rgb(255, 255, 255));&quot;&gt;p&lt;/span&gt;&lt;/font&gt;&lt;/div&gt;&lt;div style=&quot;&quot;&gt;&lt;span style=&quot;background-color: transparent;&quot;&gt;&lt;font style=&quot;font-size: 10px;&quot;&gt;gish_m1_p&lt;/font&gt;&lt;/span&gt;&lt;/div&gt;&lt;div style=&quot;&quot;&gt;&lt;span style=&quot;background-color: transparent;&quot;&gt;&lt;font style=&quot;font-size: 10px;&quot;&gt;genetic_pc_1&lt;/font&gt;&lt;/span&gt;&lt;/div&gt;&lt;div style=&quot;&quot;&gt;&lt;font style=&quot;font-size: 10px;&quot;&gt;reshist_addr1_no2_2016_min&lt;/font&gt;&lt;/div&gt;&lt;div style=&quot;&quot;&gt;&lt;span style=&quot;background-color: transparent;&quot;&gt;&lt;font style=&quot;font-size: 10px;&quot;&gt;bisbas1_y&lt;/font&gt;&lt;/span&gt;&lt;/div&gt;&lt;div style=&quot;&quot;&gt;&lt;font style=&quot;font-size: 10px;&quot;&gt;&lt;span style=&quot;background-color: transparent;&quot;&gt;nih&lt;/span&gt;&lt;span style=&quot;background-color: transparent; color: light-dark(rgb(0, 0, 0), rgb(255, 255, 255));&quot;&gt;t&lt;/span&gt;&lt;span style=&quot;background-color: transparent;&quot;&gt;bx_pattern_fc&lt;/span&gt;&lt;/font&gt;&lt;/div&gt;&lt;div style=&quot;&quot;&gt;&lt;font style=&quot;font-size: 10px;&quot;&gt;&lt;span style=&quot;background-color: transparent;&quot;&gt;scre&lt;/span&gt;&lt;span style=&quot;background-color: transparent; color: light-dark(rgb(0, 0, 0), rgb(255, 255, 255));&quot;&gt;e&lt;/span&gt;&lt;span style=&quot;background-color: transparent;&quot;&gt;n_4_wkdy_hr_y&lt;/span&gt;&lt;/font&gt;&lt;/div&gt;&lt;div style=&quot;&quot;&gt;&lt;font style=&quot;font-size: 10px;&quot;&gt;&lt;span style=&quot;background-color: transparent;&quot;&gt;bi&lt;/span&gt;&lt;span style=&quot;background-color: transparent; color: light-dark(rgb(0, 0, 0), rgb(255, 255, 255));&quot;&gt;r&lt;/span&gt;&lt;span style=&quot;background-color: transparent;&quot;&gt;th_weight_lbs&lt;/span&gt;&lt;/font&gt;&lt;/div&gt;&lt;div style=&quot;&quot;&gt;&lt;font style=&quot;font-size: 10px;&quot;&gt;&lt;span style=&quot;background-color: transparent;&quot;&gt;ksads_&lt;/span&gt;&lt;span style=&quot;background-color: transparent; color: light-dark(rgb(0, 0, 0), rgb(255, 255, 255));&quot;&gt;a&lt;/span&gt;&lt;span style=&quot;background-color: transparent;&quot;&gt;ud_raw_1&lt;/span&gt;&lt;span style=&quot;background-color: transparent; color: light-dark(rgb(0, 0, 0), rgb(255, 255, 255));&quot;&gt;218_p&lt;/span&gt;&lt;/font&gt;&lt;/div&gt;&lt;div style=&quot;&quot;&gt;&lt;span style=&quot;background-color: transparent; color: light-dark(rgb(0, 0, 0), rgb(255, 255, 255));&quot;&gt;&lt;font style=&quot;font-size: 10px;&quot;&gt;mrisdp_1&lt;/font&gt;&lt;/span&gt;&lt;/div&gt;&lt;div style=&quot;&quot;&gt;&lt;span style=&quot;background-color: transparent; color: light-dark(rgb(0, 0, 0), rgb(255, 255, 255));&quot;&gt;&lt;font style=&quot;font-size: 10px;&quot;&gt;...&lt;/font&gt;&lt;/span&gt;&lt;/div&gt;" style="text;html=1;align=left;verticalAlign=middle;resizable=1;points=[];autosize=1;strokeColor=default;fillColor=none;movable=1;rotatable=1;deletable=1;editable=1;locked=0;connectable=1;strokeWidth=0.5;" vertex="1" parent="-kNc6pRZ_eXD2U5e0rUi-17">
          <mxGeometry x="17.569565217391304" y="34" width="156.17391304347825" height="170" as="geometry" />
        </mxCell>
        <mxCell id="-kNc6pRZ_eXD2U5e0rUi-26" value="Items clearing" style="text;html=1;align=center;verticalAlign=middle;resizable=1;points=[];autosize=1;strokeColor=none;fillColor=none;fontStyle=1;movable=1;rotatable=1;deletable=1;editable=1;locked=0;connectable=1;" vertex="1" parent="-kNc6pRZ_eXD2U5e0rUi-17">
          <mxGeometry x="32.21086956521739" y="197" width="97.60869565217392" height="30" as="geometry" />
        </mxCell>
        <mxCell id="-kNc6pRZ_eXD2U5e0rUi-63" value="Sub domains select" style="text;html=1;align=center;verticalAlign=middle;resizable=0;points=[];autosize=1;strokeColor=none;fillColor=none;fontStyle=1" vertex="1" parent="-kNc6pRZ_eXD2U5e0rUi-17">
          <mxGeometry x="242.0695652173913" y="197" width="130" height="30" as="geometry" />
        </mxCell>
        <mxCell id="-kNc6pRZ_eXD2U5e0rUi-65" value="&lt;div&gt;&amp;nbsp; &amp;nbsp;Birth information&amp;nbsp;&amp;nbsp;&lt;span style=&quot;background-color: transparent; color: light-dark(rgb(0, 0, 0), rgb(255, 255, 255));&quot;&gt;Environmental pollution&lt;/span&gt;&lt;/div&gt;&lt;div&gt;&amp;nbsp; &amp;nbsp;Gender identity&amp;nbsp; &amp;nbsp;&amp;nbsp;&lt;span style=&quot;background-color: transparent; color: light-dark(rgb(0, 0, 0), rgb(255, 255, 255));&quot;&gt;Parental addiction history&lt;/span&gt;&lt;/div&gt;&lt;div&gt;&amp;nbsp; &amp;nbsp;Nih tool box&amp;nbsp; &amp;nbsp; &amp;nbsp; &amp;nbsp; &amp;nbsp;&lt;span style=&quot;background-color: transparent; color: light-dark(rgb(0, 0, 0), rgb(255, 255, 255));&quot;&gt;Fitbit sleep time&lt;/span&gt;&lt;/div&gt;&lt;div&gt;&lt;span style=&quot;background-color: transparent; color: light-dark(rgb(0, 0, 0), rgb(255, 255, 255));&quot;&gt;&amp;nbsp; &amp;nbsp;KSADS&amp;nbsp; &amp;nbsp; &amp;nbsp; &amp;nbsp; &amp;nbsp; &amp;nbsp; &amp;nbsp; &amp;nbsp;&amp;nbsp;&lt;/span&gt;Diffusion tensor imaging&lt;/div&gt;&lt;div&gt;&amp;nbsp; &amp;nbsp;...&lt;/div&gt;" style="text;html=1;align=left;verticalAlign=middle;resizable=0;points=[];autosize=1;strokeColor=default;fillColor=none;rotation=0;fontSize=10;strokeWidth=0.5;" vertex="1" parent="-kNc6pRZ_eXD2U5e0rUi-17">
          <mxGeometry x="203.02608695652174" y="134" width="220" height="70" as="geometry" />
        </mxCell>
        <mxCell id="-kNc6pRZ_eXD2U5e0rUi-108" value="Correlation" style="text;html=1;align=center;verticalAlign=middle;resizable=0;points=[];autosize=1;strokeColor=none;fillColor=none;fontStyle=1" vertex="1" parent="-kNc6pRZ_eXD2U5e0rUi-17">
          <mxGeometry x="266.4717391304348" y="91" width="80" height="30" as="geometry" />
        </mxCell>
        <mxCell id="-kNc6pRZ_eXD2U5e0rUi-158" value="&lt;font style=&quot;font-size: 10px;&quot;&gt;n &amp;gt; 1000&lt;/font&gt;" style="text;html=1;align=center;verticalAlign=middle;resizable=0;points=[];autosize=1;strokeColor=none;fillColor=none;" vertex="1" parent="-kNc6pRZ_eXD2U5e0rUi-17">
          <mxGeometry x="344.5586956521739" y="34" width="60" height="30" as="geometry" />
        </mxCell>
        <mxCell id="-kNc6pRZ_eXD2U5e0rUi-57" value="" style="group;strokeWidth=0.5;strokeColor=default;movable=1;resizable=1;rotatable=1;deletable=1;editable=1;locked=0;connectable=1;" vertex="1" connectable="0" parent="WIyWlLk6GJQsqaUBKTNV-1">
          <mxGeometry x="239" y="103" width="222" height="66" as="geometry" />
        </mxCell>
        <mxCell id="-kNc6pRZ_eXD2U5e0rUi-51" value="" style="group;movable=1;resizable=1;rotatable=1;deletable=1;editable=1;locked=0;connectable=1;" vertex="1" connectable="0" parent="-kNc6pRZ_eXD2U5e0rUi-57">
          <mxGeometry y="10" width="213" height="56" as="geometry" />
        </mxCell>
        <mxCell id="-kNc6pRZ_eXD2U5e0rUi-35" value="&lt;font style=&quot;font-size: 5px;&quot;&gt;0.1&lt;/font&gt;" style="text;html=1;align=center;verticalAlign=middle;resizable=1;points=[];autosize=1;strokeColor=none;fillColor=none;rotation=-90;movable=1;rotatable=1;deletable=1;editable=1;locked=0;connectable=1;" vertex="1" parent="-kNc6pRZ_eXD2U5e0rUi-51">
          <mxGeometry y="16" width="30" height="30" as="geometry" />
        </mxCell>
        <mxCell id="-kNc6pRZ_eXD2U5e0rUi-43" value="&lt;font style=&quot;font-size: 5px;&quot;&gt;0&lt;/font&gt;" style="text;html=1;align=center;verticalAlign=middle;resizable=1;points=[];autosize=1;strokeColor=none;fillColor=none;rotation=-90;movable=1;rotatable=1;deletable=1;editable=1;locked=0;connectable=1;" vertex="1" parent="-kNc6pRZ_eXD2U5e0rUi-51">
          <mxGeometry y="26" width="30" height="30" as="geometry" />
        </mxCell>
        <mxCell id="-kNc6pRZ_eXD2U5e0rUi-50" value="&lt;font style=&quot;font-size: 5px;&quot;&gt;0.2&lt;/font&gt;" style="text;html=1;align=center;verticalAlign=middle;resizable=1;points=[];autosize=1;strokeColor=none;fillColor=none;rotation=-90;movable=1;rotatable=1;deletable=1;editable=1;locked=0;connectable=1;" vertex="1" parent="-kNc6pRZ_eXD2U5e0rUi-51">
          <mxGeometry y="5" width="30" height="30" as="geometry" />
        </mxCell>
        <mxCell id="-kNc6pRZ_eXD2U5e0rUi-27" value="" style="endArrow=blockThin;html=1;rounded=0;endFill=1;movable=1;resizable=1;rotatable=1;deletable=1;editable=1;locked=0;connectable=1;" edge="1" parent="-kNc6pRZ_eXD2U5e0rUi-51">
          <mxGeometry width="50" height="50" relative="1" as="geometry">
            <mxPoint x="23" y="40" as="sourcePoint" />
            <mxPoint x="213" y="40" as="targetPoint" />
          </mxGeometry>
        </mxCell>
        <mxCell id="-kNc6pRZ_eXD2U5e0rUi-40" value="&amp;nbsp;...&amp;nbsp;" style="edgeLabel;html=1;align=center;verticalAlign=middle;resizable=1;points=[];movable=1;rotatable=1;deletable=1;editable=1;locked=0;connectable=1;" vertex="1" connectable="0" parent="-kNc6pRZ_eXD2U5e0rUi-27">
          <mxGeometry x="0.1546" relative="1" as="geometry">
            <mxPoint x="-6" y="-3" as="offset" />
          </mxGeometry>
        </mxCell>
        <mxCell id="-kNc6pRZ_eXD2U5e0rUi-30" value="" style="endArrow=oval;html=1;rounded=0;endFill=1;movable=1;resizable=1;rotatable=1;deletable=1;editable=1;locked=0;connectable=1;" edge="1" parent="-kNc6pRZ_eXD2U5e0rUi-51">
          <mxGeometry width="50" height="50" relative="1" as="geometry">
            <mxPoint x="53" y="40" as="sourcePoint" />
            <mxPoint x="53" y="35" as="targetPoint" />
          </mxGeometry>
        </mxCell>
        <mxCell id="-kNc6pRZ_eXD2U5e0rUi-32" value="" style="endArrow=oval;html=1;rounded=0;endFill=1;movable=1;resizable=1;rotatable=1;deletable=1;editable=1;locked=0;connectable=1;strokeColor=light-dark(#660000, #ededed);" edge="1" parent="-kNc6pRZ_eXD2U5e0rUi-51">
          <mxGeometry width="50" height="50" relative="1" as="geometry">
            <mxPoint x="33" y="40" as="sourcePoint" />
            <mxPoint x="33" y="30" as="targetPoint" />
          </mxGeometry>
        </mxCell>
        <mxCell id="-kNc6pRZ_eXD2U5e0rUi-33" value="" style="endArrow=oval;html=1;rounded=0;endFill=1;movable=1;resizable=1;rotatable=1;deletable=1;editable=1;locked=0;connectable=1;strokeColor=light-dark(#590303, #ededed);" edge="1" parent="-kNc6pRZ_eXD2U5e0rUi-51">
          <mxGeometry width="50" height="50" relative="1" as="geometry">
            <mxPoint x="42" y="40" as="sourcePoint" />
            <mxPoint x="42" y="30" as="targetPoint" />
          </mxGeometry>
        </mxCell>
        <mxCell id="-kNc6pRZ_eXD2U5e0rUi-34" value="" style="endArrow=none;html=1;rounded=0;dashed=1;strokeColor=light-dark(#850505, #ededed);movable=1;resizable=1;rotatable=1;deletable=1;editable=1;locked=0;connectable=1;" edge="1" parent="-kNc6pRZ_eXD2U5e0rUi-51">
          <mxGeometry width="50" height="50" relative="1" as="geometry">
            <mxPoint x="23" y="30.659999999999968" as="sourcePoint" />
            <mxPoint x="213" y="31" as="targetPoint" />
          </mxGeometry>
        </mxCell>
        <mxCell id="-kNc6pRZ_eXD2U5e0rUi-36" value="" style="endArrow=oval;html=1;rounded=0;endFill=1;movable=1;resizable=1;rotatable=1;deletable=1;editable=1;locked=0;connectable=1;" edge="1" parent="-kNc6pRZ_eXD2U5e0rUi-51">
          <mxGeometry width="50" height="50" relative="1" as="geometry">
            <mxPoint x="63" y="40" as="sourcePoint" />
            <mxPoint x="63" y="35" as="targetPoint" />
          </mxGeometry>
        </mxCell>
        <mxCell id="-kNc6pRZ_eXD2U5e0rUi-37" value="" style="endArrow=oval;html=1;rounded=0;endFill=1;movable=1;resizable=1;rotatable=1;deletable=1;editable=1;locked=0;connectable=1;" edge="1" parent="-kNc6pRZ_eXD2U5e0rUi-51">
          <mxGeometry width="50" height="50" relative="1" as="geometry">
            <mxPoint x="73" y="41" as="sourcePoint" />
            <mxPoint x="73" y="36" as="targetPoint" />
          </mxGeometry>
        </mxCell>
        <mxCell id="-kNc6pRZ_eXD2U5e0rUi-38" value="" style="endArrow=oval;html=1;rounded=0;endFill=1;movable=1;resizable=1;rotatable=1;deletable=1;editable=1;locked=0;connectable=1;" edge="1" parent="-kNc6pRZ_eXD2U5e0rUi-51">
          <mxGeometry width="50" height="50" relative="1" as="geometry">
            <mxPoint x="84" y="41" as="sourcePoint" />
            <mxPoint x="84" y="36" as="targetPoint" />
          </mxGeometry>
        </mxCell>
        <mxCell id="-kNc6pRZ_eXD2U5e0rUi-39" value="" style="endArrow=oval;html=1;rounded=0;endFill=1;movable=1;resizable=1;rotatable=1;deletable=1;editable=1;locked=0;connectable=1;" edge="1" parent="-kNc6pRZ_eXD2U5e0rUi-51">
          <mxGeometry width="50" height="50" relative="1" as="geometry">
            <mxPoint x="113" y="41" as="sourcePoint" />
            <mxPoint x="113" y="36" as="targetPoint" />
          </mxGeometry>
        </mxCell>
        <mxCell id="-kNc6pRZ_eXD2U5e0rUi-41" value="" style="endArrow=oval;html=1;rounded=0;endFill=1;movable=1;resizable=1;rotatable=1;deletable=1;editable=1;locked=0;connectable=1;" edge="1" parent="-kNc6pRZ_eXD2U5e0rUi-51">
          <mxGeometry width="50" height="50" relative="1" as="geometry">
            <mxPoint x="93" y="40" as="sourcePoint" />
            <mxPoint x="93" y="30" as="targetPoint" />
          </mxGeometry>
        </mxCell>
        <mxCell id="-kNc6pRZ_eXD2U5e0rUi-42" value="" style="endArrow=oval;html=1;rounded=0;endFill=1;movable=1;resizable=1;rotatable=1;deletable=1;editable=1;locked=0;connectable=1;strokeColor=light-dark(#e30202, #ededed);" edge="1" parent="-kNc6pRZ_eXD2U5e0rUi-51">
          <mxGeometry width="50" height="50" relative="1" as="geometry">
            <mxPoint x="103" y="40" as="sourcePoint" />
            <mxPoint x="103" y="20" as="targetPoint" />
          </mxGeometry>
        </mxCell>
        <mxCell id="-kNc6pRZ_eXD2U5e0rUi-44" value="" style="endArrow=oval;html=1;rounded=0;endFill=1;movable=1;resizable=1;rotatable=1;deletable=1;editable=1;locked=0;connectable=1;" edge="1" parent="-kNc6pRZ_eXD2U5e0rUi-51">
          <mxGeometry width="50" height="50" relative="1" as="geometry">
            <mxPoint x="142" y="40" as="sourcePoint" />
            <mxPoint x="142" y="35" as="targetPoint" />
          </mxGeometry>
        </mxCell>
        <mxCell id="-kNc6pRZ_eXD2U5e0rUi-45" value="" style="endArrow=oval;html=1;rounded=0;endFill=1;movable=1;resizable=1;rotatable=1;deletable=1;editable=1;locked=0;connectable=1;" edge="1" parent="-kNc6pRZ_eXD2U5e0rUi-51">
          <mxGeometry width="50" height="50" relative="1" as="geometry">
            <mxPoint x="152" y="40" as="sourcePoint" />
            <mxPoint x="152" y="35" as="targetPoint" />
          </mxGeometry>
        </mxCell>
        <mxCell id="-kNc6pRZ_eXD2U5e0rUi-46" value="" style="endArrow=oval;html=1;rounded=0;endFill=1;movable=1;resizable=1;rotatable=1;deletable=1;editable=1;locked=0;connectable=1;" edge="1" parent="-kNc6pRZ_eXD2U5e0rUi-51">
          <mxGeometry width="50" height="50" relative="1" as="geometry">
            <mxPoint x="162" y="41" as="sourcePoint" />
            <mxPoint x="162" y="36" as="targetPoint" />
          </mxGeometry>
        </mxCell>
        <mxCell id="-kNc6pRZ_eXD2U5e0rUi-47" value="" style="endArrow=oval;html=1;rounded=0;endFill=1;movable=1;resizable=1;rotatable=1;deletable=1;editable=1;locked=0;connectable=1;" edge="1" parent="-kNc6pRZ_eXD2U5e0rUi-51">
          <mxGeometry width="50" height="50" relative="1" as="geometry">
            <mxPoint x="172" y="41" as="sourcePoint" />
            <mxPoint x="172" y="36" as="targetPoint" />
          </mxGeometry>
        </mxCell>
        <mxCell id="-kNc6pRZ_eXD2U5e0rUi-48" value="" style="endArrow=oval;html=1;rounded=0;endFill=1;movable=1;resizable=1;rotatable=1;deletable=1;editable=1;locked=0;connectable=1;strokeColor=light-dark(#8e0606, #ededed);" edge="1" parent="-kNc6pRZ_eXD2U5e0rUi-51">
          <mxGeometry width="50" height="50" relative="1" as="geometry">
            <mxPoint x="192" y="40" as="sourcePoint" />
            <mxPoint x="192" y="30" as="targetPoint" />
          </mxGeometry>
        </mxCell>
        <mxCell id="-kNc6pRZ_eXD2U5e0rUi-49" value="" style="endArrow=oval;html=1;rounded=0;endFill=1;movable=1;resizable=1;rotatable=1;deletable=1;editable=1;locked=0;connectable=1;strokeColor=light-dark(#710404, #ededed);" edge="1" parent="-kNc6pRZ_eXD2U5e0rUi-51">
          <mxGeometry width="50" height="50" relative="1" as="geometry">
            <mxPoint x="183" y="40" as="sourcePoint" />
            <mxPoint x="183" y="30" as="targetPoint" />
          </mxGeometry>
        </mxCell>
        <mxCell id="-kNc6pRZ_eXD2U5e0rUi-28" value="" style="endArrow=blockThin;html=1;rounded=0;endFill=1;movable=1;resizable=1;rotatable=1;deletable=1;editable=1;locked=0;connectable=1;" edge="1" parent="-kNc6pRZ_eXD2U5e0rUi-51">
          <mxGeometry width="50" height="50" relative="1" as="geometry">
            <mxPoint x="23" y="40" as="sourcePoint" />
            <mxPoint x="23" as="targetPoint" />
          </mxGeometry>
        </mxCell>
        <mxCell id="-kNc6pRZ_eXD2U5e0rUi-55" value="" style="endArrow=none;html=1;rounded=0;strokeColor=light-dark(#330000,#EDEDED);strokeWidth=0.5;movable=1;resizable=1;rotatable=1;deletable=1;editable=1;locked=0;connectable=1;" edge="1" parent="-kNc6pRZ_eXD2U5e0rUi-57">
          <mxGeometry width="50" height="50" relative="1" as="geometry">
            <mxPoint x="2" as="sourcePoint" />
            <mxPoint x="222" as="targetPoint" />
          </mxGeometry>
        </mxCell>
        <mxCell id="-kNc6pRZ_eXD2U5e0rUi-59" value="" style="shape=flexArrow;endArrow=classic;html=1;rounded=0;fillColor=#e1d5e7;strokeColor=#9673a6;movable=1;resizable=1;rotatable=1;deletable=1;editable=1;locked=0;connectable=1;" edge="1" parent="WIyWlLk6GJQsqaUBKTNV-1">
          <mxGeometry width="50" height="50" relative="1" as="geometry">
            <mxPoint x="342.65999999999997" y="184" as="sourcePoint" />
            <mxPoint x="342.65999999999997" y="204" as="targetPoint" />
          </mxGeometry>
        </mxCell>
        <mxCell id="-kNc6pRZ_eXD2U5e0rUi-60" value="" style="shape=flexArrow;endArrow=classic;html=1;rounded=0;fillColor=#e1d5e7;strokeColor=#9673a6;movable=1;resizable=1;rotatable=1;deletable=1;editable=1;locked=0;connectable=1;" edge="1" parent="WIyWlLk6GJQsqaUBKTNV-1">
          <mxGeometry width="50" height="50" relative="1" as="geometry">
            <mxPoint x="215.99999999999997" y="131.5" as="sourcePoint" />
            <mxPoint x="236" y="131.5" as="targetPoint" />
          </mxGeometry>
        </mxCell>
        <mxCell id="-kNc6pRZ_eXD2U5e0rUi-64" value="" style="shape=flexArrow;endArrow=classic;html=1;rounded=0;fillColor=#e1d5e7;strokeColor=#9673a6;movable=1;resizable=1;rotatable=1;deletable=1;editable=1;locked=0;connectable=1;" edge="1" parent="WIyWlLk6GJQsqaUBKTNV-1">
          <mxGeometry width="50" height="50" relative="1" as="geometry">
            <mxPoint x="73.57999999999998" y="316" as="sourcePoint" />
            <mxPoint x="73.57999999999998" y="336" as="targetPoint" />
          </mxGeometry>
        </mxCell>
        <mxCell id="-kNc6pRZ_eXD2U5e0rUi-109" value="" style="rounded=1;whiteSpace=wrap;html=1;movable=1;resizable=1;rotatable=1;deletable=1;editable=1;locked=0;connectable=1;" vertex="1" parent="WIyWlLk6GJQsqaUBKTNV-1">
          <mxGeometry x="9" y="374" width="450" height="230" as="geometry" />
        </mxCell>
        <mxCell id="-kNc6pRZ_eXD2U5e0rUi-110" value="&lt;font style=&quot;font-size: 10px;&quot;&gt;4 year follow up&lt;/font&gt;" style="text;html=1;align=left;verticalAlign=middle;resizable=1;points=[];autosize=1;strokeColor=none;fillColor=none;movable=1;rotatable=1;deletable=1;editable=1;locked=0;connectable=1;" vertex="1" parent="WIyWlLk6GJQsqaUBKTNV-1">
          <mxGeometry x="29" y="370" width="90" height="30" as="geometry" />
        </mxCell>
        <mxCell id="-kNc6pRZ_eXD2U5e0rUi-111" value="" style="rounded=1;whiteSpace=wrap;html=1;movable=1;resizable=1;rotatable=1;deletable=1;editable=1;locked=0;connectable=1;" vertex="1" parent="WIyWlLk6GJQsqaUBKTNV-1">
          <mxGeometry x="20" y="398" width="449" height="230" as="geometry" />
        </mxCell>
        <mxCell id="-kNc6pRZ_eXD2U5e0rUi-112" value="&lt;font style=&quot;font-size: 10px;&quot;&gt;2year follow up&lt;/font&gt;" style="text;html=1;align=left;verticalAlign=middle;resizable=1;points=[];autosize=1;strokeColor=none;fillColor=none;movable=1;rotatable=1;deletable=1;editable=1;locked=0;connectable=1;" vertex="1" parent="WIyWlLk6GJQsqaUBKTNV-1">
          <mxGeometry x="39" y="394" width="90" height="30" as="geometry" />
        </mxCell>
        <mxCell id="-kNc6pRZ_eXD2U5e0rUi-113" value="" style="group;movable=1;resizable=1;rotatable=1;deletable=1;editable=1;locked=0;connectable=1;" vertex="1" connectable="0" parent="WIyWlLk6GJQsqaUBKTNV-1">
          <mxGeometry x="31" y="414" width="448" height="234" as="geometry" />
        </mxCell>
        <mxCell id="-kNc6pRZ_eXD2U5e0rUi-114" value="" style="rounded=1;whiteSpace=wrap;html=1;movable=1;resizable=1;rotatable=1;deletable=1;editable=1;locked=0;connectable=1;" vertex="1" parent="-kNc6pRZ_eXD2U5e0rUi-113">
          <mxGeometry y="4" width="448" height="230" as="geometry" />
        </mxCell>
        <mxCell id="-kNc6pRZ_eXD2U5e0rUi-115" value="&lt;font style=&quot;font-size: 10px;&quot;&gt;Baseline&lt;/font&gt;" style="text;html=1;align=left;verticalAlign=middle;resizable=1;points=[];autosize=1;strokeColor=none;fillColor=none;movable=1;rotatable=1;deletable=1;editable=1;locked=0;connectable=1;" vertex="1" parent="-kNc6pRZ_eXD2U5e0rUi-113">
          <mxGeometry x="17.530434782608697" width="58.434782608695656" height="30" as="geometry" />
        </mxCell>
        <mxCell id="-kNc6pRZ_eXD2U5e0rUi-117" value="Factor analyses" style="text;html=1;align=center;verticalAlign=middle;resizable=1;points=[];autosize=1;strokeColor=none;fillColor=none;fontStyle=1;movable=1;rotatable=1;deletable=1;editable=1;locked=0;connectable=1;" vertex="1" parent="-kNc6pRZ_eXD2U5e0rUi-113">
          <mxGeometry x="27.269565217391307" y="197" width="107.1304347826087" height="30" as="geometry" />
        </mxCell>
        <mxCell id="-kNc6pRZ_eXD2U5e0rUi-118" value="Dynamic network" style="text;html=1;align=center;verticalAlign=middle;resizable=0;points=[];autosize=1;strokeColor=none;fillColor=none;fontStyle=1" vertex="1" parent="-kNc6pRZ_eXD2U5e0rUi-113">
          <mxGeometry x="246.0086956521739" y="197" width="120" height="30" as="geometry" />
        </mxCell>
        <mxCell id="-kNc6pRZ_eXD2U5e0rUi-120" value="GAMLSS regression" style="text;html=1;align=center;verticalAlign=middle;resizable=0;points=[];autosize=1;strokeColor=none;fillColor=none;fontStyle=1" vertex="1" parent="-kNc6pRZ_eXD2U5e0rUi-113">
          <mxGeometry x="241.9217391304348" y="91" width="130" height="30" as="geometry" />
        </mxCell>
        <mxCell id="-kNc6pRZ_eXD2U5e0rUi-157" value="" style="group;strokeColor=default;strokeWidth=0.5;" vertex="1" connectable="0" parent="-kNc6pRZ_eXD2U5e0rUi-113">
          <mxGeometry x="7.791304347826087" y="43" width="165.56521739130434" height="161" as="geometry" />
        </mxCell>
        <mxCell id="-kNc6pRZ_eXD2U5e0rUi-116" value="&lt;div style=&quot;&quot;&gt;&lt;div&gt;&lt;font style=&quot;font-size: 10px;&quot;&gt;Birth information&lt;/font&gt;&lt;/div&gt;&lt;div&gt;&lt;font style=&quot;font-size: 10px;&quot;&gt;Environmental pollution&lt;/font&gt;&lt;/div&gt;&lt;div&gt;&lt;span style=&quot;font-size: 10px; background-color: transparent; color: light-dark(rgb(0, 0, 0), rgb(255, 255, 255));&quot;&gt;Gender identity&lt;/span&gt;&lt;/div&gt;&lt;div&gt;&lt;span style=&quot;font-size: 10px; background-color: transparent; color: light-dark(rgb(0, 0, 0), rgb(255, 255, 255));&quot;&gt;Parental addiction history&lt;/span&gt;&lt;/div&gt;&lt;div&gt;&lt;font style=&quot;font-size: 10px;&quot;&gt;Nih tool box&lt;/font&gt;&lt;/div&gt;&lt;div&gt;&lt;font style=&quot;font-size: 10px;&quot;&gt;Fitbit sleep time&lt;/font&gt;&lt;/div&gt;&lt;div&gt;&lt;font style=&quot;font-size: 10px;&quot;&gt;KSADS&lt;/font&gt;&lt;/div&gt;&lt;div&gt;&lt;font style=&quot;font-size: 10px;&quot;&gt;Diffusion tensor imaging&lt;/font&gt;&lt;/div&gt;&lt;div&gt;&lt;font style=&quot;font-size: 10px;&quot;&gt;...&lt;/font&gt;&lt;/div&gt;&lt;/div&gt;" style="text;html=1;align=left;verticalAlign=middle;resizable=1;points=[];autosize=1;strokeColor=none;fillColor=none;movable=1;rotatable=1;deletable=1;editable=1;locked=0;connectable=1;strokeWidth=0.5;" vertex="1" parent="-kNc6pRZ_eXD2U5e0rUi-157">
          <mxGeometry y="21" width="136.3478260869565" height="140" as="geometry" />
        </mxCell>
        <mxCell id="-kNc6pRZ_eXD2U5e0rUi-123" value="&lt;font style=&quot;font-size: 5px;&quot;&gt;0&lt;/font&gt;" style="text;html=1;align=left;verticalAlign=middle;resizable=1;points=[];autosize=1;strokeColor=none;fillColor=none;rotation=0;movable=1;rotatable=1;deletable=1;editable=1;locked=0;connectable=1;container=0;" vertex="1" parent="-kNc6pRZ_eXD2U5e0rUi-157">
          <mxGeometry x="123.68695652173912" y="140" width="11.68695652173913" height="12" as="geometry" />
        </mxCell>
        <mxCell id="-kNc6pRZ_eXD2U5e0rUi-126" value="" style="endArrow=blockThin;html=1;rounded=0;endFill=1;movable=1;resizable=1;rotatable=1;deletable=1;editable=1;locked=0;connectable=1;" edge="1" parent="-kNc6pRZ_eXD2U5e0rUi-157">
          <mxGeometry width="50" height="50" relative="1" as="geometry">
            <mxPoint x="126.6086956521739" y="145" as="sourcePoint" />
            <mxPoint x="126.6086956521739" y="15" as="targetPoint" />
          </mxGeometry>
        </mxCell>
        <mxCell id="-kNc6pRZ_eXD2U5e0rUi-131" value="" style="endArrow=none;html=1;rounded=0;dashed=1;strokeColor=light-dark(#850505, #ededed);movable=1;resizable=1;rotatable=1;deletable=1;editable=1;locked=0;connectable=1;" edge="1" parent="-kNc6pRZ_eXD2U5e0rUi-157">
          <mxGeometry width="50" height="50" relative="1" as="geometry">
            <mxPoint x="146.08695652173913" y="145" as="sourcePoint" />
            <mxPoint x="147.0608695652174" y="15" as="targetPoint" />
          </mxGeometry>
        </mxCell>
        <mxCell id="-kNc6pRZ_eXD2U5e0rUi-137" value="" style="endArrow=none;html=1;rounded=0;endFill=1;movable=1;resizable=1;rotatable=1;deletable=1;editable=1;locked=0;connectable=1;strokeColor=light-dark(#820303, #EDEDED);startFill=0;strokeWidth=5;endSize=6;" edge="1" parent="-kNc6pRZ_eXD2U5e0rUi-157">
          <mxGeometry width="50" height="50" relative="1" as="geometry">
            <mxPoint x="127.09565217391304" y="35.58000000000004" as="sourcePoint" />
            <mxPoint x="156.31304347826085" y="35.72000000000003" as="targetPoint" />
          </mxGeometry>
        </mxCell>
        <mxCell id="-kNc6pRZ_eXD2U5e0rUi-144" value="" style="endArrow=blockThin;html=1;rounded=0;endFill=1;movable=1;resizable=1;rotatable=1;deletable=1;editable=1;locked=0;connectable=1;" edge="1" parent="-kNc6pRZ_eXD2U5e0rUi-157">
          <mxGeometry width="50" height="50" relative="1" as="geometry">
            <mxPoint x="126.6086956521739" y="144.72333333333302" as="sourcePoint" />
            <mxPoint x="165.56521739130434" y="144.72333333333302" as="targetPoint" />
          </mxGeometry>
        </mxCell>
        <mxCell id="-kNc6pRZ_eXD2U5e0rUi-148" value="&lt;span style=&quot;font-size: 5px;&quot;&gt;1&lt;/span&gt;" style="text;html=1;align=left;verticalAlign=middle;resizable=1;points=[];autosize=1;strokeColor=none;fillColor=none;rotation=0;movable=1;rotatable=1;deletable=1;editable=1;locked=0;connectable=1;container=0;" vertex="1" parent="-kNc6pRZ_eXD2U5e0rUi-157">
          <mxGeometry x="142.6782608695652" y="138" width="12.660869565217391" height="16" as="geometry" />
        </mxCell>
        <mxCell id="-kNc6pRZ_eXD2U5e0rUi-149" value="" style="endArrow=none;html=1;rounded=0;endFill=1;movable=1;resizable=1;rotatable=1;deletable=1;editable=1;locked=0;connectable=1;strokeColor=light-dark(#820303, #EDEDED);startFill=0;strokeWidth=5;endSize=6;" edge="1" parent="-kNc6pRZ_eXD2U5e0rUi-157">
          <mxGeometry width="50" height="50" relative="1" as="geometry">
            <mxPoint x="127.09565217391304" y="50.58000000000004" as="sourcePoint" />
            <mxPoint x="148.52173913043478" y="50.72000000000003" as="targetPoint" />
          </mxGeometry>
        </mxCell>
        <mxCell id="-kNc6pRZ_eXD2U5e0rUi-150" value="" style="endArrow=none;html=1;rounded=0;endFill=1;movable=1;resizable=1;rotatable=1;deletable=1;editable=1;locked=0;connectable=1;strokeColor=light-dark(#820303, #EDEDED);startFill=0;strokeWidth=5;endSize=6;" edge="1" parent="-kNc6pRZ_eXD2U5e0rUi-157">
          <mxGeometry width="50" height="50" relative="1" as="geometry">
            <mxPoint x="127.09565217391304" y="64.58000000000004" as="sourcePoint" />
            <mxPoint x="152.4173913043478" y="64.72000000000003" as="targetPoint" />
          </mxGeometry>
        </mxCell>
        <mxCell id="-kNc6pRZ_eXD2U5e0rUi-151" value="" style="endArrow=none;html=1;rounded=0;endFill=1;movable=1;resizable=1;rotatable=1;deletable=1;editable=1;locked=0;connectable=1;strokeColor=light-dark(#330000,#EDEDED);startFill=0;strokeWidth=5;endSize=6;" edge="1" parent="-kNc6pRZ_eXD2U5e0rUi-157">
          <mxGeometry width="50" height="50" relative="1" as="geometry">
            <mxPoint x="127.09565217391304" y="78.58000000000004" as="sourcePoint" />
            <mxPoint x="141.70434782608694" y="78.72000000000003" as="targetPoint" />
          </mxGeometry>
        </mxCell>
        <mxCell id="-kNc6pRZ_eXD2U5e0rUi-152" value="" style="endArrow=none;html=1;rounded=0;endFill=1;movable=1;resizable=1;rotatable=1;deletable=1;editable=1;locked=0;connectable=1;strokeColor=light-dark(#330000,#EDEDED);startFill=0;strokeWidth=5;endSize=6;" edge="1" parent="-kNc6pRZ_eXD2U5e0rUi-157">
          <mxGeometry width="50" height="50" relative="1" as="geometry">
            <mxPoint x="127.09565217391304" y="93.58000000000004" as="sourcePoint" />
            <mxPoint x="144.62608695652173" y="93.72000000000003" as="targetPoint" />
          </mxGeometry>
        </mxCell>
        <mxCell id="-kNc6pRZ_eXD2U5e0rUi-153" value="" style="endArrow=none;html=1;rounded=0;endFill=1;movable=1;resizable=1;rotatable=1;deletable=1;editable=1;locked=0;connectable=1;strokeColor=light-dark(#820303, #EDEDED);startFill=0;strokeWidth=5;endSize=6;" edge="1" parent="-kNc6pRZ_eXD2U5e0rUi-157">
          <mxGeometry width="50" height="50" relative="1" as="geometry">
            <mxPoint x="127.09565217391304" y="106.72000000000003" as="sourcePoint" />
            <mxPoint x="146.57391304347826" y="106.86000000000001" as="targetPoint" />
          </mxGeometry>
        </mxCell>
        <mxCell id="-kNc6pRZ_eXD2U5e0rUi-154" value="" style="endArrow=none;html=1;rounded=0;endFill=1;movable=1;resizable=1;rotatable=1;deletable=1;editable=1;locked=0;connectable=1;strokeColor=light-dark(#820303, #EDEDED);startFill=0;strokeWidth=5;endSize=6;" edge="1" parent="-kNc6pRZ_eXD2U5e0rUi-157">
          <mxGeometry width="50" height="50" relative="1" as="geometry">
            <mxPoint x="127.09565217391304" y="120.72000000000003" as="sourcePoint" />
            <mxPoint x="147.54782608695652" y="120.86000000000001" as="targetPoint" />
          </mxGeometry>
        </mxCell>
        <mxCell id="-kNc6pRZ_eXD2U5e0rUi-155" value="" style="endArrow=none;html=1;rounded=0;endFill=1;movable=1;resizable=1;rotatable=1;deletable=1;editable=1;locked=0;connectable=1;strokeColor=light-dark(#820303, #EDEDED);startFill=0;strokeWidth=5;endSize=6;" edge="1" parent="-kNc6pRZ_eXD2U5e0rUi-157">
          <mxGeometry width="50" height="50" relative="1" as="geometry">
            <mxPoint x="127.09565217391304" y="135.72000000000003" as="sourcePoint" />
            <mxPoint x="157.2869565217391" y="135.86" as="targetPoint" />
          </mxGeometry>
        </mxCell>
        <mxCell id="-kNc6pRZ_eXD2U5e0rUi-156" value="&lt;b&gt;Sub domain&lt;/b&gt;" style="text;html=1;align=left;verticalAlign=middle;resizable=0;points=[];autosize=1;strokeColor=none;fillColor=none;" vertex="1" parent="-kNc6pRZ_eXD2U5e0rUi-157">
          <mxGeometry width="90" height="30" as="geometry" />
        </mxCell>
        <mxCell id="-kNc6pRZ_eXD2U5e0rUi-159" value="&lt;font style=&quot;font-size: 10px;&quot;&gt;Loading&lt;/font&gt;" style="text;html=1;align=center;verticalAlign=middle;resizable=0;points=[];autosize=1;strokeColor=none;fillColor=none;" vertex="1" parent="-kNc6pRZ_eXD2U5e0rUi-113">
          <mxGeometry x="119.00391304347826" y="36" width="60" height="30" as="geometry" />
        </mxCell>
        <mxCell id="-kNc6pRZ_eXD2U5e0rUi-279" value="" style="group;strokeColor=default;strokeWidth=0.5;" vertex="1" connectable="0" parent="-kNc6pRZ_eXD2U5e0rUi-113">
          <mxGeometry x="216.00000000000003" y="141.5" width="190.5" height="62.5" as="geometry" />
        </mxCell>
        <mxCell id="-kNc6pRZ_eXD2U5e0rUi-276" value="" style="group" vertex="1" connectable="0" parent="-kNc6pRZ_eXD2U5e0rUi-279">
          <mxGeometry y="9" width="181" height="53.5" as="geometry" />
        </mxCell>
        <mxCell id="-kNc6pRZ_eXD2U5e0rUi-233" value="" style="group" vertex="1" connectable="0" parent="-kNc6pRZ_eXD2U5e0rUi-276">
          <mxGeometry width="60.5" height="52.5" as="geometry" />
        </mxCell>
        <mxCell id="-kNc6pRZ_eXD2U5e0rUi-192" value="" style="group;rotation=-90;" vertex="1" connectable="0" parent="-kNc6pRZ_eXD2U5e0rUi-233">
          <mxGeometry x="10.5" y="1" width="15" height="13" as="geometry" />
        </mxCell>
        <mxCell id="-kNc6pRZ_eXD2U5e0rUi-191" value="" style="curved=1;endArrow=block;html=1;rounded=0;strokeWidth=0.5;endFill=1;endSize=3;entryX=1;entryY=0;entryDx=0;entryDy=0;exitX=0.961;exitY=0.393;exitDx=0;exitDy=0;exitPerimeter=0;strokeColor=light-dark(#990504, #ededed);" edge="1" parent="-kNc6pRZ_eXD2U5e0rUi-192" source="-kNc6pRZ_eXD2U5e0rUi-179" target="-kNc6pRZ_eXD2U5e0rUi-179">
          <mxGeometry width="50" height="50" relative="1" as="geometry">
            <mxPoint x="9" y="9" as="sourcePoint" />
            <mxPoint x="1" y="14" as="targetPoint" />
            <Array as="points">
              <mxPoint x="11" y="-1" />
              <mxPoint x="1" y="-1" />
            </Array>
          </mxGeometry>
        </mxCell>
        <mxCell id="-kNc6pRZ_eXD2U5e0rUi-179" value="" style="ellipse;whiteSpace=wrap;html=1;aspect=fixed;strokeWidth=0.5;fillColor=#f8cecc;strokeColor=#b85450;rotation=-90;" vertex="1" parent="-kNc6pRZ_eXD2U5e0rUi-192">
          <mxGeometry x="4" y="4" width="10" height="10" as="geometry" />
        </mxCell>
        <mxCell id="-kNc6pRZ_eXD2U5e0rUi-193" value="" style="group" vertex="1" connectable="0" parent="-kNc6pRZ_eXD2U5e0rUi-233">
          <mxGeometry x="30.5" y="1" width="15" height="13" as="geometry" />
        </mxCell>
        <mxCell id="-kNc6pRZ_eXD2U5e0rUi-194" value="" style="curved=1;endArrow=block;html=1;rounded=0;strokeWidth=0.5;endFill=1;endSize=3;entryX=1;entryY=0;entryDx=0;entryDy=0;exitX=0.961;exitY=0.393;exitDx=0;exitDy=0;exitPerimeter=0;strokeColor=light-dark(#0241a7, #ededed);" edge="1" parent="-kNc6pRZ_eXD2U5e0rUi-193" source="-kNc6pRZ_eXD2U5e0rUi-195" target="-kNc6pRZ_eXD2U5e0rUi-195">
          <mxGeometry width="50" height="50" relative="1" as="geometry">
            <mxPoint x="5" y="8" as="sourcePoint" />
            <mxPoint as="targetPoint" />
            <Array as="points">
              <mxPoint x="15" y="10" />
              <mxPoint x="15" />
            </Array>
          </mxGeometry>
        </mxCell>
        <mxCell id="-kNc6pRZ_eXD2U5e0rUi-195" value="&lt;font style=&quot;font-size: 10px;&quot;&gt;Y&lt;/font&gt;" style="ellipse;whiteSpace=wrap;html=1;aspect=fixed;strokeWidth=0.5;" vertex="1" parent="-kNc6pRZ_eXD2U5e0rUi-193">
          <mxGeometry y="3" width="10" height="10" as="geometry" />
        </mxCell>
        <mxCell id="-kNc6pRZ_eXD2U5e0rUi-196" value="" style="group" vertex="1" connectable="0" parent="-kNc6pRZ_eXD2U5e0rUi-233">
          <mxGeometry x="45.5" y="14" width="15" height="13" as="geometry" />
        </mxCell>
        <mxCell id="-kNc6pRZ_eXD2U5e0rUi-197" value="" style="curved=1;endArrow=block;html=1;rounded=0;strokeWidth=0.5;endFill=1;endSize=3;entryX=1;entryY=0;entryDx=0;entryDy=0;exitX=0.961;exitY=0.393;exitDx=0;exitDy=0;exitPerimeter=0;strokeColor=light-dark(#980606, #ededed);" edge="1" parent="-kNc6pRZ_eXD2U5e0rUi-196" source="-kNc6pRZ_eXD2U5e0rUi-198" target="-kNc6pRZ_eXD2U5e0rUi-198">
          <mxGeometry width="50" height="50" relative="1" as="geometry">
            <mxPoint x="5" y="8" as="sourcePoint" />
            <mxPoint as="targetPoint" />
            <Array as="points">
              <mxPoint x="15" y="10" />
              <mxPoint x="15" />
            </Array>
          </mxGeometry>
        </mxCell>
        <mxCell id="-kNc6pRZ_eXD2U5e0rUi-198" value="" style="ellipse;whiteSpace=wrap;html=1;aspect=fixed;strokeWidth=0.5;fillColor=#dae8fc;strokeColor=#6c8ebf;" vertex="1" parent="-kNc6pRZ_eXD2U5e0rUi-196">
          <mxGeometry y="3" width="10" height="10" as="geometry" />
        </mxCell>
        <mxCell id="-kNc6pRZ_eXD2U5e0rUi-199" value="" style="group;rotation=-180;" vertex="1" connectable="0" parent="-kNc6pRZ_eXD2U5e0rUi-233">
          <mxGeometry x="10.5" y="21" width="15" height="13" as="geometry" />
        </mxCell>
        <mxCell id="-kNc6pRZ_eXD2U5e0rUi-200" value="" style="curved=1;endArrow=block;html=1;rounded=0;strokeWidth=0.5;endFill=1;endSize=3;entryX=1;entryY=0;entryDx=0;entryDy=0;exitX=0.961;exitY=0.393;exitDx=0;exitDy=0;exitPerimeter=0;strokeColor=light-dark(#0241a7, #ededed);" edge="1" parent="-kNc6pRZ_eXD2U5e0rUi-199" source="-kNc6pRZ_eXD2U5e0rUi-201" target="-kNc6pRZ_eXD2U5e0rUi-201">
          <mxGeometry width="50" height="50" relative="1" as="geometry">
            <mxPoint x="10" y="5" as="sourcePoint" />
            <mxPoint x="15" y="13" as="targetPoint" />
            <Array as="points">
              <mxPoint y="3" />
              <mxPoint y="13" />
            </Array>
          </mxGeometry>
        </mxCell>
        <mxCell id="-kNc6pRZ_eXD2U5e0rUi-201" value="" style="ellipse;whiteSpace=wrap;html=1;aspect=fixed;strokeWidth=0.5;rotation=-180;fillColor=#d5e8d4;strokeColor=#82b366;" vertex="1" parent="-kNc6pRZ_eXD2U5e0rUi-199">
          <mxGeometry x="5" width="10" height="10" as="geometry" />
        </mxCell>
        <mxCell id="-kNc6pRZ_eXD2U5e0rUi-202" value="" style="group;rotation=90;" vertex="1" connectable="0" parent="-kNc6pRZ_eXD2U5e0rUi-233">
          <mxGeometry x="34.5" y="30" width="15" height="13" as="geometry" />
        </mxCell>
        <mxCell id="-kNc6pRZ_eXD2U5e0rUi-203" value="" style="curved=1;endArrow=block;html=1;rounded=0;strokeWidth=0.5;endFill=1;endSize=3;entryX=1;entryY=0;entryDx=0;entryDy=0;exitX=0.961;exitY=0.393;exitDx=0;exitDy=0;exitPerimeter=0;strokeColor=light-dark(#980506, #ededed);" edge="1" parent="-kNc6pRZ_eXD2U5e0rUi-202" source="-kNc6pRZ_eXD2U5e0rUi-204" target="-kNc6pRZ_eXD2U5e0rUi-204">
          <mxGeometry width="50" height="50" relative="1" as="geometry">
            <mxPoint x="6" y="4" as="sourcePoint" />
            <mxPoint x="14" y="-1" as="targetPoint" />
            <Array as="points">
              <mxPoint x="4" y="14" />
              <mxPoint x="14" y="14" />
            </Array>
          </mxGeometry>
        </mxCell>
        <mxCell id="-kNc6pRZ_eXD2U5e0rUi-204" value="" style="ellipse;whiteSpace=wrap;html=1;aspect=fixed;strokeWidth=0.5;fillColor=#fff2cc;strokeColor=#d6b656;rotation=90;" vertex="1" parent="-kNc6pRZ_eXD2U5e0rUi-202">
          <mxGeometry x="1" y="-1" width="10" height="10" as="geometry" />
        </mxCell>
        <mxCell id="-kNc6pRZ_eXD2U5e0rUi-207" value="" style="endArrow=block;html=1;rounded=0;strokeWidth=0.5;endFill=1;endSize=3;strokeColor=light-dark(#980506, #ededed);exitX=0.008;exitY=0.618;exitDx=0;exitDy=0;exitPerimeter=0;entryX=0;entryY=0.5;entryDx=0;entryDy=0;" edge="1" parent="-kNc6pRZ_eXD2U5e0rUi-233" source="-kNc6pRZ_eXD2U5e0rUi-198" target="-kNc6pRZ_eXD2U5e0rUi-201">
          <mxGeometry width="50" height="50" relative="1" as="geometry">
            <mxPoint x="45.5" y="21" as="sourcePoint" />
            <mxPoint x="55.5" y="12" as="targetPoint" />
          </mxGeometry>
        </mxCell>
        <mxCell id="-kNc6pRZ_eXD2U5e0rUi-209" value="" style="endArrow=block;html=1;rounded=0;strokeWidth=0.5;endFill=1;endSize=3;strokeColor=light-dark(#980506, #ededed);exitX=0;exitY=0.5;exitDx=0;exitDy=0;entryX=0.5;entryY=1;entryDx=0;entryDy=0;" edge="1" parent="-kNc6pRZ_eXD2U5e0rUi-233" source="-kNc6pRZ_eXD2U5e0rUi-204" target="-kNc6pRZ_eXD2U5e0rUi-195">
          <mxGeometry width="50" height="50" relative="1" as="geometry">
            <mxPoint x="50.5" y="14" as="sourcePoint" />
            <mxPoint x="30.5" y="17" as="targetPoint" />
          </mxGeometry>
        </mxCell>
        <mxCell id="-kNc6pRZ_eXD2U5e0rUi-210" value="" style="endArrow=block;html=1;rounded=0;strokeWidth=0.5;endFill=1;endSize=3;strokeColor=light-dark(#0241a7, #ededed);exitX=0;exitY=1;exitDx=0;exitDy=0;entryX=0;entryY=1;entryDx=0;entryDy=0;" edge="1" parent="-kNc6pRZ_eXD2U5e0rUi-233" source="-kNc6pRZ_eXD2U5e0rUi-179" target="-kNc6pRZ_eXD2U5e0rUi-204">
          <mxGeometry width="50" height="50" relative="1" as="geometry">
            <mxPoint x="1.5" y="21" as="sourcePoint" />
            <mxPoint x="0.5" y="9" as="targetPoint" />
          </mxGeometry>
        </mxCell>
        <mxCell id="-kNc6pRZ_eXD2U5e0rUi-211" value="" style="endArrow=block;html=1;rounded=0;strokeWidth=0.5;endFill=1;endSize=3;strokeColor=light-dark(#0241a7, #ededed);exitX=0;exitY=1;exitDx=0;exitDy=0;entryX=0;entryY=1;entryDx=0;entryDy=0;" edge="1" parent="-kNc6pRZ_eXD2U5e0rUi-233" source="-kNc6pRZ_eXD2U5e0rUi-201" target="-kNc6pRZ_eXD2U5e0rUi-195">
          <mxGeometry width="50" height="50" relative="1" as="geometry">
            <mxPoint x="-2.5" y="5" as="sourcePoint" />
            <mxPoint x="10.5" y="21" as="targetPoint" />
          </mxGeometry>
        </mxCell>
        <mxCell id="-kNc6pRZ_eXD2U5e0rUi-212" value="&lt;font style=&quot;font-size: 5px;&quot;&gt;Temporal&lt;/font&gt;" style="text;html=1;align=center;verticalAlign=middle;resizable=0;points=[];autosize=1;strokeColor=none;fillColor=none;" vertex="1" parent="-kNc6pRZ_eXD2U5e0rUi-233">
          <mxGeometry y="22.5" width="40" height="30" as="geometry" />
        </mxCell>
        <mxCell id="-kNc6pRZ_eXD2U5e0rUi-234" value="" style="group" vertex="1" connectable="0" parent="-kNc6pRZ_eXD2U5e0rUi-276">
          <mxGeometry x="60.5" y="1" width="60.5" height="52.5" as="geometry" />
        </mxCell>
        <mxCell id="-kNc6pRZ_eXD2U5e0rUi-235" value="" style="group;rotation=-90;" vertex="1" connectable="0" parent="-kNc6pRZ_eXD2U5e0rUi-234">
          <mxGeometry x="10.5" y="1" width="15" height="13" as="geometry" />
        </mxCell>
        <mxCell id="-kNc6pRZ_eXD2U5e0rUi-236" value="" style="curved=1;endArrow=block;html=1;rounded=0;strokeWidth=0.5;endFill=1;endSize=3;entryX=1;entryY=0;entryDx=0;entryDy=0;exitX=0.961;exitY=0.393;exitDx=0;exitDy=0;exitPerimeter=0;strokeColor=light-dark(#990504, #ededed);" edge="1" parent="-kNc6pRZ_eXD2U5e0rUi-235" source="-kNc6pRZ_eXD2U5e0rUi-237" target="-kNc6pRZ_eXD2U5e0rUi-237">
          <mxGeometry width="50" height="50" relative="1" as="geometry">
            <mxPoint x="9" y="9" as="sourcePoint" />
            <mxPoint x="1" y="14" as="targetPoint" />
            <Array as="points">
              <mxPoint x="11" y="-1" />
              <mxPoint x="1" y="-1" />
            </Array>
          </mxGeometry>
        </mxCell>
        <mxCell id="-kNc6pRZ_eXD2U5e0rUi-237" value="" style="ellipse;whiteSpace=wrap;html=1;aspect=fixed;strokeWidth=0.5;fillColor=#f8cecc;strokeColor=#b85450;rotation=-90;" vertex="1" parent="-kNc6pRZ_eXD2U5e0rUi-235">
          <mxGeometry x="4" y="4" width="10" height="10" as="geometry" />
        </mxCell>
        <mxCell id="-kNc6pRZ_eXD2U5e0rUi-238" value="" style="group" vertex="1" connectable="0" parent="-kNc6pRZ_eXD2U5e0rUi-234">
          <mxGeometry x="30.5" y="1" width="15" height="13" as="geometry" />
        </mxCell>
        <mxCell id="-kNc6pRZ_eXD2U5e0rUi-239" value="" style="curved=1;endArrow=block;html=1;rounded=0;strokeWidth=0.5;endFill=1;endSize=3;entryX=1;entryY=0;entryDx=0;entryDy=0;exitX=0.961;exitY=0.393;exitDx=0;exitDy=0;exitPerimeter=0;strokeColor=light-dark(#0241a7, #ededed);" edge="1" parent="-kNc6pRZ_eXD2U5e0rUi-238" source="-kNc6pRZ_eXD2U5e0rUi-240" target="-kNc6pRZ_eXD2U5e0rUi-240">
          <mxGeometry width="50" height="50" relative="1" as="geometry">
            <mxPoint x="5" y="8" as="sourcePoint" />
            <mxPoint as="targetPoint" />
            <Array as="points">
              <mxPoint x="15" y="10" />
              <mxPoint x="15" />
            </Array>
          </mxGeometry>
        </mxCell>
        <mxCell id="-kNc6pRZ_eXD2U5e0rUi-240" value="&lt;font style=&quot;font-size: 10px;&quot;&gt;Y&lt;/font&gt;" style="ellipse;whiteSpace=wrap;html=1;aspect=fixed;strokeWidth=0.5;" vertex="1" parent="-kNc6pRZ_eXD2U5e0rUi-238">
          <mxGeometry y="3" width="10" height="10" as="geometry" />
        </mxCell>
        <mxCell id="-kNc6pRZ_eXD2U5e0rUi-241" value="" style="group" vertex="1" connectable="0" parent="-kNc6pRZ_eXD2U5e0rUi-234">
          <mxGeometry x="45.5" y="14" width="15" height="13" as="geometry" />
        </mxCell>
        <mxCell id="-kNc6pRZ_eXD2U5e0rUi-242" value="" style="curved=1;endArrow=block;html=1;rounded=0;strokeWidth=0.5;endFill=1;endSize=3;entryX=1;entryY=0;entryDx=0;entryDy=0;exitX=0.961;exitY=0.393;exitDx=0;exitDy=0;exitPerimeter=0;strokeColor=light-dark(#980606, #ededed);" edge="1" parent="-kNc6pRZ_eXD2U5e0rUi-241" source="-kNc6pRZ_eXD2U5e0rUi-243" target="-kNc6pRZ_eXD2U5e0rUi-243">
          <mxGeometry width="50" height="50" relative="1" as="geometry">
            <mxPoint x="5" y="8" as="sourcePoint" />
            <mxPoint as="targetPoint" />
            <Array as="points">
              <mxPoint x="15" y="10" />
              <mxPoint x="15" />
            </Array>
          </mxGeometry>
        </mxCell>
        <mxCell id="-kNc6pRZ_eXD2U5e0rUi-243" value="" style="ellipse;whiteSpace=wrap;html=1;aspect=fixed;strokeWidth=0.5;fillColor=#dae8fc;strokeColor=#6c8ebf;" vertex="1" parent="-kNc6pRZ_eXD2U5e0rUi-241">
          <mxGeometry y="3" width="10" height="10" as="geometry" />
        </mxCell>
        <mxCell id="-kNc6pRZ_eXD2U5e0rUi-244" value="" style="group;rotation=-180;" vertex="1" connectable="0" parent="-kNc6pRZ_eXD2U5e0rUi-234">
          <mxGeometry x="10.5" y="21" width="15" height="13" as="geometry" />
        </mxCell>
        <mxCell id="-kNc6pRZ_eXD2U5e0rUi-245" value="" style="curved=1;endArrow=block;html=1;rounded=0;strokeWidth=0.5;endFill=1;endSize=3;entryX=1;entryY=0;entryDx=0;entryDy=0;exitX=0.961;exitY=0.393;exitDx=0;exitDy=0;exitPerimeter=0;strokeColor=light-dark(#0241a7, #ededed);" edge="1" parent="-kNc6pRZ_eXD2U5e0rUi-244" source="-kNc6pRZ_eXD2U5e0rUi-246" target="-kNc6pRZ_eXD2U5e0rUi-246">
          <mxGeometry width="50" height="50" relative="1" as="geometry">
            <mxPoint x="10" y="5" as="sourcePoint" />
            <mxPoint x="15" y="13" as="targetPoint" />
            <Array as="points">
              <mxPoint y="3" />
              <mxPoint y="13" />
            </Array>
          </mxGeometry>
        </mxCell>
        <mxCell id="-kNc6pRZ_eXD2U5e0rUi-246" value="" style="ellipse;whiteSpace=wrap;html=1;aspect=fixed;strokeWidth=0.5;rotation=-180;fillColor=#d5e8d4;strokeColor=#82b366;" vertex="1" parent="-kNc6pRZ_eXD2U5e0rUi-244">
          <mxGeometry x="5" width="10" height="10" as="geometry" />
        </mxCell>
        <mxCell id="-kNc6pRZ_eXD2U5e0rUi-247" value="" style="group;rotation=90;" vertex="1" connectable="0" parent="-kNc6pRZ_eXD2U5e0rUi-234">
          <mxGeometry x="34.5" y="30" width="15" height="13" as="geometry" />
        </mxCell>
        <mxCell id="-kNc6pRZ_eXD2U5e0rUi-248" value="" style="curved=1;endArrow=block;html=1;rounded=0;strokeWidth=0.5;endFill=1;endSize=3;entryX=1;entryY=0;entryDx=0;entryDy=0;exitX=0.961;exitY=0.393;exitDx=0;exitDy=0;exitPerimeter=0;strokeColor=light-dark(#980506, #ededed);" edge="1" parent="-kNc6pRZ_eXD2U5e0rUi-247" source="-kNc6pRZ_eXD2U5e0rUi-249" target="-kNc6pRZ_eXD2U5e0rUi-249">
          <mxGeometry width="50" height="50" relative="1" as="geometry">
            <mxPoint x="6" y="4" as="sourcePoint" />
            <mxPoint x="14" y="-1" as="targetPoint" />
            <Array as="points">
              <mxPoint x="4" y="14" />
              <mxPoint x="14" y="14" />
            </Array>
          </mxGeometry>
        </mxCell>
        <mxCell id="-kNc6pRZ_eXD2U5e0rUi-249" value="" style="ellipse;whiteSpace=wrap;html=1;aspect=fixed;strokeWidth=0.5;fillColor=#fff2cc;strokeColor=#d6b656;rotation=90;" vertex="1" parent="-kNc6pRZ_eXD2U5e0rUi-247">
          <mxGeometry x="1" y="-1" width="10" height="10" as="geometry" />
        </mxCell>
        <mxCell id="-kNc6pRZ_eXD2U5e0rUi-250" value="" style="endArrow=block;html=1;rounded=0;strokeWidth=0.5;endFill=1;endSize=3;strokeColor=light-dark(#980506, #ededed);exitX=0.008;exitY=0.618;exitDx=0;exitDy=0;exitPerimeter=0;entryX=0;entryY=0.5;entryDx=0;entryDy=0;" edge="1" parent="-kNc6pRZ_eXD2U5e0rUi-234" source="-kNc6pRZ_eXD2U5e0rUi-243" target="-kNc6pRZ_eXD2U5e0rUi-246">
          <mxGeometry width="50" height="50" relative="1" as="geometry">
            <mxPoint x="45.5" y="21" as="sourcePoint" />
            <mxPoint x="55.5" y="12" as="targetPoint" />
          </mxGeometry>
        </mxCell>
        <mxCell id="-kNc6pRZ_eXD2U5e0rUi-251" value="" style="endArrow=block;html=1;rounded=0;strokeWidth=0.5;endFill=1;endSize=3;strokeColor=light-dark(#980506, #ededed);exitX=0;exitY=0.5;exitDx=0;exitDy=0;entryX=0.5;entryY=1;entryDx=0;entryDy=0;" edge="1" parent="-kNc6pRZ_eXD2U5e0rUi-234" source="-kNc6pRZ_eXD2U5e0rUi-249" target="-kNc6pRZ_eXD2U5e0rUi-240">
          <mxGeometry width="50" height="50" relative="1" as="geometry">
            <mxPoint x="50.5" y="14" as="sourcePoint" />
            <mxPoint x="30.5" y="17" as="targetPoint" />
          </mxGeometry>
        </mxCell>
        <mxCell id="-kNc6pRZ_eXD2U5e0rUi-252" value="" style="endArrow=block;html=1;rounded=0;strokeWidth=0.5;endFill=1;endSize=3;strokeColor=light-dark(#0241a7, #ededed);exitX=0;exitY=1;exitDx=0;exitDy=0;entryX=0;entryY=1;entryDx=0;entryDy=0;" edge="1" parent="-kNc6pRZ_eXD2U5e0rUi-234" source="-kNc6pRZ_eXD2U5e0rUi-237" target="-kNc6pRZ_eXD2U5e0rUi-249">
          <mxGeometry width="50" height="50" relative="1" as="geometry">
            <mxPoint x="1.5" y="21" as="sourcePoint" />
            <mxPoint x="0.5" y="9" as="targetPoint" />
          </mxGeometry>
        </mxCell>
        <mxCell id="-kNc6pRZ_eXD2U5e0rUi-253" value="" style="endArrow=block;html=1;rounded=0;strokeWidth=0.5;endFill=1;endSize=3;strokeColor=light-dark(#0241a7, #ededed);exitX=0;exitY=1;exitDx=0;exitDy=0;entryX=0;entryY=1;entryDx=0;entryDy=0;" edge="1" parent="-kNc6pRZ_eXD2U5e0rUi-234" source="-kNc6pRZ_eXD2U5e0rUi-246" target="-kNc6pRZ_eXD2U5e0rUi-240">
          <mxGeometry width="50" height="50" relative="1" as="geometry">
            <mxPoint x="-2.5" y="5" as="sourcePoint" />
            <mxPoint x="10.5" y="21" as="targetPoint" />
          </mxGeometry>
        </mxCell>
        <mxCell id="-kNc6pRZ_eXD2U5e0rUi-254" value="&lt;font style=&quot;font-size: 5px;&quot;&gt;Contemporaneous&lt;/font&gt;" style="text;html=1;align=center;verticalAlign=middle;resizable=0;points=[];autosize=1;strokeColor=none;fillColor=none;" vertex="1" parent="-kNc6pRZ_eXD2U5e0rUi-234">
          <mxGeometry x="-10" y="22.5" width="60" height="30" as="geometry" />
        </mxCell>
        <mxCell id="-kNc6pRZ_eXD2U5e0rUi-255" value="" style="group" vertex="1" connectable="0" parent="-kNc6pRZ_eXD2U5e0rUi-276">
          <mxGeometry x="120.5" y="1" width="60.5" height="52.5" as="geometry" />
        </mxCell>
        <mxCell id="-kNc6pRZ_eXD2U5e0rUi-256" value="" style="group;rotation=-90;" vertex="1" connectable="0" parent="-kNc6pRZ_eXD2U5e0rUi-255">
          <mxGeometry x="10.5" y="1" width="15" height="13" as="geometry" />
        </mxCell>
        <mxCell id="-kNc6pRZ_eXD2U5e0rUi-257" value="" style="curved=1;endArrow=block;html=1;rounded=0;strokeWidth=0.5;endFill=1;endSize=3;entryX=1;entryY=0;entryDx=0;entryDy=0;exitX=0.961;exitY=0.393;exitDx=0;exitDy=0;exitPerimeter=0;strokeColor=light-dark(#990504, #ededed);" edge="1" parent="-kNc6pRZ_eXD2U5e0rUi-256" source="-kNc6pRZ_eXD2U5e0rUi-258" target="-kNc6pRZ_eXD2U5e0rUi-258">
          <mxGeometry width="50" height="50" relative="1" as="geometry">
            <mxPoint x="9" y="9" as="sourcePoint" />
            <mxPoint x="1" y="14" as="targetPoint" />
            <Array as="points">
              <mxPoint x="11" y="-1" />
              <mxPoint x="1" y="-1" />
            </Array>
          </mxGeometry>
        </mxCell>
        <mxCell id="-kNc6pRZ_eXD2U5e0rUi-258" value="" style="ellipse;whiteSpace=wrap;html=1;aspect=fixed;strokeWidth=0.5;fillColor=#f8cecc;strokeColor=#b85450;rotation=-90;" vertex="1" parent="-kNc6pRZ_eXD2U5e0rUi-256">
          <mxGeometry x="4" y="4" width="10" height="10" as="geometry" />
        </mxCell>
        <mxCell id="-kNc6pRZ_eXD2U5e0rUi-259" value="" style="group" vertex="1" connectable="0" parent="-kNc6pRZ_eXD2U5e0rUi-255">
          <mxGeometry x="30.5" y="1" width="15" height="13" as="geometry" />
        </mxCell>
        <mxCell id="-kNc6pRZ_eXD2U5e0rUi-260" value="" style="curved=1;endArrow=block;html=1;rounded=0;strokeWidth=0.5;endFill=1;endSize=3;entryX=1;entryY=0;entryDx=0;entryDy=0;exitX=0.961;exitY=0.393;exitDx=0;exitDy=0;exitPerimeter=0;strokeColor=light-dark(#0241a7, #ededed);" edge="1" parent="-kNc6pRZ_eXD2U5e0rUi-259" source="-kNc6pRZ_eXD2U5e0rUi-261" target="-kNc6pRZ_eXD2U5e0rUi-261">
          <mxGeometry width="50" height="50" relative="1" as="geometry">
            <mxPoint x="5" y="8" as="sourcePoint" />
            <mxPoint as="targetPoint" />
            <Array as="points">
              <mxPoint x="15" y="10" />
              <mxPoint x="15" />
            </Array>
          </mxGeometry>
        </mxCell>
        <mxCell id="-kNc6pRZ_eXD2U5e0rUi-261" value="&lt;font style=&quot;font-size: 10px;&quot;&gt;Y&lt;/font&gt;" style="ellipse;whiteSpace=wrap;html=1;aspect=fixed;strokeWidth=0.5;" vertex="1" parent="-kNc6pRZ_eXD2U5e0rUi-259">
          <mxGeometry y="3" width="10" height="10" as="geometry" />
        </mxCell>
        <mxCell id="-kNc6pRZ_eXD2U5e0rUi-262" value="" style="group" vertex="1" connectable="0" parent="-kNc6pRZ_eXD2U5e0rUi-255">
          <mxGeometry x="45.5" y="14" width="15" height="13" as="geometry" />
        </mxCell>
        <mxCell id="-kNc6pRZ_eXD2U5e0rUi-263" value="" style="curved=1;endArrow=block;html=1;rounded=0;strokeWidth=0.5;endFill=1;endSize=3;entryX=1;entryY=0;entryDx=0;entryDy=0;exitX=0.961;exitY=0.393;exitDx=0;exitDy=0;exitPerimeter=0;strokeColor=light-dark(#980606, #ededed);" edge="1" parent="-kNc6pRZ_eXD2U5e0rUi-262" source="-kNc6pRZ_eXD2U5e0rUi-264" target="-kNc6pRZ_eXD2U5e0rUi-264">
          <mxGeometry width="50" height="50" relative="1" as="geometry">
            <mxPoint x="5" y="8" as="sourcePoint" />
            <mxPoint as="targetPoint" />
            <Array as="points">
              <mxPoint x="15" y="10" />
              <mxPoint x="15" />
            </Array>
          </mxGeometry>
        </mxCell>
        <mxCell id="-kNc6pRZ_eXD2U5e0rUi-264" value="" style="ellipse;whiteSpace=wrap;html=1;aspect=fixed;strokeWidth=0.5;fillColor=#dae8fc;strokeColor=#6c8ebf;" vertex="1" parent="-kNc6pRZ_eXD2U5e0rUi-262">
          <mxGeometry y="3" width="10" height="10" as="geometry" />
        </mxCell>
        <mxCell id="-kNc6pRZ_eXD2U5e0rUi-265" value="" style="group;rotation=-180;" vertex="1" connectable="0" parent="-kNc6pRZ_eXD2U5e0rUi-255">
          <mxGeometry x="10.5" y="21" width="15" height="13" as="geometry" />
        </mxCell>
        <mxCell id="-kNc6pRZ_eXD2U5e0rUi-266" value="" style="curved=1;endArrow=block;html=1;rounded=0;strokeWidth=0.5;endFill=1;endSize=3;entryX=1;entryY=0;entryDx=0;entryDy=0;exitX=0.961;exitY=0.393;exitDx=0;exitDy=0;exitPerimeter=0;strokeColor=light-dark(#0241a7, #ededed);" edge="1" parent="-kNc6pRZ_eXD2U5e0rUi-265" source="-kNc6pRZ_eXD2U5e0rUi-267" target="-kNc6pRZ_eXD2U5e0rUi-267">
          <mxGeometry width="50" height="50" relative="1" as="geometry">
            <mxPoint x="10" y="5" as="sourcePoint" />
            <mxPoint x="15" y="13" as="targetPoint" />
            <Array as="points">
              <mxPoint y="3" />
              <mxPoint y="13" />
            </Array>
          </mxGeometry>
        </mxCell>
        <mxCell id="-kNc6pRZ_eXD2U5e0rUi-267" value="" style="ellipse;whiteSpace=wrap;html=1;aspect=fixed;strokeWidth=0.5;rotation=-180;fillColor=#d5e8d4;strokeColor=#82b366;" vertex="1" parent="-kNc6pRZ_eXD2U5e0rUi-265">
          <mxGeometry x="5" width="10" height="10" as="geometry" />
        </mxCell>
        <mxCell id="-kNc6pRZ_eXD2U5e0rUi-268" value="" style="group;rotation=90;" vertex="1" connectable="0" parent="-kNc6pRZ_eXD2U5e0rUi-255">
          <mxGeometry x="34.5" y="30" width="15" height="13" as="geometry" />
        </mxCell>
        <mxCell id="-kNc6pRZ_eXD2U5e0rUi-269" value="" style="curved=1;endArrow=block;html=1;rounded=0;strokeWidth=0.5;endFill=1;endSize=3;entryX=1;entryY=0;entryDx=0;entryDy=0;exitX=0.961;exitY=0.393;exitDx=0;exitDy=0;exitPerimeter=0;strokeColor=light-dark(#980506, #ededed);" edge="1" parent="-kNc6pRZ_eXD2U5e0rUi-268" source="-kNc6pRZ_eXD2U5e0rUi-270" target="-kNc6pRZ_eXD2U5e0rUi-270">
          <mxGeometry width="50" height="50" relative="1" as="geometry">
            <mxPoint x="6" y="4" as="sourcePoint" />
            <mxPoint x="14" y="-1" as="targetPoint" />
            <Array as="points">
              <mxPoint x="4" y="14" />
              <mxPoint x="14" y="14" />
            </Array>
          </mxGeometry>
        </mxCell>
        <mxCell id="-kNc6pRZ_eXD2U5e0rUi-270" value="" style="ellipse;whiteSpace=wrap;html=1;aspect=fixed;strokeWidth=0.5;fillColor=#fff2cc;strokeColor=#d6b656;rotation=90;" vertex="1" parent="-kNc6pRZ_eXD2U5e0rUi-268">
          <mxGeometry x="1" y="-1" width="10" height="10" as="geometry" />
        </mxCell>
        <mxCell id="-kNc6pRZ_eXD2U5e0rUi-271" value="" style="endArrow=block;html=1;rounded=0;strokeWidth=0.5;endFill=1;endSize=3;strokeColor=light-dark(#980506, #ededed);exitX=0.008;exitY=0.618;exitDx=0;exitDy=0;exitPerimeter=0;entryX=0;entryY=0.5;entryDx=0;entryDy=0;" edge="1" parent="-kNc6pRZ_eXD2U5e0rUi-255" source="-kNc6pRZ_eXD2U5e0rUi-264" target="-kNc6pRZ_eXD2U5e0rUi-267">
          <mxGeometry width="50" height="50" relative="1" as="geometry">
            <mxPoint x="45.5" y="21" as="sourcePoint" />
            <mxPoint x="55.5" y="12" as="targetPoint" />
          </mxGeometry>
        </mxCell>
        <mxCell id="-kNc6pRZ_eXD2U5e0rUi-272" value="" style="endArrow=block;html=1;rounded=0;strokeWidth=0.5;endFill=1;endSize=3;strokeColor=light-dark(#980506, #ededed);exitX=0;exitY=0.5;exitDx=0;exitDy=0;entryX=0.5;entryY=1;entryDx=0;entryDy=0;" edge="1" parent="-kNc6pRZ_eXD2U5e0rUi-255" source="-kNc6pRZ_eXD2U5e0rUi-270" target="-kNc6pRZ_eXD2U5e0rUi-261">
          <mxGeometry width="50" height="50" relative="1" as="geometry">
            <mxPoint x="50.5" y="14" as="sourcePoint" />
            <mxPoint x="30.5" y="17" as="targetPoint" />
          </mxGeometry>
        </mxCell>
        <mxCell id="-kNc6pRZ_eXD2U5e0rUi-273" value="" style="endArrow=block;html=1;rounded=0;strokeWidth=0.5;endFill=1;endSize=3;strokeColor=light-dark(#0241a7, #ededed);exitX=0;exitY=1;exitDx=0;exitDy=0;entryX=0;entryY=1;entryDx=0;entryDy=0;" edge="1" parent="-kNc6pRZ_eXD2U5e0rUi-255" source="-kNc6pRZ_eXD2U5e0rUi-258" target="-kNc6pRZ_eXD2U5e0rUi-270">
          <mxGeometry width="50" height="50" relative="1" as="geometry">
            <mxPoint x="1.5" y="21" as="sourcePoint" />
            <mxPoint x="0.5" y="9" as="targetPoint" />
          </mxGeometry>
        </mxCell>
        <mxCell id="-kNc6pRZ_eXD2U5e0rUi-274" value="" style="endArrow=block;html=1;rounded=0;strokeWidth=0.5;endFill=1;endSize=3;strokeColor=light-dark(#0241a7, #ededed);exitX=0;exitY=1;exitDx=0;exitDy=0;entryX=0;entryY=1;entryDx=0;entryDy=0;" edge="1" parent="-kNc6pRZ_eXD2U5e0rUi-255" source="-kNc6pRZ_eXD2U5e0rUi-267" target="-kNc6pRZ_eXD2U5e0rUi-261">
          <mxGeometry width="50" height="50" relative="1" as="geometry">
            <mxPoint x="-2.5" y="5" as="sourcePoint" />
            <mxPoint x="10.5" y="21" as="targetPoint" />
          </mxGeometry>
        </mxCell>
        <mxCell id="-kNc6pRZ_eXD2U5e0rUi-275" value="&lt;font style=&quot;font-size: 5px;&quot;&gt;Between&lt;/font&gt;" style="text;html=1;align=center;verticalAlign=middle;resizable=0;points=[];autosize=1;strokeColor=none;fillColor=none;" vertex="1" parent="-kNc6pRZ_eXD2U5e0rUi-255">
          <mxGeometry y="22.5" width="40" height="30" as="geometry" />
        </mxCell>
        <mxCell id="-kNc6pRZ_eXD2U5e0rUi-278" value="" style="endArrow=none;html=1;rounded=0;strokeWidth=0.5;" edge="1" parent="-kNc6pRZ_eXD2U5e0rUi-279">
          <mxGeometry width="50" height="50" relative="1" as="geometry">
            <mxPoint x="140.5" as="sourcePoint" />
            <mxPoint x="190.5" as="targetPoint" />
          </mxGeometry>
        </mxCell>
        <mxCell id="-kNc6pRZ_eXD2U5e0rUi-283" value="" style="shape=image;verticalLabelPosition=bottom;labelBackgroundColor=default;verticalAlign=top;aspect=fixed;imageAspect=0;image=data:image/png,iVBORw0KGgoAAAANSUhEUgAAB5YAAAUWCAYAAABZsl8eAAAACXBIWXMAABYlAAAWJQFJUiTwAAAgAElEQVR4nOzdT4ic9f3A8c+z7r9o/poIViuVagmmVYumKK1QpZQcpIeaQ6E9KRT07qFF9NSDBUtBGqQ99SD2om3FUvEYsViK0IN0t1LEkDaNxk1/Jm6SnZ3deX6HzczO38/O7s5m9s/rBdk8M/M83/lOSDK7857nO0VZlmUAAAAAAAAAQA8jw54AAAAAAAAAAJubsAwAAAAAAABASlgGAAAAAAAAICUsAwAAAAAAAJASlgEAAAAAAABICcsAAAAAAAAApIRlAAAAAAAAAFLCMgAAAAAAAAApYRkAAAAAAACAlLAMAAAAAAAAQGp02BNgJ5mLiHLYkwDYMiqVSlQqlYiImJiYjImJ8SHPiNUrImJy2JMA2LHOnz8fZbn0M8jBgwejKIohzwgAto65ubmYnZ2NiIjJycnYvXv3kGcEAAybM5YBAAAAAAAASAnLAAAAAAAAAKSEZQAAAAAAAABSwjIAAAAAAAAAKWEZAAAAAAAAgJSwDAAAAAAAAEBKWAYAAAAAAAAgJSwDAAAAAAAAkBKWAQAAAAAAAEgJywAAAAAAAACkhGUAAAAAAAAAUsIyAAAAAAAAAKnRQQ946tSpeP311+Ojjz6KSqUSd955Zxw5ciSOHj0aN91007rH/93vfhd/+ctf4jvf+U58//vfH+pcAAAAAAAAAHaCgYblN998M1566aWW686cORMnT56Mffv2xfPPPx+33nrrmsdfWFiIP//5z3HhwoX47LPPhjoXAAAAAAAAgJ1iYEthv//++42QOz4+Ho888kg8/vjj8dBDD8Xo6GhcuHAhnn322fj000/XNP7ly5fjxRdfjAsXLgx9LgAAAAAAAAA7ycDOWH755Zcb208//XQ8+OCDjctvvfVWnDhxImZmZuK1116LJ598sq8x//e//8Uf/vCHOH36dPzjH/+I+fn5oc0FAAAAAAAAYKcayBnLp0+fjunp6YiIeOSRR1pCbkTEsWPH4vDhwxER8fbbb8fi4mJf43766afx+uuvx9///ve+o/JGzQUAAAAAAABgpxrIGctTU1ON7QceeKDrPvfff3988MEHMTs7G9PT0/G1r31txXEPHToUP/rRjxqXK5VKvPrqq0OZCwAAAAAAAMBONZCw/MEHHzS277777q771M8SjoiYmZnpa9yDBw/GD37wg8blixcvrhiWN2ou3SwuLjrjeRVGRqoRUQ57GgBbxsJCtWX7uuuKIc6GtSmiVhvIAjEArEFZLv/8MT8/H0XhuRQA+tW8guT8/HzfK0oCbHXj4+PDngJsWgMJy5999tnSYKOjsWfPnq777N+/v7F94cKFQdzt0OdSqVTi8uXLaz5+pxkbWwyv4wCszeLiYly+fGXY02CVyjKiWq0MexoARMTnn38+7CkAwJZVq9Xi4sWLw54GwDVx6NChYU8BNq2BnEJT/wF99+7dPfe5/vrrG9sbGZY301wAAAAAAAAAtoOBnLE8NzcXERE33HBDz31GRpYbdq1WG8TdDn0u1113nSURVmF0tLryTgA0LCwstFweHR3I0zbXWFGMDXsKADtW85KdY2NjlsIGgFVoX/ra66AAwEBeod67d29ELEfdbi5dutTY3rdv3yDuduhzmZiYiImJiTUfv/PMhc9YBuhfpVKJSmVpGeWJicmYmPBD/NZTRMTksCcBsGOdP3++8TnLe/fuFZYBYBXm5uZidnY2IiImJyfTFSIBgJ1hIEth33jjjRERjW80umn+PKt6/N0Im2kuAAAAAAAAANvBQMLygQMHImLpzKqPP/646z4zMzON7Y384PPNNBcAAAAAAACA7WAgYfnw4cON7ampqa77vPvuuxGxtHz0XXfdNYi73fRzAQAAAAAAANgOBhKWjx49GpOTS58f+Morr3R8vvHMzEy89957ERFx3333xfj4xn1G5GaaCwAAAAAAAMB2MJCwPDk5GQ8//HBERJw7dy5OnDgRZ8+ejYiIU6dOxTPPPBMLCwsREfHoo4+2HPvGG2/E8ePH4/jx4/HOO+8MdS4AAAAAAAAAdBod1EBPPPFEnD59OqampuLkyZNx8uTJ2LVrV1y5cqWxz7Fjx+Kee+5pOW5+fj6q1WpERNRqtaHOBQAAAAAAAIBOAzljOWLpTOHnnnsu7r333sZ19ZA7Ojoajz32WDz11FOdExhZ2xTGxsYGPhcAAAAAAAAAOhVlWZaDHvTSpUsxPT0dZ8+ejYMHD8aRI0di//79g76bLTcX5iJi4H/dALatSqUSlUolIiImJiZjYmJ8yDNi9YqImBz2JAB2rPPnz0f9R96DBw9GURRDnhEAbB1zc3MxOzsbEUsn8uzevXvIMwIAhm1DwjJ0JywDrIawvB0IywDDJCwDwNoJywBAu4EthQ0AAAAAAADA9iQsAwAAAAAAAJASlgEAAAAAAABICcsAAAAAAAAApIRlAAAAAAAAAFLCMgAAAAAAAAApYRkAAAAAAACAlLAMAAAAAAAAQEpYBgAAAAAAACAlLAMAAAAAAACQEpYBAAAAAAAASAnLAAAAAAAAAKSEZQAAAAAAAABSwjIAAAAAAAAAKWEZAAAAAAAAgJSwDAAAAAAAAEBKWAYAAAAAAAAgJSwDAAAAAAAAkBKWAQAAAAAAAEgJywAAAAAAAACkhGUAAAAAAAAAUsIyAAAAAADAdlSrLf0CGIDRYU8AAAAAAACAiCjLwf2qGxuL2Lt3eI8J2DaEZQAAAAAAgLVoD7lluXSGcK/Qm93WHIMBNiFhGQAAAAAA2Dnq8be+3fyrOfx23F6LqAnBwM4lLAMAAAAAAJtXFoKbY3Cv250VDDAQwjIAAAAAADA4q/oc4HL5LOBut+nAAJuGsAwAAAAAADvZSmcE9x2CwxnBANuYsAwAAAAAAFtFt5BraWgArgFhmWtncWHp96JY+rV0IaLoeQQAAAAAwNbVTwTutU89DovAAGwSwjLXzuVL+e3F1S9FEY3aXHT5vSVKl52Ruvn4rses72EAAAAAANtQ3xG4dvVzf68uCR2xdF1NBAZgexOW2Tzq34xdy2+4imI5aPeM0c2Xr8bs+nXNobpn0K5H8Y15CAAAAACwY6znDOBet0d59bVJACAjLLOzleVy0L6W2qNzy3VNlxu/17fLzljdfDZ2r/FFbQAAAAA2WkuwLSOi6C/8th/rc4ABYFMSlmEY2r9xvpZWc5Z28+8dZ2vXr2vev61gd43j638IADtW+3NHr+eStTzHrHasvu5jAO/6L8ul546NfNosVvnktBH7r7TPau+z3zH6vQ4AgK1rpYjb43JRqcTIlSsRZRkjCwv9hWEAYFsTlmGnGdZZ2r10C9g9b1vhmG7hu3nIbvfR836EcFiTjv9akhCavuiQHZfs2xFe2/8RrxBmV3whpEsoXemY+Sur29+LMWxWgwrqHc/rjS9rOHYdYbyfY9f1GNqu63fs1c6x37EAgOHqduZte9Tttd3t56iVwnDzvmtUzFdipFK5eqGImJ9f13gAwNYnLAPDtRWXM+p2ZvfShVXun+zXdd/227v8ma10TI+reh+/moM3o1X+ver372HP3VZxZmdH8OxyfKUSxfzSD/FFRERZ6z1et7FWG0DXHV3pUEZEbav9u4EeVvt/gP8zhq+veN34kh/b7xsAVvp+ZlBBvZ/5FEUU1erVlQ+KiGo1/75stSsHiPwAm0evYNt+e307C7w9x7n6M1avANx+Xbf7BgDY4oRlgNWyzBPXSFGdj5FqdWm7sYw9APSpn+9TNtNKNhvgukuXorz651CMjg43/K4Yrhtfeh8z6Msdc1jD8dfiun73WcsbGWC7WSlqZs8NvX7WXdV20xtcV/pIlV5n4fa6rusbdrfvcxgAwGYkLAMAAMBGW/GjEBpfuFY2aon/tYw/qH0HHdM3fZy/GjGLWN0/n75XKlrvR5h0WUWon9vXukIRAABsMGEZAAAA2Hks8Q8AALAqI8OeAAAAAAAAAACbm7AMAAAAAAAAQEpYBgAAAAAAACAlLAMAAAAAAACQEpYBAAAAAAAASAnLAAAAAAAAAKSEZQAAAAAAAABSwjIAAAAAAAAAKWEZAAAAAAAAgJSwDAAAAAAAAEBKWAYAAAAAAAAgJSwDAAAAAAAAkBKWAQAAAAAAAEgJywAAAAAAAACkhGUAAAAAAAAAUsIyAAAAAAAAAClhGQAAAAAAAICUsAwAAAAAAABASlgGAAAAAAAAICUsAwAAAAAAAJASlgEAAAAAAABICcsAAAAAAAAApIRlAAAAAAAAAFLCMgAAAAAAAAApYRkAAAAAAACAlLAMAAAAAAAAQEpYBgAAAAAAACAlLAMAAAAAAACQEpYBAAAAAAAASAnLAAAAAAAAAKSEZQAAAAAAgO2qHPYEgO1idNgTAAAAAAAAYEkZEWVZRq2MqJVlRBmN7TKu/l4WUV69rlYu7b90XEQtlq+rlRG7dpVxaN+QHxSwLQjLAAAAAAAA67AUe2M58ta3o4xaLAXfsjkQN/1eRj0iLwdigM1IWAYAAAAAAHaU5rN9o2wKu6sIwWXTWcQAO4GwDAAAAAAAbGrNy0OXZfP2UgheCsRtITiazh5uWx4agNUTlgEAAAAAgIFq/ZzgaDorePlzgqMslq6LLstIt1835McDgLAMAAAAAADE8tLQZXPgLZuWhg6fEwywkwnLAAAAAACwxbR/1m+2NHTHZwK3X3f17GAAyAjLXDOLtSKKKGOkiIhi2LMBAAAAALg2GkE3WpeFrkfg+pnAzUs/N5/52/oZwc4IBmA4hGWumf+7shDR9O1OcfVrozMXS78XxfLtRdF8fdFyfRFFY9/G9Y3jixipj1ksjw8AAAAA0Eu3s4DL5rN+o35d0RGLy8aZwMvX1wMxAGwHwjJDU179WrZeEb3farf+78C6xuxiuTk3R+jmmD0Sy8G6d8xujd1FES37AgAAAADrV4+/9eAbzZ8B3OXzgLMA3BGRh/nAAGCTE5bZUbrG7PS7xcF8K1kP2iP1y23RuVfQLlpuK1pOum65rR7LRW0AAAAAhqw55JbNyz5H+9LPy2f+Nofi5uWfG+G3fqzyCwBDIyzDNVAP2ovNV1yDoB2x8pLjESuE7ca+ReP25rHbz9iOaAvcy5MAYAOVjS9t1zVdWXa9vfVCt2eg5uuKpkHSfbP7aj+mjKXnio6d1vN8WHReLAfzxqt0iGLlfZpvK4vla3sd0/5c2m2/1sfVNlbhqRgAgM7YW8ZSrS2bo20sb8/PL8aV+aXYO1rWYi4WWs7qdcYvAOw8wjJsc6tfcnzFG9ekaNrKIndE6/Lkrfv0F7yb768jojeN0XjxvzkCeOUdNk6XcNkeOus7tP5XVbbf3LJP5x5d77Zlo98xym4RtVswLXvMoYyoXOkWYpf/X+4Ze8vu+2cBGFaj6NhofqZtutwjanc8f7cfl9xP5/idYb3940eaLzTPM59T80bzOxiK1u8Fuh3TMeXOj0TpnFPrbWWxisfVclvRMnffngDA9tF8Zm7z2bwtobZ+uWn/KIvlZZzrxzftX//5oR56W5eBXlvsrVZrMVepRUTEWCzGwsjiCkcAANudsAxcE1kc6f+nm2uXUdpfGm8O1S0vQicv9nbc3vbidXMsb7/f1heTO1+B7vcF5q5ntXW5sb/xOl/AX432F+DXrOy6ucYhVh6hW0xsP2ot8+gVKZtTarVaRrW69G9msSijGrUe97ccSjtu7zbvVYbJsn3/LmN2T6eUZURlsTbsaUBXvf9Nr+J087XtyDplob2x1S2ar+PNAMvXdX48S9fvT9b9BoC2N/9l80yi//xiGWVZRhER8wu1xso8ZdHl8ad/Zst7+8gZgM1t+Y2fZcvPMvXQWrRF24jWkBtN+0bLPm3RtznqNu6ze9iNpssAAFuZsAzQRXsa6xXq1v9ToR8r6W1hvhbzC1e3i1qMhkAJQOf3JWt/Q8D2/z5k9lKt8bbGuesWNuT0784o3WWFnPq+PVYI6BXrW/eNzrC/4ooC3c9+73zzQFPQ77J/1/to/toe5Xuexd/2psm+HkPb4+gxNyDX+UbUsuk5pDOiLl1XRtEWQ9vfdNqIpu3jtI3VcV89wu/ydtNP5W3zbo66yzG39fEAALAxhGUAAABYo66xpuXGFY9mQLqvFNRlhaC+lqRvv7336j3dzvLvvU/3lQKyOfQxfGOH7ushldH5SPI7GGa4r8+2+d/WWsdZ7Z697rPrWD0iZuuKIMnyw11WESrbdugWdLvdT/Mj6LmSEQAADICwDAAAAGx53T/2o99K2PfoAAAAO9bIsCcAAAAAAAAAwOYmLAMAAAAAAACQEpYBAAAAAAAASAnLAAAAAAAAAKSEZQAAAAAAAABSwjIAAAAAAAAAKWEZAAAAAAAAgJSwDAAAAAAAAEBKWAYAAAAAAAAgJSwDAAAAAAAAkBKWAQAAAAAAAEgJywAAAAAAAACkhGUAAAAAAAAAUsIyAAAAAAAAAClhGQAAAAAAAICUsAwAAAAAAABASlgGAAAAAAAAICUsAwAAAAAAAJASlgEAAAAAAABICcsAAAAAAAAApIRlAAAAAAAAAFLCMgAAAAAAAAApYRkAAAAAAACAlLAMAAAAAAAAQEpYBgAAAAAAACAlLAMAAAAAAACQEpYBAAAAAAAASAnLAAAAAAAAAKSEZQAAAAAAAABSwjIAAAAAAAAAKWEZAAAAAAAAgJSwDAAAAAAAAEBKWAYAAAAAAAAgJSwDAAAAAAAAkBKWAQAAAAAAAEgJywAAAAAAAACkhGUAAAAAAAAAUsIyAAAAAAAAAClhGQAAAAAAAICUsAwAAAAAAABASlgGAAAAAAAAICUsAwAAAAAAAJASlgEAAAAAAABICcsAAAAAAAAApIRlAAAAAAAAAFLCMgAAAAAAAAApYRkAAAAAAACAlLAMAAAAAAAAQEpYBgAAAAAAACAlLAMAAAAAAACQEpYBAAAAAAAASAnLAAAAAAAAAKSEZQAAAAAAAABSwjIAAAAAAAAAKWEZAAAAAAAAgJSwDAAAAAAAAEBKWAYAAAAAAAAgJSwDAAAAAAAAkBKWAQAAAAAAAEgJywAAAAAAAACkhGUAAAAAAAAAUsIyAAAAAAAAAClhGQAAAAAAAICUsAwAAAAAAABASlgGAAAAAAAAICUsAwAAAAAAAJASlgEAAAAAAABICcsAAAAAAAAApIRlAAAAAAAAAFLCMgAAAAAAAAApYRkAAAAAAACAlLAMAAAAAAAAQEpYBgAAAAAAACAlLAMAAAAAAACQEpYBAAAAAAAASAnLAAAAAAAAAKSEZQAAAAAAAABSwjIAAAAAAAAAKWEZAAAAAAAAgJSwDAAAAAAAAEBKWAYAAAAAAAAgJSwDAAAAAAAAkBKWAQAAAAAAAEgJywAAAAAAAACkhGUAAAAAAAAAUsIyAAAAAAAAAClhGQAAAAAAAICUsAwAAAAAAABASlgGAAAAAAAAICUsAwAAAAAAAJASlgEAAAAAAABICcsAAAAAAAAApIRlAAAAAAAAAFLCMgAAAAAAAAApYRkAAAAAAACAlLAMAAAAAAAAQEpYBgAAAAAAACAlLAMAAAAAAACQEpYBAAAAAAAASAnLAAAAAAAAAKSEZQAAAAAAAABSwjIAAAAAAAAAKWEZAAAAAAAAgJSwDAAAAAAAAEBKWAYAAAAAAAAgJSwDAAAAAAAAkBKWAQAAAAAAAEgJywAAAAAAAACkhGUAAAAAAAAAUsIyAAAAAAAAAClhGQAAAAAAAICUsAwAAAAAAABASlgGAAAAAAAAICUsAwAAAAAAAJASlgEAAAAAAABICcsAAAAAAAAApIRlAAAAAAAAAFLCMgAAAAAAAAApYRkAAAAAAACAlLAMAAAAAAAAQEpYBgAAAAAAACAlLAMAAAAAAACQEpYBAAAAAAAASAnLAAAAAAAAAKSEZQAAAAAAAABSwjIAAAAAAAAAKWEZAAAAAAAAgJSwDAAAAAAAAEBKWAYAAAAAAAAgJSwDAAAAAAAAkBKWAQAAAAAAAEgJywAAAAAAAACkhGUAAAAAAAAAUsIyAAAAAAAAAClhGQAAAAAAAICUsAwAAAAAAABASlgGAAAAAAAAICUsAwAAAAAAAJASlgEAAAAAAABICcsAAAAAAAAApIRlAAAAAAAAAFLCMgAAAAAAAAApYRkAAAAAAACAlLAMAAAAAAAAQEpYBgAAAAAAACAlLAMAAAAAAACQEpYBAAAAAAAASAnLAAAAAAAAAKSEZQAAAAAAAABSwjIAAAAAAAAAKWEZAAAAAAAAgJSwDAAAAAAAAEBKWAYAAAAAAAAgJSwDAAAAAAAAkBKWAQAAAAAAAEgJywAAAAAAAACkhGUAAAAAAAAAUsIyAAAAAAAAAClhGQAAAAAAAICUsAwAAAAAAABASlgGAAAAAAAAICUsAwAAAAAAAJASlgEAAAAAAABICcsAAAAAAAAApIRlAAAAAAAAAFLCMgAAAAAAAAApYRkAAAAAAACAlLAMAAAAAAAAQEpYBgAAAAAAACAlLAMAAAAAAACQEpYBAAAAAAAASAnLAAAAAAAAAKSEZQAAAAAAAABSwjIAAAAAAAAAqdFBD3jq1Kl4/fXX46OPPopKpRJ33nlnHDlyJI4ePRo33XTTNRvzt7/9bVy6dCkd9+jRo/HAAw+saU4AAAAAAAAAO8VAw/Kbb74ZL730Ust1Z86ciZMnT8a+ffvi+eefj1tvvXXDx1xcXIw//vGPUavV0rHHx8eFZQAAAAAAAIAVDCwsv//++40APD4+Ht/61rfi9ttvj3/961/x17/+NS5cuBDPPvts/PznP+/7zOW1jnnu3LlGVL7jjjviuuuu6zr+oUOH1vOQAQAAAAAAAHaEgYXll19+ubH99NNPx4MPPti4/NZbb8WJEydiZmYmXnvttXjyySc3dMxPPvkkIiJGR0fjhRde6BmWAQAAAAAAAFjZyCAGOX36dExPT0dExCOPPNISgCMijh07FocPH46IiLfffjsWFxc3dMyzZ89GRMStt94qKgMAAAAAAACs00DC8tTUVGO712cW33///RERMTs72wjGGzXmxx9/HBERt91224r3AwAAAAAAAEBuIEthf/DBB43tu+++u+s+9bOLIyJmZmY2dMwzZ85ERMTNN98cf/vb3+LUqVPxn//8Jw4cOBBf+tKX4hvf+Ebs2bNnxTmspFqtRrVaXfc4O8XC/PywpwCwpcwvLCxvVxciyiFOhjUpyzLmK8OeBcDOVTY9eVYqc1EUxRBnAwBbS3W+2rI94nkUtqxipIzLly8PexpbxvXXXz/sKcCmNZCw/Nlnny0NNjraM9ju37+/sX3hwoUNHbMell999dWux+3duzd+/OMfx7e//e0V55GpVqv+M16F6sKCJgKwDs2hmS2iLKNSqQ17FgBExPy8NwUDwHpUKk4agS1LWF4VYRl6G0hY/vzzzyMiYvfu3T33af6H2E9YXuuYi4uL8cknnzSuHx0dja985Stx6NCh+PDDD+O///1vXLx4MX7xi1/E2NhYfPOb31xxLgAAAAAAAAA72UDC8tzcXERE3HDDDT33GRlZ/jjnWm3lM3fWOubMzEwsXD2j6/Dhw/HMM880zmyu1Wrx5ptvxq9//euIiPjVr34VX/3qV2Pfvn0rzqebsbEx71xZhcUrl1qWogMgN19dPkO5iIixsYE8bXMNlWXExOSwZwGwc1Xmlj+PYGJiPMISngDQt+p8teV13InJiSHOBliPiclxLQMYiIG8Qr13796IWI7B3Vy6dKmx3U/IXeuYN954Y7z44otx5cqV+PKXvxwTE8vf8IyMjMSjjz4aZ86ciT/96U8xOzsb//znP+OBBx5YcT7djI2NxdjY2JqO3YkuXxwLHxAKsArl8vLXY2OjMeo5Z8spy4jxcREDYFjm5+Ybb24dH59YeqcWANCXoihi7srSa7Nj42MxPj4+5BkBazU5LiwDgzGy8i4ru/HGGyMiYnZ2tuc+9aWtI5aj8UaMOTY2FrfffnvcddddLVG52UMPPdTY/uijj1acCwAAAAAAAMBONpCwfODAgYiIqFQq8fHHH3fdZ2ZmprF96NChoYxZV18aOyKiLJ1BCwAAAAAAAJAZyFLYhw8fbmxPTU3FzTff3LHPu+++GxERExMTcdddd23YmL/5zW/iww8/jP3798dPf/rTrmP/+9//bmzfdtttK84FAAAAAAAAYCcbyBnLR48ejcnJyYiIeOWVVzo+F3lmZibee++9iIi47777+vo8jrWOOTo6GtPT0/Huu+/Ghx9+2DFuWZbx+9//vnH5jjvu6PdhAgAAAAAAAOxIAwnLk5OT8fDDD0dExLlz5+LEiRNx9uzZiIg4depUPPPMM7GwsBAREY8++mjLsW+88UYcP348jh8/Hu+88866x7zvvvsa2z/72c9iamqqsdz1559/Hi+88EJMT09HRMSxY8fiC1/4wiD+CAAAAAAAAAC2rYEshR0R8cQTT8Tp06djamoqTp48GSdPnoxdu3bFlStXGvscO3Ys7rnnnpbj5ufno1qtRkRErVZb95hf//rX43vf+1688cYbcf78+fjJT34Su3btij179sS5c+ca+91yyy3xwx/+cFAPHwAAAAAAAGDbGsgZyxFLZxg/99xzce+99zauqwfg0dHReOyxx+Kpp57qnMBI7ymsdcwnnngiHn/88dizZ0/jmOao/N3vfjd++ctfxoEDB1b5KAEAAAAAAAB2nqKsrxM9QJcuXYrp6ek4e/ZsHDx4MI4cORL79++/5mPOzc3FqVOn4uzZszEyMhJf/OIX45Zbboldu3atay6szczH/42Igf91A9i2FuarMX/1Yx/Gx0ZjdGxsyDNitcoyYu5yMexpAOxYsxdno7z6M8iePXsi/JcMAH2rVqsxd2UuIiLGxsdicnJyyDMC1mrXrvE4dMuhYU8D2AY2JCxDN8IywOoIy1ufsAwwXMIyAFezKIwAACAASURBVKydsAzbh7AMDMrAlsIGAAAAAAAAYHsSlgEAAAAAAABICcsAAAAAAAAApIRlAAAAAAAAAFLCMgAAAAAAAAApYRkAAAAAAACAlLAMAAAAAAAAQEpYBgAAAAAAACAlLAMAAAAAAACQEpYBAAAAAAAASAnLAAAAAAAAAKSEZQAAAAAAAABSwjIAAAAAAAAAKWEZAAAAAAAAgJSwDAAAAAAAAEBKWAYAAAAAAAAgJSwDAAAAAAAAkBKWAQAAAAAAAEgJywAAAAAAAACkhGUAAAAAAAAAUsIyAAAAAAAAAClhGQAAAAAAAICUsAwAAAAAAABASlgGAAAAAAAAICUsAwAAAAAAAJASlgEAAAAAAABICcsAAAAAAAAApIRlAAAAAAAAAFLCMgAAAAAAAAApYRkAAAAAAACAlLAMAAAAAAAAQEpYBgAAAAAAACAlLAMAAAAAAACQEpYBAAAAAAAASAnLAAAAAAAAAKSEZQAAAAAAAABSwjIAAAAAAAAAKWEZAAAAAAAAgJSwDAAAAAAAAEBKWAYAAAAAAAAgJSwDAAAAAAAAkBKWAQAAAAAAAEgJywAAAAAAAACkhGUAAAAAAAAAUsIyAAAAAAAAAClhGQAAAAAAAICUsAwAAAAAAABASlgGAAAAAAAAICUsAwAAAAAAAJASlgEAAAAAAABICcsAAAAAAAAApIRlAAAAAAAAAFLCMgAAAAAAAAApYRkAAAAAAACAlLAMAAAAAAAAQEpYBgAAAAAAACAlLAMAAAAAAACQEpYBAAAAAAAASAnLAAAAAAAAAKSEZQAAAAAAAABSwjIAAAAAAAAAKWEZAAAAAAAAgJSwDAAAAAAAAEBKWAYAAAAAAAAgJSwDAAAAAAAAkBKWAQAAAAAAAEgJywAAAAAAAACkhGUAAAAAAAAAUsIyAAAAAAAAAClhGQAAAAAAAICUsAwAAAAAAABASlgGAAAAAAAAICUsAwAAAAAAAJASlgEAAAAAAABICcsAAAAAAAAApIRlAAAAAAAAAFLCMgAAAAAAAAApYRkAAAAAAACAlLAMAAAAAAAAQEpYBgAAAAAAACAlLAMAAAAAAACQEpYBAAAAAAAASAnLAAAAAAAAAKSEZQAAAAAAAABSwjIAAAAAAAAAKWEZAAAAAAAAgJSwDAAAAAAAAEBKWAYAAAAAAAAgJSwDAAAAAAAAkBKWAQAAAAAAAEgJywAAAAAAAACkhGUAAAAAAAAAUsIyAAAAAAAAAClhGQAAAAAAAICUsAwAAAAAAABASlgGAAAAAAAAICUsAwAAAAAAAJASlgEAAAAAAABICcsAAAAAAAAApIRlAAAAAAAAAFLCMgAAAAAAAAApYRkAAAAAAP6fvTuPkrOq8z/+ebbqJSQkELORmEAwISFRBERJEIM6oMh4IJ6jc3CZDDqOyqiIKA4invm5MCqyKIrLQdEzOgrDOAgGdcIoCBIYkMUQEgJJCASCBIROp7u6nuX+/niWeqqrulJP6Ooleb/OSfqp+9y6davTqa6qT33vBQAATREsAwAAAAAAAAAAAACaIlgGAAAAAAAAAAAAADRFsAwAAAAAAAAAAAAAaIpgGQAAAAAAAAAAAADQFMEyAAAAAAAAAAAAAKApgmUAAAAAAAAAAAAAQFMEywAAAAAAAAAAAACApgiWAQAAAAAAAAAAAABNESwDAAAAAAAAAAAAAJoiWAYAAAAAAAAAAAAANEWwDAAAAAAAAAAAAABoimAZAAAAAAAAAAAAANAUwTIAAAAAAAAAAAAAoCmCZQAAAAAAAAAAAABAUwTLAAAAAAAAAAAAAICmCJYBAAAAAAAAAAAAAE0RLAMAAAAAAAAAAAAAmiJYBgAAAAAAAAAAAAA0RbAMAAAAAAAAAAAAAGiKYBkAAAAAAAAAAAAA0BTBMgAAAAAAAAAAAACgKYJlAAAAAAAAAAAAAEBTBMsAAAAAAAAAAAAAgKYIlgEAAAAAAAAAAAAATREsAwAAAAAAAAAAAACaIlgGAAAAAAAAAAAAADRFsAwAAAAAAAAAAAAAaIpgGQAAAAAAAAAAAADQFMEyAAAAAAAAAAAAAKApgmUAAAAAAAAAAAAAQFMEywAAAAAAAAAAAACApgiWAQAAAAAAAAAAAABNESwDAAAAAAAAAAAAAJoiWAYAAAAAAAAAAAAANEWwDAAAAAAAAAAAAABoimAZAAAAAAAAAAAAANAUwTIAAAAAAAAAAAAAoCmCZQAAAAAAAAAAAABAUwTLAAAAAAAAAAAAAICmCJYBAAAAAAAAAAAAAE0RLAMAAAAAAAAAAAAAmiJYBgAAAAAAAAAAAAA0RbAMAAAAAAAAAAAAAGiKYBkAAAAAAAAAAAAA0BTBMgAAAAAAAAAAAACgKYJlAAAAAAAAAAAAAEBTBMsAAAAAAAAAAAAAgKYIlgEAAAAAAAAAAAAATREsAwAAAAAAAAAAAACaIlgGAAAAAAAAAAAAADRFsAwAAAAAAAAAAAAAaIpgGQAAAAAAAAAAAADQFMEyAAAAAAAAAAAAAKApgmUAAAAAAAAAAAAAQFMEywAAAAAAAAAAAACApgiWAQAAAAAAAAAAAABNESwDAAAAAAAAAAAAAJoiWAYAAAAAAAAAAAAANEWwDAAAAAAAAAAAAABoimAZAAAAAAAAAAAAANAUwTIAAAAAAAAAAAAAoCmCZQAAAAAAAAAAAABAUwTLAAAAAAAAAAAAAICmCJYBAAAAAAAAAAAAAE0RLAMAAAAAAAAAAAAAmiJYBgAAAAAAAAAAAAA0RbAMAAAAAAAAAAAAAGiKYBkAAAAAAAAAAAAA0BTBMgAAAAAAAAAAAACgKYJlAAAAAAAAAAAAAEBTBMsAAAAAAAAAAAAAgKYIlgEAAAAAAAAAAAAATREsAwAAAAAAAAAAAACaIlgGAAAAAAAAAAAAADRFsAwAAAAAAAAAAAAAaIpgGQAAAAAAAAAAAADQFMEyAAAAAAAAAAAAAKApgmUAAAAAAAAAAAAAQFMEywAAAAAAAAAAAACApgiWAQAAAAAAAAAAAABNESwDAAAAAAAAAAAAAJoiWAYAAAAAAAAAAAAANEWwDAAAAAAAAAAAAABoimAZAAAAAAAAAAAAANAUwTIAAAAAAAAAAAAAoCmCZQAAAAAAAAAAAABAUwTLAAAAAAAAAAAAAICmCJYBAAAAAAAAAAAAAE0RLAMAAAAAAAAAAAAAmiJYBgAAAAAAAAAAAAA0RbAMAAAAAAAAAAAAAGiKYBkAAAAAAAAAAAAA0BTBMgAAAAAAAAAAAACgKYJlAAAAAAAAAAAAAEBTBMsAAAAAAAAAAAAAgKYIlgEAAAAAAAAAAAAATREsAwAAAAAAAAAAAACaIlgGAAAAAAAAAAAAADRFsAwAAAAAAAAAAAAAaIpgGQAAAAAAAAAAAADQFMEyAAAAAAAAAAAAAKApgmUAAAAAAAAAAAAAQFMEywAAAAAAAAAAAACApgiWAQAAAAAAAAAAAABNESwDAAAAAAAAAAAAAJoiWAYAAAAAAAAAAAAANEWwDAAAAAAAAAAAAABoimAZAAAAAAAAAAAAANAUwTIAAAAAAAAAAAAAoCmCZQAAAAAAAAAAAABAUwTLAAAAAAAAAAAAAICmCJYBAAAAAAAAAAAAAE0RLAMAAAAAAAAAAAAAmiJYBgAAAAAAAAAAAAA0RbAMAAAAAAAAAAAAAGiKYBkAAAAAAAAAAAAA0BTBMgAAAAAAAAAAAACgKYJlAAAAAAAAAAAAAEBTBMsAAAAAAAAAAAAAgKYIlgEAAAAAAAAAAAAATREsAwAAAAAAAAAAAACackd7AgAAAAAAAAAAAGiNFUayg4oc35ftV7I/NZcrvuwgPh447HBp1tTRnjZGWRRF2rFjh8rlsmbPnq1SqTTaU8I4RLAMAAAAAAAAAAAw0oxkB75s35fjV5LjBiGx78sKKnIq8WUrDAvdjN9fbtMdwFh355136vLLL9e6deu0adMm+b4vSbJtW/PmzdOxxx6rj3/841q2bNkozxTjBcEyAAAAAAAAAADAS2CFYRwO+2mlsN84IM63BRXJjMDc/IH23wjGlG3btunTn/60fv7znzc8H0WRNm/erM2bN+vaa6/VW9/6Vl122WVauHDhCM8U4w3BMgAAAAAAAAAAgCTLKA5/A192Ja4izgLjrJq4ImvQMtRWFI321IdkVwiW9ye9vb065ZRTtGHDhpavc/PNN+uBBx7QvffeqxkzZrRxdhjvCJYBAAAAAAAAAMA+p34v4qSKOA2NsyrigSQ8ji/va6zKvnefMLSPfvSjhULl1FNPPaV3vOMduuWWW9TZ2dmGmWFfQLAMAAAAAAAAAADGrJoq4nxAnN+XuFLJ9ivOqogL7kW8r6Jief/x/PPP60c/+lFd+3ve8x69+c1v1vHHH69KpaL77rtP1157rW666aaafn/84x+1Zs0anXbaaSM1ZYwzBMsAAAAAAAAAAGBE2EEQB8CVSq6a2K+2JXsQW0GlJjDG3rMrldGeAkbIHXfcIWNqN+7+whe+oAsvvLCmbcmSJTrzzDP1kY98RN/73vdqzq1du3aPwbIxRtu2bZPneZo1a9bwTB7jAsEyAAAAAAAAAAAoxIqM7KAiu5JbXjqtIK5Usn2JawJivyJrUOiFl8CSIrekyCspLJVk3JIiz1NUKin0Sorc+Ng9YIIOHO25YkQ8+OCDdW1DhcSO4+hTn/pUXbD8hz/8oWH/IAj0zW9+U7/85S911113qb+/X5I0ffp0nXjiiXrd616ns846S5MnT86uE4ah3v3ud6tcLteMtWTJEn3xi1+sabv66qt144031rRNmTJFP/jBD2RZ1hD3GCONYBkAAAAAAAAAgP2VUbaEdM3S0n5+b+JqSOxUWGa6HYxtKyrFIXGUhsJeKW5zvTgo9pLg2CspTM6rhbytq6vU/juAMWHKlCl1bb/97W911FFHNex/+OGH68c//rGCIMjapk+fXtfvkUce0d///d9r7dq1deeeeeYZXXfddbruuuv0ta99Tddff72WLVsmKQ6vTzjhBH30ox+tuc4NN9ygt7zlLTrhhBMkSU8//bTOPvtsDQzULtt+2WWXESqPMZYZXBMPtMnOHU9J4scNAFoVVHxVkid1Jc+V63mjPCMUZYxU7uPJLwCMlt6eXpnkNcjEiRNbetMNAADEfN9XuT+uMPNKnjo7O0d5RmhFtqS078sJqnsRZ3sPV5K2mnMV3rYdTpZVDX+92irifCBc7eMpcksyjt22KXV1lTR11tS2jY+x44477sjC2rwzzzxT733ve7V8+fL4tVEBO3bs0Pz589XX19dS/+7ubv3pT3/SwoULJcVVyyeddFJdJfTRRx+tu+++W47j6EMf+pC++93v1pxfvny5br31VjmOU2i+aC+CZYwYgmUAKIZgefwjWAaA0UWwDADA3iNYHl1x+BskS0znQ+Agt6x0GhBXskBZvN0/rIzj5JaZ7lDkeQpLgyqKPS8Oh7O2sff+DcHy/uPFF1/UlClT6vZZTtm2reXLl+ukk07S8uXLddxxx9UsXd3IBz/4QX3/+9+vaXMcR69+9asVRZHuv/9+RVFUc/7000/XL37xi+zyI488oqVLl6oyaL/vH/7wh3r1q1+tV7/61TVzLpVKWrdunV7xile0dL8xcgiWMWIIlgGgGILl8Y9gGQBGF8EyAAB7j2B5eNh+UF1aOkiXlvZrlpu2fV9WftlpAuLhZykXBOeXlO6I9yOuCYmr1cTGbl8V8UgiWN6/XHrppfrkJz/ZUl/LsnTcccfpPe95j971rnfpZS97Wc35e++9V8cee2xN28yZM3XLLbdo0aJFkqT7779fp556qp5++umsj23beuqpp2qW1b7iiit0zjnn1Iw1ZcoUzZs3T/fdd19N+5VXXqmzzz67pfuAkUWwjBFDsAwAxRAsj38EywAwugiWAQDYewTLVVZk4srgtFo4/ZoGxFlI7MsKkn2Kk8sExMMvqyL2SjK5EDhbVnrQHsVhWkW8Hz8XJFje/5x99tn69re/Xeg6XV1duvLKK3XWWWdlbV/60pd04YUX1vS77LLL6gLim266SX/7t39b0zY4HA7DUCeeeKL++Mc/Np3HSSedpDVr1sjeRz7Ysa9xR3sCAAAAAAAAAAC0lVEuBE6XkA7iKuJ8UJyEw/k9iK0wHO3Z75OMZVVD4FJ1L+Iwqyh244pi190nq4iBdvrWt76llStX6pvf/KZWr14t3/f3eJ3+/n69//3v17Rp03TaaadJkjZt2lTXb+nSpVq3bl1N27Rp0+r6XX/99TXBsuM4+sEPfqClS5cOOZ+Ojg5dffXVhMpjGBXLGDFULANAMVQsj39ULAPA6KJiGQCAvTcmK5azcDhZXjoXDsdVxNWlpLOAOL//MNomcj1FpTj8NW6ucriUqxz2PEVurs2l7m2kULG8f+vr69Ptt9+u3/72t/r973+v++67r25P5Lzu7m5t2bJF06ZN02tf+1rdfffde3W7hx12mB577LG69ssuu0znnntuw+t897vf1Qc/+MG9uj2MDIJljBiCZQAohmB5/CNYBoDRRbAMAMDea1ewbIXhoHA4qAbBYVC7/3AQyAqqlcSEw+1nbLsaCOeWk07D4DC/zHQuNDY8zxrTCJaR19vbq7Vr1+o3v/mNvv3tb6uvr6+uz69+9SudeuqpmjBhQsPzrZgxY0bNvsupgYEBTZo0SZVKpaa9VCqpp6dHHR0de3V7GBl8JAgAAAAAAAAA0JKaYNj3ZYfVYNgOA1l+frlpX1aYO/Z9WdQ5jYgsIE6Xj65ZZtqrBsZebTWxcVh+FhjPnnjiCf31r3/NLnuep0WLFtX0OeCAA/TmN79Zb37zm/W5z31OK1eu1C233FLT58EHH9Spp56qqVOnatu2bTXnXuoy1d/5znfqQmVJqlQquuyyy/SZz3zmJY2P9iJYBgAAAAAAAID9gBWZJOwNaiqGrTQoTkJiK/ClgYrkD8gJAjlRKCcJjQmGR1YcEHvZXsTVgNirrShOw+KSp9AtyTjOaE8dwChYuXKl7rnnnpq2rVu3au7cuQ37T5o0SZ/61KfqguU0TH7lK19ZEywfeuih2rx5817Pb+PGjfrUpz415PkLL7xQp512mpYsWbLXt4H2IlgGAAAAAAAAgDHOCkLZoS87CKuVwNlxo6A4TPqkew0HsqJwtO/GfqtxQOwm1cINAuK0LwExgAJe85rX1AXL1113nc4777whr/PQQw/Vtc2aNUuStGjRIt10001Z+5YtW7Rjxw7NmDGjpn8Yhnr00Udr2qZMmaJp06Zll4Mg0KpVq+T7Q29rEIahVq1apTvvvFMe2wKOSQTLAAAAAAAAANAGVmTiUDcM42Wik2MrCJKQOMiWlrayiuFASr5aYTUsFpXCY4JxnFwAXJLJQmAvFxB72fnISyqIXQJiAO13zDHH1LV9/vOf14wZM/Se97yn7tx///d/6//9v/9X137KKadIko444oi6c2eddZZuvPFGObkPvlx66aX69Kc/XdPv3HPP1de//vXs8uWXX661a9fW9Jk1a5Z27dqlXbt2ZW333nuvLrnkEv3Lv/zLUHcTo8gyhmckGBk7dzwliR83AGhVUPFVCQJJUslz5fIpvXHHGKncZ432NABgv9Xb0yuTvAaZOHGixEMyAGAPrMjEYW4UyArCOPQN0/A3iCuAs+Mk/E0CYYVBEh5XQ2Erikb7LqGBrHo4CX7z1cORO6hi2HWTfvFXY/OEAuNPV1dJU2dNHe1pYARs375dixcvVk9PT925ww47TK961as0efJkPfvss1q/fn3DZa3nzZunxx57TLZtq6enR0uXLq3bZ3nJkiVauXKlDjroIP3sZz+rC4wl6dZbb9WJJ54oKa6KPuqooxQk73Wm1qxZo23btumss86qaXccR/fdd5+WLl1a+HuA9iJYxoghWAaAYgiWxz+CZQAYXQTLALBvs8IoC32tMIgrgaMgWQI6qAmFs+Mg6RcGuT8hQfA4ZCxLJrfPcBYOJ0tKh54r45YU1gTF8TH7D2N/Q7C8f7nlllv0N3/zN9qb+K9UKumuu+7SUUcdlbXdeuutWrFiRaFxPvCBD+j73/++JMn3fS1btqxuie6VK1fq+uuvVxiGOvbYY3X//ffXnD/66KO1du1alsQeYwiWMWIIlgGgGILl8Y9gGQBGF8EyAIyuuPo3lGWCJASOA14rCgaFwqGsKMwFvmlQHMkKA2nQOTsJhHmbafwzjluzp7BxvLhCOBcCZ6GwUw2Hjeux9zBQAMHy/ufqq6/W2WefrYGBgZavM2nSJP3kJz/RaaedVnfukksu0fnnn6+ohQ9g/dM//ZMuvfRSdXd3S5IuvvhiXXDBBTV9HMfRxo0bNX/+fEnSbbfdpje84Q11Y335y19mSewxhmAZI4ZgGQCKIVge/wiWAWB0ESwDQGNWFCWBbygrTI6jJOiNIllRmLVlX5M2Oz0XxuGwFYXxEtBZe7V6mD2B933GdWvCX+N4WdWwcZOQOA2Gs74lRY4r47kyFr+cgZFAsLx/evbZZ3XFFVfoa1/7miqVypD9SqWSLrjgAp1zzjk68MADh+y3ceNGnXvuuVq9enXD8wceeKCuueYanX766VnbE088oUMPPVRhGNb0/exnP6svfvGLNW3vete7dO2119a0OY6jrVu3avbs2UPOCyOLYBkjhmAZAIohWB7/CJYBYHQRLAMY6ywjKQ1kTVQf5EZhXPWbD3qj9GuUVfpWK37jdpmw7lwaAluD3tjF/stYVhz+JqGvcXMVw66nwLY0YKTQcWV3dMjpnlANkdP+/G4FxgWC5f1bb2+vtmzZom3btunxxx/X008/rWnTpmnevHmaO3euDjvsMB1wwAEtj7d9+3Zt2LBBGzZsUEdHh2bOnKnFixdr7ty5sm27jfcEYwHBMkYMwTIAFEOwPP4RLAPA6CJYBjAUKzJSGuRmgW5taCuTC3XTIDc9NvESzxoc9OaCYJmo/vygcJiKXuwt4zhZuBvvGewml6sVxHGfNAh2FDlevCex68bHTvM3/33fV7m/LEnySp46OztH4q4BaAOCZQDDxR3tCQAAAAAAAGDfYxmTBKtGlomSINdkYa6iarA7+JwV5c+bXNAbVYPffCgcVfso1ycLcPOXTcTn3jE6LCteAtp1s6pg2a4i18ktG+3GVcOOU+1nu7lAOL4+S0gDAIDRQLAMAAAAAAAwFpkknDVRNaRVEtJGSgJSk1W+xu1GltL+pjakzfomx1nwmwt6832SwDa7DVX71IS66e3WXC8a7e8eMCyM7ci4ThLoeoocV3LcpAK4WiFsHLcaBjtutVrYcavXd5zRvjsAAAAvCcEyAAAAAAAYf7LQ1VQD1nwIa/LBa7496S+TC18HnY/y46X9Nah9qP5R/biRURzKDqrcNYOD2kFtLJMMtM6STFr961TDXaWBbxb2utUQ2MlVANtO7rppf5c9hAEAAHIIlgEAAAAAGOOykLEm7DSS0iBT9efy4aQxsgb3Vf2YdWMkt2ElAWcalFZvo0HImo2Vb1NN8Kq6266/frb/bMM+LGUMjEuWFQe4SWWvcZy4Ithxk69OTQicXbbzwbCTjOFW25K+AAAAaC+CZQAAAADA6Bmq6lSNQ87BfeNlf3PhZy7AtPv6smC0a/eLsqTaUNRUA9MhA84od1sNbj8NTKu3X517w8BWDdoaBrtRLvwdjX8YAPubNMjNAt7kq+y0zc7Opf2iXP+aEDhrcxXlr2fbo303AQAA8BIQLAMAAADAKMgCycFBptI9TQftrWpye502XMZ3qAA0N4byla/5ZXybXb82QC1ScVqz52uj0NSQmAJAHUvVcNa2q2FvciwrPa4NbGv65YNg24nDXSsfHNu5fgS+AAAAaA3BMgAAAIARF4eUg/Y+zVeoNlle18qFmtWwM2ocaNZcr0jf3G03CkVVu8xwff9mAW1a1QoAGGuMZSUVurng1q6GsLLtarBrWw2CXDu+vmXVXTe7jhWPkwXCNX0cGZtNfQEAADA2ESwDAAAAY0m+SjWKhgg448vp/qO1gWVc1VpTFTp4HCl33cGVqw3aX0KwOmTgCgDYv1lWHKZadhyypn+sNJxNvlr5PlbWT3ZSgZu7bjZmLsiVVT92Fv7aVq497T/a3xgAAABg7CJYBgAAwD4rq4SNIlnJ1yxojaKa8LZh30bXy5b1TcPSQW1RLqBVlAtro+ptNGrLhbQAABQRV9na8VcrDmCzQNWyJduqBraWPaiPVd8nC1vz4yTHSXhb38eSUS4kTsdMrlsTIFsEuAAAAMB4RLAMAACAYWFFSVgahVnAakVhEuKGuVA2yoLd6vk0pM1dTs5X+6dhbFgbCg8OiXNBLQAAkrJQNA5PqwFpWuEqq0F70l8a3N9q3L/ROFmo2qAtq8a1quGs1SDIbXh76VhJOwAAAACMAIJlAACAfYVRLqwNq8FumIa6oawwF+iG1bA3vpwPevN94zBXUVS9zuDAOAolCm0BYMxIw866ANKKg9K4YjTXljvO96v2z/fToAA2OWfXj1t3O1KDPoPm2uCcUaPxB4euSb9cezzmKP5DAAAAAMA+hGAZAACgTSwTyfbTQDcf8obVQDYJc+0wbBDq5vqH+erdsOE5KnQB7BeahZaDjqPIJJcly3HrztdVolpqMm66f2t9+FoTgqp+HrWh5+DgVC2OY2f3pf62Bweyo/fPAwAAAADYdw17sLx161bdcMMN2rJliwYGBnT44Ydr8eLFOvbYY/Wyl71sRMdsx1wAAMD4VrOfbRQO2jc3kp1W6Gb75YaSSdrDZBlnpX2qyzZnyzXn9tpVZKRtz472XQawL2hYodmsctMe5gA1108aIsxsHPZm1a35UNVufP3GYW1+vGLftt6eXplkOYWJEycSuAIAAAAA8BJYxphhW7Tw5ptv1lVXXdXw3IEHlyty+gAAIABJREFUHqh/+7d/0yGHHDIiY7ZjLnhpdu54SqyRCQCtCyq+KkEgSSp5rlzPG+UZtZExyf66cYCrdHnmdD/etCLXpGFvNGgv3nx7PjAOq2OaZA/f4Xvqs2cEy8BLZ9Uvm9s4vKwPU/OVnvVL+eYDzqGun7uNdL9TqXF7gzHql/AdFNA2+qrqnGvmhr1CsAwAwN7zfV/l/rIkySt56uzsHOUZAdhbXV0lTZ01dbSnAWAfMGzB8p///Gd99rOflSSVSiUtX75c8+bN06ZNm7R27VoFQaCpU6fqK1/5SsvVwns7ZjvmgpeOYBkAihn1YDlXyVtbwZuEtGGyxHNdqNvoOmGuSniI6t59EcEy2mVQlWq1wtSuBqI1e5HGl+uqVocIVavj5NuToFODg9VBt1PTnlaeDhXE2rllfQe3W9ntAXuLYBkAgL1HsAzsOwiWAQyXYVsK+9///d+z4/POO0+ve93rssu/+c1v9K1vfUs7d+7U9ddfrw996ENtHbMdcwEAYNQZU63gjUw10DVhLqg11UBX+T15q+fzFbxZZXAUSmEuEE4riIF9WBZy2nYSvCbHgy7HFaZpu7K2LHzN+tcGvDUhaXI53692OePkfDZ2NeCNq11twlYAAAAAAACMqmEJlrdt26aHH35YknTSSSfVBLmSdMopp2jNmjXauHGjbrvtNv3jP/6jHMdpy5jtmAsAAIOlAW21MlfxPrxpyJtW+2Yhba5S16TB8OD9eqPq/r8mDnqzEFn7cFUv9nlpWCvbqQa3uWPZtmSll62a8xrcPw1fk6DV5MLfauXu4IC4Gv5WA2PCWQAAAAAAAKCIYQmW169fnx2/9rWvbdjnmGOO0caNG9Xb26uHH35YS5YsacuY7ZgLAGAMyfbiNbk9eBV/TS/XLOFssurdbMnlNNg1+SA3HTfMrl9TIWzyQfAI79MLvETGtmUcpxrO5o7jsNdJAt3qeQ0Kf2vDYCcZw5KxasPiaojryDhJ6AsAAAAAAABg3BuWYHnjxo3Z8dKlSxv2WbhwYXa8c+fOto3ZjrkMpVwuy/f9lvuXSiW5buvf8oGBAYVh2HL/jo6OQtXXRcfv7OyUXeDN4XK5rCiqVtf5lbKMGbo6yHVdyWq9eigMKk3Hqxvfc1VkU7WgwL9tPH6xvU+LjG9ZRo5ban1wYxQk+7K2Nr7kuAXmH0UKCvzsWJYlp8DPvomiQj+btm3Jdto3vmNbsgqNHyoMW68sdRxblt36/90oDBRFrYeajuPIauX/bhKsRkGgyIRxyJr8iZdETo9V0+bKkiMjmbiKNw1wa8LaLLSN5JsoHisy1eA21y/+kwa5UocJZSfXlfa8PPNAwRCrFEWFtluMx7dafrzqiIpVGRedf5HxjaTKGBrfluQVGD+yLPkFfk/Yxsgr8AGAouM7xsgtML5vWaqkSxtnIayjyEkqbJ0kjE1CXtd25DqujOMoyofBad80EE4C3oqRAimuxE37pbfTgOu6cgo89viBX/N7fUhGUmjkupJjLCls7XtUCSoyBR7bPNcr9LxkwB+QCnwepOSVZBX4eSg6fkepo/XOkgYqA4X6FxnfGKOKX2l9cEvq8No3vmVJpQLjR1EkPyjwvMq2VCrwvCqMwkLPq2zHlue0/rwqiAKFQYHnJU782NDy+GFQ7HmP68i1Wx/fD31FBZ73FH3seamPDSb3HzOKIlmDfutXggEVWRCk3Y8Nhccv9Nhg1FEqtjdmofHb/NhQdPwx99hg2/IKvOYac489Y+yxwQ8qhV4TFX3eUPixx/NkW2PoeUkbnze0e/y2PzaYqNB7eZYtldxx/NjzEh8bgqCS3Z/QhHU/t0UfG4LQL/R+SeHHhjH+vGRPeM0yNCOjSoXXLENp5bHBKNSuXbskxa8pOjpan38QBIW+/67rqlRqff6+77c1Z6lUKoUeOzs6OgrNf0yqVJL3UscJ25bG+/d8PzIswfILL7wQD+a6mjhxYsM+kydPzo5ffPHFto3ZjrkM5eGHH9amTZta7r9gwQLNnj275f4bNmzQU0891XL/JUuWaNq0aS33f/DBBwsF60cffXTN925P7rnnHvX09GSXZ86cLLvJspNHGqkrXuxVkpRlxla1Lb4ct60LA/kFng0tKnXLaRgGWYqTMit3m9Kjfb01b0TtyRETpyRjKTdfKx4hd18kKTJGW15s/XvvWI7mTZkuY6XzsWq+pNLb9U2oJ5/b0fL4JcfTzKkzW+tsSWW/omcKjN9Z6tK0g1r/2ewf6NOzf3225f4TOg/Q1AMPyrXE36f422WypvTbtau/Vzt7X2h5/MmdEzS1O/94koSo6e1I1epVY/R8uU/PDfS1PP50r0NT3VISrOZvI/4XtXKhrWT0ZOjruQLvgM4PIx0chtV5mvT7Eyn9kcovsbyho0PPFXhydmS5rEkF3rB+rKtLLw71wspK/qh6/qj+iiYUeCK0rqND5QIv3F7T369SgfHv6+xUWOCF27Ldu1sOro2ke7q6Wh7bMUav62v9Z8237ULjd0WRju7vb7l/n23r/gLjHxhFWlJg/BdtW+s7W39D/OAg0BEDrb2wNZatZz1Xjxb4kNBBjqeZHZ3Z8spRbplmY8X74kaytfugwxXZtv7y4nN6utljp0n3vY5fTE07eIamHTS95fns2Pm0dv71Ly33P2T6HE2ZdNCeOyaefOYJvdDzfMv9Xz7rUE2aMKnl/lu3b1Zv366W+x8253B1d05ouf+j2x5ReaD1n7cF8xap5LX+ombjlvWF3ihYdPgSOVbrb2I99OiDMi1+kMG2bS2e3/gDlo0EUaANjz3Ucv+SV9KCeYta7j9QGdCmxze03L+rs1vz57yi5f67+3u15cnHWu4/acIkvXzWoS337+l9Udue3tpy/4MOPFizprX+nP+5F3bq6We3t9z/ZQdN0/SDW3zeJumZ53bo2eefabn/zJcdooMnT225/1N/eVLPv/hcy/3nzJyrAw9o/TXFtqe3qqe39ddsh86erwldBzQ8t3v37rq2zU9sUl+59d+lr5i7sFA4+8jWDar4rb/JesT8Iwu9Qb/+sT+39qGfxJJXvKrlvpGJtP7RP7fc33M9LTx0ccv9K35Fj2x9uOX+nR2dOvzlC/fcMdFX7tPmJ1p/vX5A90TNO+Swlvv37O7Rtqe2tNx/8qQpmj395S33/2vP89r+zBMt9586ZZpmtPqaTtKzzz9T6DXdjKkzNXVK66/pnt75lJ4r8Jpu9oyXa/LEKS33f2LH43pxV+uv6eYecqgmdrf+vGTLk49pd39vy/3nv3yBujpafx686fENhQKYhYcuLvTBhA2bH1IQtv4G+pGveGXdB2+GYmT00KYHWx7bcRwtOqz1lQKDMNCGzUWel3RowbwjWu5fHujXo9seabl/d9cEHTb78Jb77+rfpcef3Nxy/wMPmKw5M+e23P+FXX/Vkzu2tdz/4MlTNfNlh7Tcf+dfn9WOna2/F1n8NctT2lngsWHWtNk66MCDW+6//Zkn9NdCr1nmadKEA1vu//hTm7Vrd4HXLLMPV3fXOH7NMn9JoeC9yGsWy7J15OG8ZhnKxAmTNLeNr1lmzZqlI45o/bHzySef1COPtP7YOXfuXM2fP7/l/lu2bNGWLa0/ryqas2zcuFHbt7f+muvII4/UkUce2XL/MalclgoWzo0qzyNYHkeGJVhOP+lywAGNX8BLUnd3d3bcSpi7t2O2Yy4YGaVyf6HKOKurK/4kS4smvbCzUGWZNWFCkQ/x6eAdT7bcN7IsPZr7OdwTJwo0o8CbImXb1pMFwh3PH9Dsza2/qdPjOHqmQLjT1d+rOY+1HqQ/57p6tsCn5ib0vqDZz7X+hukO19POjtZ/UU3Y9YKmP9d6WFMulfRcgXCqa/cuTS70qbwOyWv94dsJArkFXjgAY4Wx4k8aRMn+uYFbrNra7+jSc1OmKUr21I0sKwmBLRnLSiqFLUVJuNfXv0t6ofXHqkpnl3om7eFNDmPke05yf1gSGgAAAAAAAMD4NSzBcrlcliRNmDD0J7Dyy3608onqvR2zHXMZSqlUqgmpW+lfZKnqjo6OQuN7nldo/M7OzraPn19ioksm3st0CEXfbu+SZBcJoguO3xFFhYLlojoLzL3YItvxfS0yfqngXrGOMcXmP8bGd1Vs/CIfSEj7Fxu/0PCF528X/EkumWI/P0X/73pRpCKLMBb9v9uZLZvd4vgF/307jVHYxv2Vi3zvW39EjhV9bOhocD/TUNYkYW2+Qte3LNV8ZMOqPTC1jYo6O/TswTOTJZutmq9xmFz7r18eKMsp8On2qLNb/ZP2XBWX/gzbtiOnwDJxju00XYlDkoyxss9Aua5b6NPkRZdNKzq+47iFxvecguPbTqHxS16prfMveSVFUYFtFhy72Pen4DJ0jlXs++O5JbW6bp1tFZu7I7vYz6ZXKja+U2z8UtHxbaet87cLzt8t+n+rzY8NRcd33WLzL/7YU/Rn33tJjz3513u2Vb96keeVVCpQ1Vd0/iXPU5E1J2272P/fkltS1PJKNlahsRWp4M9+sZ/Nov+3Sl5HwceeYo8NRR973ILjF/3+OAV/7xZ97HEL/t9yiz4vKfq8ofBjQ8HnDXbx5w1+0M7nPR0tV/VJe/e8pND/R8tu+XmMMaatzwltY7X3eUO7HxsKPy8p+thQ9LGn3c9Lio5f9LGnzc9LCv58Fn7sKfy8oeBrlqLPGwq+ZrEdu9Ay/yWvVKhiudhrloL/t9yx9dhQ9Pd6Ox7b4q0K43eSiuYURXOQolt2ep7X1pxib3IWAEOzTJFnskO44IILtG7dOh188MH64Q9/2LDP1q1b9bGPfUyS9A//8A8644wz2jJmO+aC4WH+55c1y+0CAIZBul1Atm+vXQ19bSveuzfZb1e21aCPnQt0HZl0v9+sj1Xbv8CLUMQrz5f7+J4BwGjp7alubzNx4sTin1gDAGA/5vu+yv1xEY9X8tRZYPU6AO0XRlI5iNRfidQfRCpXjPqDUH2+Ub8fqexH6kvOHzt3ov7mtfNGe8oYKT09428p7Emtb1uC0TUsFcsHHRTvz9fbO/T+M+kS1ZI0qYUfkL0dsx1zwXBpZ/0vAIwBg0Ney6oJb2XXhrYmF/TWhbmWpSCSAhPJWJYcryTbKyXn8tfhHXIAAAAAAIDxrBLEYXB/FhQb9VdC9QVG5eRrXyVSfxIW91UiVcLW32+fN7X1VXoAoJlhCZanTJkiSRoYGNCOHTs0Y8aMuj47d1b3LJw6dWrbxmzHXDBMyJUBtFMW6lb30VVNUBsHsVkFrqoBbtqv7tiysqWZlQ+KLSc5zlXztiHkDSq+KsmWAiXPlctSPAAAAAAAAGNWZKSyH6nfN0kVcTUs7guSKuLkT3/FqC8I1Vdp77ZrktRXaX2ZdQBoZliC5YULF2bH69evbxjm3nnnnZLi9ewXLVrUtjHbMRcME2NYeg4Y50y6t46dq8xN9yvMglUrW4JZ6V68NaFv9XomvV7apiTMzfdJ99q1rNrAN63atXNjAAAAAAAAAC+RkVRJw+FBVcT9aXVxGhDnwuKBYGxWV/X5bFEJYHgMS7B87LHHqrOzU+VyWT/96U+1bNmymj03du7cqXvuuUeSdPTRR6tU2vNG9Xs7ZjvmguHRO+cwWZaJfysbpX/JSkuZjSRjksumWuFsTLWvaXBZJrle7bjK+sYXrLQxabJy56q3M2iMpv2r560G/avjmWqe3qhNRjKWpKhBVXf9vDGCrPgvM/gTEZYk2ckPYPIvlPSNA1RlQajSY1m5Psm4VvVY2bGdtce3mz+XjJEGr/kQ1qo9NrnrmUH98v2zgDZ/O4MC3JqxAQAAAAAAgHEkCJO9iP30j1E52Yu47MfLSvcHg4Nio6jNVcQjiYplAMNlWILlzs5OrVixQr/+9a/1l7/8Rd/61rd05plnaubMmdq6dasuvvhiBclSnm9729tqrnvjjTfqmmuukSR94hOf0AknnPCSxnwpc0F7DRw0VaSjw6AmqM7+qjYMutigIRfC146b7zd0hGhqvowIa8gLkvJTyQe51YvVe2PVXt3KdcoHxDXtAAAAAAAAAEadsZIAOIzD4Zo9iatVxX1+mCwzHanPD+WTqaqvwvvyAIbHsATLknTWWWdp27ZtWr9+vW699Vbdeuut6urqUn9/f9bnlFNO0Stf+cqa61UqFfm+L0mKomhYxtzb6wHjglWtj97bAJSnEQAAAAAAAABGSxgpW2K6L4hUrhj1J1XE/blguL8Sqi8w2l2JVA6MzD5URTySqFgGMFyGLVju7OzURRddpIsvvlgPPPCAJGVBruu6evvb3673ve99ddezbXvYx9zb6wEAAAAAAAAAgBYZS+UwyvYeLvu1S073+3F7XyVZYjqIl56uhATEw6nDtTShZKvLtdXt2eoq2ep2bXV6tro9S5MP6BjtKQLYR1imDR/x2b17tx5++GE9/fTTOvjgg7V48WJNnjx5VMZsx1ywd3bueErUygJA64KKr0qyfUPJc+V63ijPCEUZI5X7WFofAEZLb0+vTPIaZOLEiex2AgBAAb7vq9xfliR5JU+dnZ2jPCO0k5E0kATD5SBSuRKpL6guN12uxPsO9wdhHBpTRdwWjmWpu2Sp23XUVbLU7cVBcWfytcuLw+POJETu8ix1eXa2M+BQurpKmjpr6sjcCYy+nh4pWSl4XPA8adKk0Z4FWtSWYBlohGAZAIohWB7/CJYBYHQRLAMAsPcIlscvP0wrh02yJ3Gksh8Hw2U/XW463n84qyYmIB52JadRFbGlzpKjbtdSV8lRl2upK+nT6dnqcNvzhJVgeT+znwfLv/jFL7IteFsxadIkveUtbxm22x9Nv/zlL1Uul7Vw4UK96lWvasttDNtS2AAAAAAAAAAAYHgEYbwPcVo13F8x8b7E2eUoC47TvYn7/EhBNNoz37c4tuLK4VwVcZdrZ4FwV1JJ3OnFlcadJUtdrq0mu4ACaKN3vOMdhT4o88pXvnKfCZbf9a53qVwu66KLLiJYBgAAAAAAAABgvPEDkwTEcQVx2TcqB3HlcBocp8FwWmXcVwnlExAPK0uWOj2p23PUnSwh3eU66i5Z8VLTyRLT3a6lTs9Rl2ep07VValMVMQCMRwTLAAAAAAAAAAA0Yyz1h3EIXPYjDST7DGd7EA9aejqtKu7zI4UExMPOc6r7D3dlXy11ebXLS6eVxF2eo07XlmWx3Dewv1ixYoV+/OMf77Gfx/aDhRAsAwAAAAAAAAD2C5XAaCCtGg7T6uF0uel4D+L+wGThcDkw2u2HGvCNiCSHnyWpw7U0IdlvuLtUXXK6K6ks7kzD42T56U7Xluvsza3xLwjsT7q6ujRnzpzRnsY+h2AZAAAAAAAAADAuGNWGw/1BpIE0HA7iULimmtiPVA6N+vy4f1Rg300U49rpMtNx9XB3EhanexB3JXsTdybVxN0lK6kiHu2ZA0DViy++qJtvvll/+tOf9NBDD+mII47QCSecoNe//vWaOnVqTV9jjK666ir5vq8TTzxRixcv1u23365f/epX2rZtm0499VSdfPLJmj17tiTpjjvu0O9+9zvdfffdmjVrll772tfqjDPO0OTJkxvO5d5779W1116rRx99VM8//7xmzZql+fPn653vfKeWLFlS+L793//9n26//Xbde++9GhgY0Otf/3otW7ZMxxxzjKwWH4wtU2QHa+Al2LnjKfGpMABoXVDxVQkCSVLJc+WyLMu4Y4xU7uMVMgCMlt6eXqW1RRMnToxLYgAAQEt831e5vyxJ8kqeOjs7h23syCgJhiMNhNUguDYsTsLhoFo53Jd85S3t9nJsxeGwW7/MdLwXcVxF3Jn1ifck9vaqihgjoaurpKmzpu65I/YNPT2S78fHd90l7e4b3fk00tUhHb8sPvY8adKkYRvatm0ZY/TWt75Vq1evLnTd+++/X+94xzu0efPmunOTJk3S6tWrtXz58qwtCIJsKe0LL7xQv/zlL/Xggw/WXM+yLK1Zs0b33HOPzj///Lpxjz/+eP3mN7+JX7PmfPzjH9c3vvGNIef6iU98QpdeemlNW1dXl8rlsi666CL967/+a9bu+74+//nP6+KLL2441qpVq3TVVVe19LueimUAAAAAAAAAQMuiSHEgHEQaSMLfAd9oIIzicDhfNZxfZjoJiSshwfBIsCwrrhxOwuCuXDVxZ8nJAuKsktiz1OXa8lw+jQfsM3p64j9jTWXCaM+gzgMPPKDXvOY1CoJAtm3r7/7u77RgwQKtW7dON954o3p6evSGN7xBN9xwg972trfVXf+LX/yiJGnp0qV605vepA0bNujXv/61jDF605veJCkOvU8//XRNmjRJ//Vf/6Wenh7deeeduvTSS/X5z38+G+sXv/hFFiofeeSRet/73qfu7m7dddddWr16tZ5//nlddtllWrFihd7+9rfv8b6tWrVKP/3pTyVJCxYs0BlnnKFKpaL/+Z//0bp163TNNddo8+bNWrNmzR73nCZYBgAAAAAAAID9hDGWBsJIlSQUzsLh0KiSLBs9EETqHwi1u+JrIDDyo7Iq0S6Vg7ia2CcYHlHpPsTp0tLduaWl8xXEWZtrqavkqMO1WLAFwH7rnnvu0apVq5r2WbFiRdbnk5/8pIIgUEdHh373u9/p+OOPz/rdfffdOumkk9TX16fPfe5zDYNlSTr33HP11a9+VY4TL+Hw7ne/Owt0XdfVHXfcoeOOO06SdOWVV2rJkiXaunWr7rnnnppxvvKVr0iKQ+C7775b3d3dkqR//ud/1hNPPKH58+fL93398Y9/3GOw/Ic//CGbw3vf+15997vfVVdXlyQpDEO9//3v149+9CPddttt+u1vfzvkfUsRLAMAAAAAAADAOBBGUiWMK4ArobJQOA2Ky6E04KfHydLSQaQBXyqH8XElMGxWN0osy1JnGgwP2nu4M9+W7EPcmVxmH2IAKO7ZZ5/Vj370o6Z9Jk6cqFWrVun3v/+9brnlFknSV7/61ZpQWZKOO+44XXTRRfrMZz6j++67Tw888IBe9apX1fSZNWuWvvCFL2ShshQH12moe95552WhsiRNmDBBJ598sr73ve9p7dq1NWN1dHRo6dKl+vCHP5yFyqk5c+Zo7ty5evTRR7Vz5849fh8+97nPSZKmT5+uK6+8MguVJclxHF111VX6j//4D1UqFV1zzTUEywAAAAAAAAAwatIK4TBSJVDyNdJAoGrlcCRVgtr2amicVBAHkcJotO8MpPwexE6y93DtXsNdrqXOUhwUdybBcKdnq9OxJYtYHwBGwoQJE2qC3Ebmz58vKd5bOXX66ac37PvGN74xO77rrrvqguWTTz65LgSeN29edvya17ymbsx0X+XBAfGtt95a1/e5557TE088oZ///Od67LHHGs5xsCiKdOedd0qSzjjjDE1qsJd1V1eXTj75ZN100026+eab9zgmwTIAAAAAAAAA5Pih5IfxXsB+YFSJTBz6hkZ+EvRWQqOBwGSBcRoGV0JTs/+wH1IhPBZZlqUOV+p2bXUmAXFaNdyZBcVpKGwlVcSWOl1bnrO35cP8JADASDnxxBO1evXqlvo+8sgj2fHixYtl23ZdnyAIsuO//OUvdefnzp1b15YfZ8aMGS3NJbVlyxZdccUV+sMf/qCHHnpIAwMDha4vSdu3b1elUpEkfec739FPfvKThv127dolSdq9e7cqlYpKpdKQYxIsAwAAAAAAABiXjFEc/oZxwBuEcUVwfNkk5+Jlo7PjJCiuhsK1wXEllIwhABwPbMuK9x72cstGe7a6nGqlcJdnqcN11OnFoXCna6mD6mEAQM62bduy4927d++xf6OQ98ADD2x6nUZh9VC+/vWv6/zzz1cYhjXts2fP1pve9CZdd9116uvr2+M4Tz/9dM3lNEBuhmAZAAAAAAAAwKgJI8mPjIJc+OtHccjrh1IlMgqSgDduT/9EqkTKQmI/XUo6SgLgIFLA0tDjnmMrVx1sJWFwcpyFw7Y6HLsaDnuWOlxbJdfS3m89TKgMYD9w5BIp8Ed7FvXcsRVPzpkzR1K8msWWLVuaBqtSvMx2u9x9990677zzJMVh9Wc/+1m98Y1v1KJFi7Kltu+66y5t2LBhj2Plq6TPP/98ffzjH9/jdQYv5z3Y2PqXAwAAAAAAADAi0sA3DE0W/PqRUZAeh5JvjMKkAtiPpCCqhr5+FhCb6rLRkeRHUS4MliKqf/dptmVVl4pOguEO11anq+r+wtkew0m1cFo57NpyndG+BwCwD5s1c7RnMC4sWLBAUrxiSblcbris9XPPPacbbrhBUrzMdqP9iofDr3/96+x49erVWrZsWc353t5ebdq0qaWxDjnkEHmeJ9/3tX37ds2c2fjnYc2aNdq2bZsOOOAAvfOd72w6JsEyAAAAAAAAMJqMFYe5Jg50g8goTEPcKA52g/zlLATO96m2xeFwlAXFfqhs7EoSBAcRyz0j2WfYSQJgx1aHW10u2rONHBOpw5W6Ojwd0FXKguEOJ+5Tcm15BMMAgHHuqKOOyo6///3v65JLLqnr8+Uvf1mXXnqpJOnRRx9t21x27tyZHR9yyCF152+44Ya6JbKH4jiOjj/+eN1222362c9+pq9+9at14fL27dv1tre9TZVKRWeddRbBMgAAAAAAADAUIylKAtqoJti1FJgoC3jDJIwNTBzshmllb3I+yAW+ab8gqo43uG+QBbyG5ZyxVxzLUkeyNHSHY2UVwFno61nZcYcbh8bp+Q5XKu1hKWnf91XuL0uSvJKnzs7OkbtzAACMoJNOOklvfetbdfPNN+uyyy7TwoUL9YEPfECWZSkMQ33zm9/U5ZdfLkl6y1veovnz57dtLosWLcqOv/KVr+iSSy5Rd3e3nn/+ef3kJz/ROeeck53v7e3d43gXX3yxli9friAItHLlSv3nf/5nFlhv2rRJZ555piqViiTRJau1AAAgAElEQVTp/e9//x7HI1gGAAAAAABAWxkTL7scRkaRqtW4YRQvkxwaUz2fBK2hMQqNshA3zNrjtsDEfcOoGgSHphrwhlF8/fR2queUVQeHyWVgJHm5ELhkxyHv4MC3w7VVcpJj21aHZ6nDtVRy4iC55LCENAAAw+nyyy/X7bffrl27dumDH/ygzjnnHC1atEjr169Xf3+/JGnKlCm6+uqr2zqPM844Q5/5zGfU09Ojq666Sj/4wQ80b948bdy4UZI0ceJEHXrooXrwwQd17bXX6s9//rP+93//V9OnT2843rJly/Sxj31M3/jGN7R27VrNmTNHCxYsUBAEeuyxx7J+F110Ud2y240QLAMAAAAAAIwXJg5Po8goVLyUcRqaRpFRZKya8DYyRlEa3iahbBrkVtuNIpMEtkl7PrRNrxea/OVceJsGurnzwaDzRiy5jPHLsiyVHCWBrqUOJwmFXUsdtq1SPgy2k2MnaXfiEDjr41iyhioRBgAAL5lt2y0vFZ23YMECPfzww1q1apXWrFmjvr4+3XvvvZLi5wIrV67Ul770Jc2aNSu7jmVZsm1bUdT4k4qe5zU8bmbGjBlavXq1zjzzTG3btk0DAwPauHGjbNvWihUrdPXVV2v79u1asWKFgiDQ+vXrs/tr23bDMa+44godddRR+vCHP5yNl5o5c6YuuOACfeQjH2lpfpZhMxWMkJ07npJ4IQkALQsqvipBIEkqea7cFp98YOwwRir38a4RAIyW3p7eLMyaOHGihlzrE/sWY8VhahKgRorD1yxETdqNseIgVqrtH+Uv116nei4NbaVIyoLZKAt3VdMn1KDbz4LcJLxNbytK+ia3FVfY5sPf+L4BGJptWSq5ioNdx8r9iYPgkm2p5Fry8uddS6UkIE7bPSeuEPbs/bcymKWwgX1HV1dJU2dNHe1pYKT09Ei+P9qzaJ3nSZMmjfYsMsYYPf7443rggQe0Y8cOTZ8+XUcddZTmzZs3ovNIg+3HHntM8+bN0zHHHBO/rk3s2LFDmzZt0pQpU7R48eIhQ+W83t5erVu3TuvXr5fneZozZ46WL1/ecugtESxjBBEsA0AxBMvjH8EyAIyufT1YNop/1xhTDULjtuQ4327iUNLk+tWEqaZ6vchIJpIiDX0+yt9GfqxocF+Tm4eVBLG140bGxLdnBrfnbku192dwQBvl7h+vOoGxz7YseY7U4SQBr23JS0JfLwl5PSdeMtpzbHmOpZIdh75ZvyQQ9ux4yWjXjcdx9vyeKlpEsAzsOwiW9zMEy2gjlsIGAAAAAIxNQ1We1oWSVjV0VPXc7t2hQmNkjFFXpaxI1v9n7/5j/arvwo+/zvl87u0PuIVil5UiGREGDDPWQTemMFnViQ73Q+rChomJWzSify0uRkeY/rEYNdM1xsXpsmgy3Q/dYKRl1SXoMMtgC2z8WuuG0MqEln4Lk7a3ve29n3O+f3zOOZ9zf/Td29v7o719PJLuns/5vM/7c27pCuXJ+30mzVUH0OkBto6YMeUz2+/PFFvra2YXTssya8aWU+6pHWV700Jx//uVUKfy8wGnK4uIbieLoSrcDnWyGKoicLeTD87nWRV+89b4/rbP3XxwfbfTj8Dd1tjhPItZLKgBAOAMJCwDAACcIcpWnCxnCqnFlLA4JaTOfuXpTNfEjFsCz0dAPTNWno7N62xLS0CFc0U3j36o7WRNsO3m/WDbvK7ib7da4dupx2eD67rN6xi8n2fRzQfBt5tl0eksu80dAACYR8IyAABwxiibFarTV4jWzyJtb+dbRDnleaj1drzTw2c5LY62jqMfNmdauTp57mza81qnj5kydyvs9lrX9dpji/73LRfW/EwASy+LiM6UsNvJ+wG2Dr6dVuRtzrfHdrLoZtFE4E5nMG7StdUWzu0xIi8AAGcaYRkAAM50VWxtVnXWsbSozlVbAffK/nu9VvAsmzExJWS24mYVYXtRrxrtX1MWgxhaniDWnmwV7NSwWpSD++s144RVIRU4l2VZFp2s7K+krYJsP+D242snG0TcTivodupAm/XP53nWei+aeJtn1fmsvr4/tpkjyyLPy0EQrsbbrhkAACYTlgEAOCeUZcREMVj1WgfVduTslWX0ilZ0rcb3yuifr69p3mtd08xXVueq0Nuepw61xSC6tmNvfS8Tk8Jvf3Xu8ncufI8AiyPPsujkZfW1H2jzKpjmWRViq5ja/9oPsf0IG01w7Z+LJvTWYXbq1ybSRnU+H3xet5o7r6+p4nCeDebLLMsFAICzgrAMAMD8KrOYKMomsE4UZfW6H1EnetV7RRV6o35djSnKmKjia/Ojej3RCrT969ufE83Y+nzz2Wd1nD1b7xvgzJdnWeRZP8DmTeyMJsDmeRZ51LE1miibt8Jo+7p6vnaszaox/TnrsBvN/J0si6wVdfPIms/KW6E3z7LoRH2ubEJvnvevaT4vt30yAACwMIRlAIBlqFdETPT6K18neoPoOl6H1urceFkf1z+mRNlq3GCe1o9edb4aP94KyGcecRYgoh8cs3ZMbeJmNK+zbBA48zqANj+mjGmF1anXZCe5JsuyyGP63NPGVvNmeZz4/SyLLKqvWUz7/pprov35AiwAAMCpEJYBABZYWWYx3iuiV5Yx3itjvBetOFv0X1fv9Yr+14ky+l+Loh90e/0IPNGrAm7zder5IiYKGRU4N+VTg2lERLU6tJPnTWBs4uKU+NkcR32cTX8/6uvKSVFzLuE0a187Q5DNYvD52bSAWs9RzvD5EVF/dky+NjJ/hwAAAGBuhGUA4JxUtLZX7hVl9CKi16uecVv0V/r2n8GbxURRtJ61W0av19/CefAs3NZWz9Xq3l5Zxvh4Ed997vgZuoIXWA6mhdTFXnmaT4+d01aRTj1Xx9L8ZCtPZ15Z2wTVmPo504Pp4YOHo6z+U5uRkRHLU/1nRwAAAJwGYRkAOGOUUQXfImKiKKIoY/Dc3Hp75ib2tl8PtnqeqIJxUbZjb+sZvNXWz4vxr9Z7vRCVYYE0UTGvo2MVVKeE1fbK0zwrq+elxuSAOmXl6PQIW8XMfOYIOnVFajPXTJE2j8EzV9vjYmqwnSHkxuTXM4XUc5efCwAAAFhowjIAcFK9ooyifvZuOVjpW1TP8e2VRUyU2aSVuxNlUUXibHBdHYjLamVvc34QkoG5y7MsOlVo7WRZdKqwWQfXPOrjfrTsVFGzU4XZwXHruqmrUqds5zvjStU8EWunBNOZw2oZnTybHlWbUCuqCqkAAADAYhOWAeAsVJRllGU0q3aLKtT2t25uB+BW/C0ienGKq3ur+eULlrssIjp5NDGzWwXWTrX6tQmw9eu8FW7zLDrRD7r1NXUAbcZl1fxTV7FOib3NStapq25niK3NytvqPrJzaotfvysBAADAjNasWeo7YBkTlgHgNBRlRFnWQbaoIm0dZPvBttdE3qxawduKvNXzeptn/VYhuFeWMdErqtXAEWUci14MQnKpqXAWyrIsunkZ3TxrfnTyLLpVGO3kUR1X55t4WzZj+9G3FXzzGLyXZ9HNogm+9TydvHWuNX/eGntuRVkAAAAAOHXCMgBnrTrq1iG2KPsrd+vVu83r9urddtwtW9cV/fDbbNUcEeWUcb1eRBGL/5xemC+dLItuJ2Ioz2Kok7UCbwyO6/PV2G4r8rbHdtrjqojbHtsOvp2sf5znS/0zAAAAAADMlbAMwAmV5WDL5bKKq825iCraTj5ftFbiFmXWhN9B9K1W4Jb1it5onr1bRD8C1+eKYrD6t4hqy+Zi8FXU5WzWyQeBd6iTxVCWN9G328kGX+vA28mim+fVuYihTj/aDnUmR+BuZ7ACuD8mb6KwZ9ICAAAAAHMlLLNovrnnUJTV3q1ZZP2HGWYR9eKlLPrbUGaRVV+rkVk0r/tjqjmyrNm2sr6mmaf/Cc219fnmumidrz6zPSjLysH46prB3FPurXqjfQ/RnItp9zXpfDZ5zjImXzP1e5t6v9lg0LTrWm9N/t5a93CuKKv/KQevpn5pXhStsWUMgmqdMMty8NepaM1dlPV1/ZH1dfVnlOXkuYrqnXq+osyqzy8nxdx67vqa+vqyXqlbZtX4wfmibI2tA3AxuK9ePbbIqrFldX0Vdevxzc8ZnDvyZmVtvRK33j65ta1yVq/KLZtx7fN5Xjbn8iyLGy7uzzPUqUJv1o/Bi7/1sv9HAwAAACx3Bw4ei7HjvaW+jVlbOdyJdWtWLPVtMEvCMotm/+HxmCj8S+0zzYxdY1qM77+aHqmnzjEPxboqtWX7ZUx+UQfidridqZf41QbLQxbRbLvcqWNvFs32y83zeKtn8XbyvHlu7iASl9HJ8uh0+tfm1ZbO/ZCcRyePyLP5j71lGXGeh/cCAAAAAMuAsMyi0ZTPTDP+ZZm6mvdE5XZ2swHLUBaDqNvNo7WKN6pVu1l0s4hOlvfPdfrhtt6iuZPn/Qhcncvz1vmsbAXj/nUAAAAAACwtYZlFU2qOAAuqjr2DqJtFpxNNuO1/jWp756wKuCda3ZtFp5NX20DXq3uzakz/cwAAAAAAOHcIywAwz+pnntehdrAqN5pQm1fbOXea98vIO/1n8nay/ntR9iLKIvKIGB4eiuFuZ8pK3sFK4Xp7ZwAAAAAAWAjCMovIkmVgcdRht5PXoTaaYNuOu83rrBpXvdfE3fo4zyKvtm3uRBadTtaPunXgjUEgns/VvBPHx+P4xERERAwPdaI7NDQv8wIAAAAAwKkSllk0ZRn92gMsG3XAzauA219BG5FHVp2rXtdjIousFWLr6NvJI7JWAM5bUTjPy/646EfbvB2Dq7ny1qrdzMpdAAAAAACYd8Iyi2bjhvOirFYtl2X1IyLK5mxEWbaP+6/7x1l/bH1NGRFRRtH/0lxXX1ufjzIGn9lcX1bnY8pntddUl1GW2eC9KJtnRNf3PHhvyjz1PbW+r2jN0X7WtDXcy0OdMLOsH0ezrAquUR03r+vjbPJxXkYW/ZiaZf1QOmme1nH9Xl5dm+f1mH58jSrM1p+fV1G3uaZ+Ly+buTpRXZP33+vH2ioA159bz9sKv/UxAAAAAACw/AnLLJorXrUypNTppsbu9vlJX6v/LWNKnG7F82Zca66sfX7q1zJrzRzT7iGazy4nXRtTxpbT3pwH2eRgO+Wt6ms26cTM47OIrGxdM/lr++epvi6vPnx6BJ7yWVVgBQAAAAAAWO6EZVhidbyc3TbhKiYAAAAAAACLL1/qGwAAAAAAAADgzCYsAwAAAAAAAJAkLAMAAAAAAACQ5BnLAAAAAAAAwFntpZdeigceeKB5feWVV8bGjRtPet3OnTvjqaeeal7feOONcckll5zWvTz77LPxyCOPRETEli1botPpnNZ8ZwphGQAAAAAAADirPfHEE3H77bc3r2+44YZ4+OGHT3rdRz7ykbjvvvua19u3bz/tsPyv//qv8bu/+7sRETE6OhqrV68+rfnOFLbCBgAAAAAAAJaVb33rW7F79+7kmJdffjm2b9++SHd09hOWAQAAAAAAgGXn3nvvTb5///33R6/XW6S7OfsJywAAAAAAAMCy80//9E/J97/4xS8u0p0sD56xDAAAAAAAAMvMD144FGPjxVLfxjTD3TyuvmRkQT/jtttui3vuuSe+853vxNNPPx2vfe1rp405cOBA7NixY9L4Ezl06FB88YtfjIcffjh2794dq1atiksvvTRuuumm+JVf+ZVTfobyK6+8Ejt27IjvfOc78b3vfS+uvvrquOmmm+Ktb31rrFu37tS+2UUkLAMAAAAAAMAy8+/f2x//79Dxpb6NadaeN7TgYfnd7353fOUrX4miKOLee++N3//93582Zvv27VEU/fC+ZcuWE4blp59+Ot74xjfG6OjotPc+9alPxUUXXRTf/OY346qrrprVvT322GOxZcuWePbZZ5tzX/3qV+Mv//IvY82aNfHVr341brzxxlnNtdhshQ0AAAAAAAAsGxdddFHceuutERHx2c9+dsYx9TbYN998c2zYsGHGMceOHYv3v//9MTo6Gnmex5133hmf+tSn4iMf+Ui89a1vjYiIl19+Od773vfO6r4ef/zxeNOb3hTPPvts5Hked9xxR/zxH/9x/Oqv/mqsWLEiDh48GDfffHPcf//9p/otLworlgEAAAAAAIBloyiKeN/73hfbtm2Lp556Knbt2hWve93rmvf3798fX/va1yIi4v3vf3+UZTnjPA8++GA8+uijERHx93//9/Hrv/7rk97/0Ic+FFu3bo0nn3wyfvSjH8XatWuT9/V7v/d7MTExEStWrIj/+I//iJ/6qZ9q3vv2t78dmzdvjiNHjsTdd9/dhPEziRXLAAAAAAAAwLLyjne8I7rd/hrbqdtc19tgZ1kW73rXu044x6FDh+L1r399XHfddbFly5Zp77e3rP7Rj36UvJ+vf/3r8cADD0RExJ//+Z9PisoREW9+85vjox/9aEREfPe7343HH388Od9SEJYBAAAAAACAZeXCCy+Md7/73RExfTvsz3/+8xERsXnz5rj44otPOMeWLVviiSeeiEcffTTOO++8iOhvj7179+64//774+677571/Tz22GPN8Xve854Zx/zsz/5sc/ytb31r1nMvFlthAwAAAAAAAMvO7bffHl/+8pfj+9//fjzxxBNx7bXXxr59+5qVw3fcccdJ5+j1evH5z38+/vmf/zkeffTR2Lt37wm3zk75wQ9+0Bxfc801kefT1/9OTEw0x/v37z/lz1howjIAAAAAAAAsM+svWBkrhzpLfRvTnL9y8fLkL/7iL8bw8HAcP3487rnnnrj22mtj27ZtUZZl5Hkev/zLv5y8/oc//GG84x3viKeeemrS+eHh4di0aVOsXbs27r///lndy3PPPdccj46OnnT8sWPHZjXvYhKWAQAAAAAAYJl5z5svWepbWHIjIyNx2223xRe+8IX47Gc/G3/0R3/UbIP99re/PV796lcnr7/zzjubqHzbbbfFr/3ar8Vb3vKWWL9+feR5Hvfee++sw/Kll14aERFZlsXu3btjeHg4Ob7eevtMIiwDAAAAAAAAy9Ltt98eX/jCF+LZZ5+Nbdu2xde//vXmfMro6Gjs2LEjIvorn//lX/5l2vbVTzzxxKzv48orr4yIiLIsY2xsLF7zmtdMG/PSSy/FfffdFxERP/MzPxNr1qyZ9fyLYfrm3QAAAAAAAADLwC/8wi/EihUrIqK/6rjeBvud73xn8rqDBw9GURQREc0K5bbR0dH40pe+NOv72LhxY3P86U9/esYxf/InfxIf/OAH44Mf/GBkWTbruReLsAwAAAAAAAAsS6tXr473ve99ERHR6/Uior8Ced26dcnr1q9fH6tXr46IiM997nPN6uRerxePPfZYvO1tb5v07OUjR44k59u8eXP80i/9UkREfOITn4hPf/rTUZZlM+fWrVtj69atzf1dfvnlp/qtLjhhGQAAAAAAAFi23vve9056XYfmlCzL4sMf/nBERBw/fjze8IY3xBVXXBFr1qyJN77xjfHII4/E5s2bm/E333xzfOxjH0vOuXXr1hgZGYmiKOK3fuu34vzzz49NmzbFyMhIfOhDH4qiKGLt2rXxmc98Zg7f5cITlgEAAAAAAICzWnur6qGhoUnv/dzP/Vyz+jjP87j11lsnvd8ePzw83Bzfdddd8Tu/8zvN62eeeSaOHDkSa9euja1bt8YDDzzQzPXyyy/Hiy++OOle8jyfdF9XXnll7Nq1K37+538+IvqrnB999NE4evRoZFkWW7ZsiYceeig2bNgw95+IBZSV9RprWGAH9r0QEX65AczWxPHxOD4xERERw0Pd6E75hyHOfGUZMXbkzHsWCsC54vDBw1FWfwYZGRmJ8FsyAMza+Ph4jB0di4iIoeGhWLly5RLfETBXq1YNx7oN6S1/WT4OHDwWY8d7S30bs7ZyuBPr1qxY6ts4qf/+7/+OJ598MsbGxmLTpk1xxRVXNM9AnpiYiKeeeiqOHDkSV199dVx00UUnna8sy/if//mfePzxx2Pfvn3x6le/OjZu3BiXXXbZAn8np0dYZtEIywCnRlg++wnLAEtLWAaAuROWYfkQls8twjILyVbYAAAAAAAAACQJywAAAAAAAAAkCcsAAAAAAAAAJAnLAAAAAAAAACQJywAAAAAAAAAkCcsAAAAAAAAAJAnLAAAAAAAAACQJywAAAAAAAAAkCcsAAAAAAAAAJAnLAAAAAAAAACR1l/oGAAAAAAAAgNN3/sqhWDXcWerbmLU8z5b6FjgFwjIAAAAAAAAsAyuH87BhMQvFrywAAAAAAAAAkoRlAAAAAAAAAJKEZQAAAAAAAACShGUAAAAAAAAAkoRlAAAAAAAAAJKEZQAAAAAAAACShGUAAAAAAAAAkoRlAAAAAAAAAJKEZQAAAAAAAACShGUAAAAAAAAAkoRlAAAAAAAAAJKEZQAAAAAAAACShGUAAAAAAAAAkoRlAAAAAAAAAJKEZQAAAAAAAACShGUAAAAAAAAAkoRlAAAAAAAAAJKEZQAAAAAAAACShGUAAAAAAAAAkoRlAAAAAAAAAJKEZQAAAAAAAACShGUAAAAAAAAAkoRlAAAAAAAAAJKEZQAAAAAAAACShGUAAAAAAAAAkoRlAAAAAAAAAJKEZQAAAAAAAACShGUAAAAAAAAAkoRlAAAAAAAAAJKEZQAAAAAAAACShGUAAAAAAAAAkoRlAAAAAAAAAJKEZQAAAAAAAACShGUAAAAAAAAAkoRlAAAAAAAAAJKEZQAAAAAAAACShGUAAAAAAAAAkoRlAAAAAAAAAJKEZQAAAAAAAACShGUAAAAAAAAAkoRlAAAAAAAAAJKEZQAAAAAAAACShGUAAAAAAAAAkoRlAAAAAAAAAJKEZQAAAAAAAACShGUAAAAAAAAAkoRlAAAAAAAAAJKEZQAAAAAAAACShGUAAAAAAAAAkoRlAAAAAAAAAJKEZQAAAAAAAACShGUAAAAAAAAAkoRlAAAAAAAAAJKEZQAAAAAAAACShGUAAAAAAAAAkoRlAAAAAAAAAJKEZQAAAAAAAACShGUAAAAAAAAAkoRlAAAAAAAAAJKEZQAAAAAAAACShGUAAAAAAAAAkoRlAAAAAAAAAJKEZQAAAAAAAACShGUAAAAAAAAAkoRlAAAAAAAAAJKEZQAAAAAAAACShGUAAAAAAAAAkoRlAAAAAAAAAJKEZQAAAAAAAACShGUAAAAAAAAAkoRlAAAAAAAAAJKEZQAAAAAAAACShGUAAAAAAAAAkoRlAAAAAAAAAJKEZQAAAAAAAACShGUAAAAAAAAAkoRlAAAAAAAAAJKEZQAAAAAAAACShGUAAAAAAAAAkoRlAAAAAAAAAJKEZQAAAAAAAACShGUAAAAAAAAAkoRlAAAAAAAAAJKEZQAAAAAAAACShGUAAAAAAAAAkoRlAAAAAAAAAJKEZQAAAAAAAACShGUAAAAAAAAAkoRlAAAAAAAAAJKEZQAAAAAAAACShGUAAAAAAAAAkoRlAAAAAAAAAJKEZQAAAAAAAACShGUAAAAAAAAAkoRlAAAAAAAAAJKEZQAAAAAAAACShGUAAAAAAAAAkoRlAAAAAAAAAJKEZQAAAAAAAACShGUAAAAAAAAAkoRlAAAAAAAAAJKEZQAAAAAAAACShGUAAAAAAAAAkoRlAAAAAAAAAJKEZQAAAAAAAACShGUAAAAAAAAAkoRlAAAAAAAAAJKEZQAAAAAAAACShGUAAAAAAAAAkoRlAAAAAAAAAJKEZQAAAAAAAACShGUAAAAAAAAAkoRlAAAAAAAAAJKEZQAAAAAAAACShGUAAAAAAAAAkoRlAAAAAAAAAJKEZQAAAAAAAACShGUAAAAAAAAAkoRlAAAAAAAAAJKEZQAAAAAAAACShGUAAAAAAAAAkoRlAAAAAAAAAJKEZQAAAAAAAACShGUAAAAAAAAAkoRlAAAAAAAAAJKEZQAAAAAAAACShGUAAAAAAAAAkoRlAAAAAAAAAJKEZQAAAAAAAACShGUAAAAAAAAAkoRlAAAAAAAAAJKEZQAAAAAAAACShGUAAAAAAAAAkoRlAAAAAAAAAJKEZQAAAAAAAACShGUAAAAAAAAAkoRlAAAAAAAAAJKEZQAAAAAAAACShGUAAAAAAAAAkoRlAAAAAAAAAJKEZQAAAAAAAACShGUAAAAAAAAAkoRlAAAAAAAAAJKEZQAAAAAAAACShGUAAAAAAAAAkoRlAAAAAAAAAJKEZQAAAAAAAACShGUAAAAAAAAAkoRlAAAAAAAAAJKEZQAAAAAAAACShGUAAAAAAAAAkoRlAAAAAAAAAJKEZQAAAAAAAACShGUAAAAAAAAAkoRlAAAAAAAAAJKEZQAAAAAAAACShGUAAAAAAAAAkoRlAAAAAAAAAJKEZQAAAAAAAACShGUAAAAAAAAAkoRlAAAAAAAAAJKEZQAAAAAAAACShGUAAAAAAAAAkoRlAAAAAAAAAJKEZQAAAAAAAACShGUAAAAAAAAAkoRlAAAAAAAAAJKEZQAAAAAAAACShGUAAAAAAAAAkoRlAAAAAAAAAJKEZQAAAAAAAACShGUAAAAAAAAAkoRlAAAAAAAAAJKEZQAAAAAAAACShGUAAAAAAAAAkoRlAAAAAAAAAJKEZQAAAAAAAACShGUAAAAAAAAAkoRlAAAAAAAAAJKEZQAAAAAAAACSuvM94Z49e+K+++6L3bt3x7Fjx+KKK66Ia665JjZt2hSvetWrFm3Of/iHf4jR0dHkvJs2bYobbrhhTvcEAAAAAAAAcK6Y17C8Y8eO+Ju/+ZtJ555//vl48MEH44ILLog//dM/jUsuuWTB5+z1evGVr3wliqJIzj08PCwsAwAAAAAAAJzEvIXlJ598sgnAw8PDceONN8Zll10WTz/9dDz88MPxyiuvxN133x1/9md/NuuVy4hl/doAACAASURBVHOdc//+/U1Uvvzyy6PT6cw4/7p1607nWwYAAAAAAAA4J8xbWP7Hf/zH5vjDH/5wvOUtb2le/9u//Vt88pOfjAMHDsSXv/zl+O3f/u0FnfPFF1+MiIhutxsf//jHTxiWAQAAAAAAADi5fD4mee6552LXrl0REbF58+ZJATgi4pZbbomrrroqIiL+8z//M3q93oLOuXfv3oiIuOSSS0RlAAAAAAAAgNM0L2F5586dzfGJnll8/fXXR0TE4cOHm2C8UHPu27cvIiIuvfTSk34OAAAAAAAAAGnzshX297///eb49a9//Yxj6tXFEREHDhxY0Dmff/75iIhYv359fPvb3449e/bE//7v/8batWvjNa95TbzpTW+KkZGRk94DAAAAAAAAAPMUlv/v//6vP1m3e8Jge+GFFzbHr7zyyoLOWYflL33pSzNet2bNmvjN3/zNuPnmm096HyljY2Nx7Nix05rjXHJ87FiUUS71bQCcNXpF0RwfH5+IXq9IjOZMVEbE0SP+3gewVNp//jh65EhEli3h3QDA2WViYqI5Hj8+HmXhzzZwtiqKXgzNosvQd8EFFyz1LcAZa17C8qFDhyIi4vzzzz/hmNWrVzfHswnLc52z1+vFiy++2Jzvdrvx2te+NtatWxfPPPNMvPDCC3Hw4MH4i7/4ixgaGoqf/umfPum9nEhRFDE+Pj7n6881vaInKwOchnZo5ixRljEx4a8bwJlgotdb6lsAgLNaOzQDZ5dOL9MygHkxL2F5bGwsIiLOO++8E47J88HjnItZ/Ivxuc554MCB5h9yrrrqqrjrrrualc1FUcSOHTvib//2byMi4q//+q/jJ3/yJ/3XJwAAAAAAAAAJTVj+xje+EV/72tdO6eJNmzbFu971rlizZk1EDGLwTEZHR5vj2YTcuc550UUXxV/91V/F0aNH4yd+4idixYoVzZg8z+PWW2+N559/PrZv3x6HDx+O//qv/4obbrjhpPczkxUrVsTQ0NCcrj0XFceORlizDDBr4+MTzSrlTp7H0NC8/PdgLKYyolxt21WApTJ65EhzvHrVqshshQ0As3Z8fLxZ4ZjneaxauXKJ7wiYqxWrhi2wA+ZF82+oX3jhhXjsscdO6eINGzZERD/mRkQcPnz4hGPrra0jBtE4Za5zDg0NxWWXXZac+6abbort27dHRMTu3bvnHJY7nU50Op05XXsuyjudEJYBZq/TKwZhuZNXv49yNinLiLwrYgAslSyy5jnLnW43wm/JADBrnXLwGMBOtxN5159J4WzV7XYskgPmRROWL7/88rj11ltP6eKNGzdGRMTatWsjIuLYsWOxb9++WL9+/bSxBw4caI7XrVt30rkXYs5avTV2RERZCp0AAAAAAAAAKU1Yvv766+P666+f0yRXXXVVc7xz584ZI/BDDz0UEf3to1/3utct2Jx/93d/F88880xceOGF8Yd/+Iczzv3DH/6wOb700ktPei8AAAAAAAAA57J8PibZtGlTrKyesfG5z31u2nORDxw4EI888khERFx33XUxPDy8YHN2u93YtWtXPPTQQ/HMM89Mm7csy7jnnnua15dffvlsv00AAAAAAACAc9K8hOWVK1fG2972toiI2L9/f3zyk5+MvXv3RkTEnj174q677oqJiYmIiGnbbW/bti22bNkSW7ZsiW984xunPed1113XHH/sYx+LnTt3NttdHzp0KD7+8Y/Hrl27IiLilltuiYsvvng+fgoAAAAAAAAAlq3uyYfMzgc+8IF47rnnYufOnfHggw/Ggw8+GKtWrYqjR482Y2655Za49tprJ113/PjxGB8fj4iIoihOe86NGzfGO9/5zti2bVu89NJL8Qd/8AexatWqGBkZif379zfjNmzYEHfcccd8ffsAAAAAAAAAy9a8rFiO6K8w/uhHPxpveMMbmnN1AO52u3HbbbfFnXfeOf0G8hPfwlzn/MAHPhC/8Ru/ESMjI8017aj89re/PT7xiU/E2rVrT/G7BAAAAAAAADj3ZGW9T/Q8Gh0djV27dsXevXvjx37sx+Kaa66JCy+8cNHnHBsbiz179sTevXsjz/P48R//8diwYUOsWrXqtO6FuTmw74WImPdfbgDL1sTx8ThePfZheKgb3aGhJb4jTlVZRowdyZb6NgDOWYcPHo6y+jPIyMhIhN+SAWDWxsfHY+zoWEREDA0PxcqVK5f4joC5WrVqONZtWLfUtwEsAwsSlmEmwjLAqRGWz37CMsDSEpYBYO6EZVg+hGVgvszbVtgAAAAAAAAALE/CMgAAAAAAAABJwjIAAAAAAAAAScIyAAAAAAAAAEnCMgAAAAAAAABJwjIAAAAAAAAAScIyAAAAAAAAAEnCMgAAAAAAAABJwjIAAAAAAAAAScIyAAAAAAAAAEnCMgAAAAAAAABJwjIAAAAAAAAAScIyAAAAAAAAAEnCMgAAAAAAAABJwjIAAAAAAAAAScIyAAAAAAAAAEnCMgAAAAAAAABJwjIAAAAAAAAAScIyAAAAAAAAAEnCMgAAAAAAAABJwjIAAAAAAAAAScIyAAAAAAAAAEnCMgAAAAAAAABJwjIAAAAAAAAAScIyAAAAAAAAAEnCMgAAAAAAAABJwjIAAAAAAAAAScIyAAAAAAAAAEnCMgAAAAAAAABJwjIAAAAAAAAAScIyAAAAAAAAAEnCMgAAAAAAAABJwjIAAAAAAAAAScIyAAAAAAAAAEnCMgAAAAAAAABJwjIAAAAAAAAAScIyAAAAAAAAAEnCMgAAAAAAAABJwjIAAAAAAAAAScIyAAAAAAAAAEnCMgAAAAAAAABJwjIAAAAAAAAAScIyAAAAAAAAAEnCMgAAAAAAAABJwjIAAAAAAAAAScIyAAAAAAAAAEnCMgAAAAAAAABJwjIAAAAAAAAAScIyAAAAAAAAAEnCMgAAAAAAAABJwjIAAAAAAAAAScIyAAAAAAAAAEnCMgAAAAAAAABJwjIAAAAAAAAAScIyAAAAAAAAAEnCMgAAAAAAAABJwjIAAAAAAAAAScIyAAAAAAAAAEnCMgAAAAAAAABJwjIAAAAAAAAAScIyAAAAAAAAAEnCMgAAAAAAAABJwjIAAAAAAAAAScIyAAAAAAAAAEnCMgAAAAAAAABJwjIAAAAAAAAAScIyAAAAAAAAAEnCMgAAAAAAAABJwjIAAAAAAAAAScIyAAAAAAAAAEnCMgAAAAAAAABJwjIAAAAAAAAAScIyAAAAAAAAAEnCMgAAAAAAAABJwjIAAAAAAAAAScIyAAAAAAAAAEnCMgAAAAAAAABJwjIAAAAAAAAAScIyAAAAAAAAAEnCMgAAAAAAAABJwjIAAAAAAAAAScIyAAAAAAAAAEnCMgAAAAAAAABJwjIAAAAAAAAAScIyAAAAAAAAAEnCMgAAAAAAAABJwjIAAAAAAAAAScIyAAAAAAAAAEnCMgAAAAAAAABJwjIAAAAAAAAAScIyAAAAAAAAAEnCMgAAAAAAAABJwjIAAAAAAAAAScIyAAAAAAAAAEnCMgAAAAAAAABJwjIAAAAAAAAAScIyAAAAAAAAAEnCMgAAAAAAAABJwjIAAAAAAAAAScIyAAAAAAAAAEnCMgAAAAAAAABJwjIAAAAAAAAAScIyAAAAAAAAAEnCMgAAAAAAAABJwjIAAAAAAAAAScIyAAAAAAAAAEnCMgAAAAAAAABJwjIAAAAAAAAAScIyAAAAAAAAAEnCMgAAAAAAAABJwjIAAAAAAAAAScIyAAAAAAAAAEnCMgAAAAAAAABJwjIAAAAAAAAAScIyAAAAAAAAAEnCMgAAAAAAAABJwjIAAAAAAAAAScIyAAAAAAAAAEnCMgAAAAAAAABJwjIAAAAAAAAAScIyAAAAAAAAAEnCMgAAAAAAAABJwjIAAAAAAAAAScIy/5+9+w6Pqsz7P/65z0wmk5CQkEKHAEFAVCygoIC9LSqKqLi6zVX3WVefXV19dteu6Orq2n9r1632uogNrCCKBUVQKYqAdEgoIRDS5/fHlJwzZzKZJJP+fl1Xrszc5z5n7kkYIPnM93sDAAAAAAAAAAAAQFwEywAAAAAAAAAAAACAuAiWAQAAAAAAAAAAAABxESwDAAAAAAAAAAAAAOIiWAYAAAAAAAAAAAAAxEWwDAAAAAAAAAAAAACIi2AZAAAAAAAAAAAAABAXwTIAAAAAAAAAAAAAIC6CZQAAAAAAAAAAAABAXATLAAAAAAAAAAAAAIC4CJYBAAAAAAAAAAAAAHERLAMAAAAAAAAAAAAA4iJYBgAAAAAAAAAAAADERbAMAAAAAAAAAAAAAIiLYBkAAAAAAAAAAAAAEBfBMgAAAAAAAAAAAAAgLoJlAAAAAAAAAAAAAEBcBMsAAAAAAAAAAAAAgLgIlgEAAAAAAAAAAAAAcREsAwAAAAAAAAAAAADiIlgGAAAAAAAAAAAAAMRFsAwAAAAAAAAAAAAAiItgGQAAAAAAAAAAAAAQF8EyAAAAAAAAAAAAACAugmUAAAAAAAAAAAAAQFwEywAAAAAAAAAAAACAuAiWAQAAAAAAAAAAAABxESwDAAAAAAAAAAAAAOLytvUCAAAAAAAAAAAA0HjGWJJlJGNJxkhW6LPHqhtLJQoCkBz8bQIAAAAAAAAAANBOGCkYCocDYysUEluy3Q6FxgldMMF5ANAAgmUAAAAAAAAAAIAWZowJhrzGcgbHnhgVxwDQDhEsAwAAAAAAAAAANFEkMLY8znA4UnFsJOMJlSIDQMdFsAwAAAAAAAAAAGDjakcdDo7t7agj1cdtvFgAaCUEywAAAAAAAAAAoMswkWDYvo+xmrZ/MQB0IQTLAAAAAAAAAACgQ3PtX+yJakfN/sUA0GwEywAAAAAAAAAAoN2J3Y469NkT3reYdtQA0FoIlgEAAAAAAAAAQKtxVRfTjhoAOgSCZQAAAAAAAAAA0GyRwDg6HI4ExxbVxQDQgREsAwAAAAAAAACAeplY7agtW4BMO2oA6BIIlgEAAAAAAAAA6GqMCVUY29pRW/XsZwwAgAiWAQAAAAAAAADoFIzk3LOY6mIAQBIRLAMAAAAAAAAA0J5RXQwAaAcIlgEAAAAAAAAAaGX1VhcbI3moLgYAtD8EywAAAAAAAAAAJEmwsjgUCFtWXVhMdTEAoIMjWAYAAAAAAAAAoB5GUiBWK2pjSZbYuxgA0GUQLAMAAAAAAAAAuhxHZXEDYTHFxQAAECwDAAAAAAAAADqLUFhsqCwGACDpCJYBAAAAAAAAAO2SkSJhMW2oAQBoWwTLAAAAAAAAAIBWEwyLbQGxMaGA2LjHZAiLAQBoJwiWAQAAAAAAAABNFruqWLaAOEaADAAAOhyCZQAAAAAAAACAWzgE9nplUnyxq4ppQQ0AQJdBsAwAAAAAAAAAnZxxhMAmRvtp+zFLgaoK1ZTtkSR5fD4pPb2NnwEAAGhrBMsAAAAAAAAA0IHU7VEsSeHW07bKYSqKAQBACyBYBgAAAAAAAIC2ZEyootiyhcP1VxMTEgMAgLZAsAwAAAAAAAAASWAkBYwlYxQ7JI7ctlcTkxIDAICOgWAZAAAAAAAAAKKYYDocrBiWsbWbNvVUEgc/iIkBAEBnRbAMAAAAAAAAoFMK7kXcQEBsryiWCd6Wod00AABAFIJlAAAAAAAAAO2eCbeVjm4jHWk3bbsvERADAAAkGcEyAAAAAAAAgJZnjIyjcphwGAAAoCMhWAYAAAAAAADQoEhbaXsYHA6KI22kpVj7DhMOAwAAdHwEywAAAAAAAEAXYFx7Dcf6kDMYlqgaBgAAgCSCZQAAAAAAAKD9i9VGut5qYVsraXubaQAAAKAZCJYBAAAAAACAFmLsbaAjVcCmbj9hhUJfI1tlMJXCAAAAaH8IlgEAAAAAAIAQIykQrg4Ot4WO1TY6clwEwgAAAOgSCJYBAAAAAADQoRnJ2Rpa0eFvrD2E7fPkCIPJgwEAAAA3gmUAAAAAAAC0LiOZSAvoOEGwvWV0dBAcPQcAAABAiyJYBgAAAAAAQL2MMQrIhDLcBELgWBXBhMAAAABAh0ewDAAAAAAA0AmY6LC3KQGwYswTWTAAAAAAgmUAAAAAAIBWEzf8lZodAAMAAABASyFYBgAAAAAACEms6leKJL4NBb8S4S8AAACAToFgGQAAAAAAdAgxQ18pRvAbTnCp+AUAAACAZCFYBgAAAAAAzeIOfKW4+/uGDsds+yxCXwAAAABojwiWAQAAAADohIIZbWMCX9nGFCMIJvAFAAAAgK6MYBkAAAAAgFZiJAWMkZFRQOF8Nmof3/DERCp8JQJfAAAAAECrIFgGAAAAAEC2ds6Scw/f6LA2OsC1VwPXu4evIvNt9wAAAAAA6DAIlgEAAAAA7Za9nXO9Fb71BL6ByioFJAWMpG7pMsaKG/gCAAAAAID6ESwDAAAAABqtLvAN3Uu0pXMiFb6O8ajHbIRan0+BQCB4x+sjPAYAAEDnYyTLGHms4IcV+uwxodseI6/hP8IAkoNgGQAAAAA6GXuVr6OaN7rKN1aIyx6+AAAAQJszRsFg2FjyeIwsS5HA2BMKjMOBMgC0FoJlAAAAAGhFRlLAGJlEQt/owFfR4zECX4nQFwAAAGinjCV5LCsSEFsehaqLLXktI48VDJQtqowBtEMEywAAAAAQ4gh9wwNxQ19J9VX62n8RFBUS8ysiAAAAoBOJ147aY4KBsZEsyxJ5MYCOjGAZAAAAQIdgJAUkGVcr5xjtmevb05fQFwAAAECiQu2ovcbIY1nB6mL7/sWWJU+oRTUAdAUEywAAAACSwrWvryvEjdPi2VUBHHtPX35dAwAAAKC5jJEsT1076nA4bA+L2b8YANwIlgEAAIAuIhz8BmRCWW2C+/oaRc1jX18AAAAA7Y8VDoeNkccTCoyNVdeamv2LAaBZCJYBAACAdqbBVs+JtnmOnhe+fms+GQAAAABojlA76nB1cTgk9kbvZWwZ9i8GgBZGsAwAAAA0UdwA2FLdfWMLgBuq/OUXIQAAAAC6ABMOjC0rFBgH21F7jQm2qaYdNQC0OwTLAAAA6BqMkYkEvlbzKoB5GzwAAAAAxGQsBcPicIWxp64dtZd21ADQoREsAwAAoN0xkgLhIDgS8lqKGQRbih8CUwUMAAAAAM1TTzvqcAtqj8fIayTLsngfLgB0YgTLAAAASCpjLHdraEelbyjotWKEwVZdeMzvIgAAAACgZcVqR+0NB8a0owYARCFYBgAAgIyRAgq9szwS9toCYsc+wSZ2aEwaDAAAAABtz9SFwTGri2lHDQBoIoJlAACADsxIUXsDR+0dbKsAdlUIR+0XzK8TAAAAAKD9Mlaw1XRdO2rJYxl5be2oqS4GALQkgmUAAIA2FNlL2FH1a68UDt+WLSR2h8IAAAAAgA6ovr2L7R/sXQwAaCcIlgEAAJrFyIRrfa3g/eDtYBps/ClRITF7CQMAAABApxZqRe0MiSWPsZytqENzAADoKAiWAQBAl1XXADoqGHbtIyxnC2l7GhzvLeMBSfK1xNIBAAAAAK0suhW1J9SK2mOMLI/lCIuJiwEAnRHBMgAA6ASs4A/tcYNhKzjVFRYDAAAAALoq42hFbQX3LfaEwuJIK+pQWMyPkACALo5gGQAAtDkTrho2AVsArFC7aEWFxI2oGAYAAAAAdDnRlcWWvbI4FBZboUDZ4mdKAAASRrAMAACarfHBsNyfAQAAAACoh2VJpoGw2GOCgTI/ZgIA0DIIlgEA6OLC+wwHZGRMwN0qOnzfsu1FTDtpAAAAAEBzGMljjEykDXVdWGzRhhoAgHaJYBkAgA4u+LN1uDLYVjFsRVUHR1cMRwXD/IwOAAAAAGgOy4oKim37F0eCYksyoeMAAKBjIVgGAKDNBQNfI4Xy4eAP1wFvoG5KSqpMaopoJQ0AAAAAaC2WCVYK+7yW/D6Po4rY2ILicIUxP50CANC5ESwDANAsJhgJ19tCWglVC8dUVana0OFAikfy8M82AAAAAKDpjBWqIFYwCA4HxXWtpyXLWPIYqbLS0m5fjSTJ7/cpIyO1jVcPAADaGr+hBgB0WUbhsLcFQmEAAAAAAFqSqasUtmx7FFumnopi07h9ivmRFwAARCNYBgB0KJEwWEo8EA7fD8+L3AcAAAAAoH0wof2IIyGxCQXFtj2Kg7fZoxgAALQNgmUAQItLOAwOvt1azjA4xmcAAAAAANoxY6sSjhUSm6gK48ZWEwMAALQFgmUAQISRFAjvGSw5Q+DwhOggONISmspgAAAAAEDnYoxkwlXEoaphYxQKixVpOW2vJLasyE/VAAAAnQrBMgB0UPVWAUuNCIBtx0Jj/PALAAAAAOhs6g+IbRXDkZbTVBEDAADEQrAMAEnmCHwld+gr1R/8SgmFvwAAAAAAdEX2FtNWZN/h8JizgtgyBMQAAADJRLAMoFMyMgooHPKGBwPOoFa2m46QNzQYK+iN3K9vHgAAAAAAiMeyQi2jbeGwq3rY2MNhReYBAACg7RAsA0gaV6WuFApzFRqPPhb+HB3qhg4mGuzKeTh8nB83AQAAAABIslDQ6wiGjQlVEisYBss4K4stOcYAAADQMREsA+1WuNY2RlArxa68td81tjuxQlvH3Pqu1UCAG/PaAAAAAACg3QpV/xojV8WwPRi2bHsSEwwDAABAIlhGB2YkBUK36q1PdYWw9c2z366vMjZqckOhbKLnNzgfAAAAAABArlDYhPYVrguG6/YVth8LVxiH5wAAAABNQbCMVmNSU+s5ECd8jboZPZ8fhQAAAAAAQHtnwsFuqPLX3j7aHggbeyAcqhQ2qms7TSYMAACAtkSwjNbj8bT1CgAAAAAAABJj6gJhywS7pUW3jbaHwIqqELak4JhleGM8AAAAOgWCZQAAAAAAAHQKdZXBRpbqgt+6NtD1hMFRx2kZDQAAALgRLAMAAAAAAKD12SqCjQkGwfb9gxUKeoMVv8EA2BkEG1kmQBAMAAAAtBKCZQAAAAAAAMQXIwR2Vv46q4GNwvsHG9v+wbb20EnbL5gwGQAAAGgtBMsAAAAAAACdRSjgVYwAOFzZG/6w7xss+17C4UphKckhMAAAAICOjGAZAAAAAACgNZmoMFd11cCWnOGvvQLY3go6UjlsAsHqYFtwDAAAAAAtgWAZAAAAAADALpj5xgh/3fv/RsZC4a4z+A3NsZ0bDoGTulgAAAAAaAUEywAAAAAAoOOwBbXhyt/wfVe7Zzkrfo3jeN2+v0bu4wAAAAAAJ4JlAAAAAACQFOFg1lHlK3elb/Qev7FCX0e1r2whMqEvAAAAALQJgmUAAAAAADq52IGvcQS8zQt8Q9cHAAAAAHRaBMsAAAAAALSFcIirusA3vK+vM8yNqvqN7OVbF/xasebazgEAAAAAoLkIlgEAAAAACIuzf6+9ktdepVvfHr11x4wsEwidZzvWhk8TAAAAAIDGIlgGAAAAAHQI9nbOrsDXXsUbCn2rKzySAjIyyslIkbGsNqzuJUYGAAAAAHRsBMsA2r1AbUBlW7aopqJC3fr2kSclpa2XBAAAALsYLZ0txajcjbF/rxVMdCPzrCQGvtV7PAoEApKkdL+XPYABAAAAAGgGgmUgiVa8/F+VrF7V4Dyv36/MgQXKHDhQ2YWFSklPa4XVNU1ZcbFWznzVMTbg6KOUVVDQoo+7+fMv9M2jj2rHsuUqXbZEteVVwQOWlDlihHJGjdI+F1ygXmNGt+g62pvlzz2nTR9+6Bg77NZblZKe3qjrlO/YoU+uv94x1u/IozR0ymnNXmNbPE4y7d64ScueebrBecYYpfXsqcyCAmUVFCizf/9WWF3D2uvXvKaqSl8/9pgU+uW+JOXut5/6T5zYhqsCgK4hbpVvvW2dw4FvA3v42o4DAAAAAIDOjWAZSKJVr7yidS/PaNQ5/v59dMBVV2n4tGmyPJ4WWlnT7d6wSZ9ddrljLOPZp1osWN61YYM+velm/fD0s7En1EqlS5apdMky/fDMc+p7ykkae8P1yi4sbJH1tDfFi7/Syn894Rgbe8ONjmC5rKhIlSUljjnZhYWy/8a3przCdR1/fs+kh4+JPE6gtlYlK1c65qTm5CgtJyepa0lUWdEWLb7x5kafN+CsqRrzpz8pe8iQFlhV4lrre9tYFTt26Isrr3GM7X3pbwmWAXRtMap8jewBrjvItexBbuS+PSiWYx9fi8QXAAAAAAAkCcEy0MbK123Ux7/5X33//Aua9MLz7TJcbi1VZWWa/eNzVbJoccLnbJj5mmZ9841OmfWm0vPzW3B1HcfXjz6qb26/0zH2861b2u2frcrSUr08Zqxj7IDpN+jA3/5vG62oadY+96LWvfSyjn7uOQ08+qi2Xg4AoLlsgW10pa+VQOhrbwHtaO0cdRwAAAAAAKCjIFgG2omi9+Zo8UMP6YCLL27rpbSZj666ulGhcljZytV694ILdeJzz8qbmtoCKwMSE6iu1Ye/+516zpkrf052Wy8HADq1+to7Oyt6ne2drehK36gqXyPb9Qh9AQAAAAAAHAiWgRaWf/gEZQ4eFLlftmmzNr/zjgLVta65X94wXcPOPlvpubmtt8B2onz7Dq38179d44N/dq76TpyonqNHq7aqSlu//lqrXpmp9TNmOuYVzflA6z/4QAXHHttaS24T/Y88QrVVlY4xT6qv0ddJzc7S8N9erJqKishY3v6jmr2+tnqclmb5UzRo2rTI/dqaWm356COVrVztmlu+dr0WPXC/xl5zdSuusE5n+ZoD6OBCYa3sga7CwW9d6OvYt1ehts2Rc8LBr5FlArR3BgAAAAAAaGMEy0ALO+Tmm9RzlDPUqdy1S2vefVfzzr9QgarqyHigqlo7vv1W6YceWu/1qsrKtHvjRmX079/k6tzqigrtKS6WPztbKd26NekaybZ5wWdSwDm2/w3X6aBLf+cYyxk+XEOnTNG8K6/Uiocfcxwr+vyLDiiO+AAAIABJREFUhoPlQEClGzbI8njVrXevZq+7prJSe4qLlZrdQynpaY0+v7K0VKXr18uTmqpuvXo59kqOpeDYY5MSnnv9fh02fXqzr9NeHqel9TnxRzri3nudg4GAtn37rT7/y22uvdWLFy2Ke71kvI7t69hdVCTLm6K0nB7N+ppXlJRox8qV8vr9yho8WF6/v2lLqq1V2ebNSu/VS8aymnQNAC0sal9eY4wtyA0HvKqr5jWm4Wpf+77ALbFgAAAAAAAAtCmCZaAN+DIyNHTyZBVd/IWW3fP/HMdKVq1S36hgedvyb7X4b3/T1i8WaueSJVJAMile5Y4bq/zRozXguOPUb/xh9T9gIKDlzz+vNW/OUsmyZSpduiwS4np7ZClv7FgVnjFVg044Qb7MzEY/n+rycn1y082qLClxjGf066eDr/xTQtfYtmSpa2zgscfEnGssS6MuusgVLG/69NOY82travTN43/Xmrfe0rYFC1S9PbjOtEEDlT9urPIPPEjDz56m1Kws17lfP/64Ns77MHK/W//+Omz6jVoxc6a+uvc+7fhiYeRrmT5kkAZNmaJRF1+stJwe9T7X0vXr9cVf79D62bNVsWGT45ivZ54Gnz1Nw885R7kjRrjX8/e/a+1bbzvGjnn0EfkyMrTw3vtUvm2rNs//2HXe/OtvkOWx1HvcoRr8oxO1Z9t2vR/Vdr3gpEka+ZOfSJIWPfCANnwwz3F82LnnqPDkk2M+n3lX/J9jLGPgAE287ba4j1P01dda8cLzqrZV1oatnT1b5VuLZSyPhkw5TZ/f+hfH8fRevXTEPXe7zpOkBbfdrqIvv3SMjZt+o3rstVfM+U1mjHKGD9f4v96uZ6OC5R2L3S3dm/o6Ll21Wl9Mv0mWZWRMMKQ99M83KyUjQwvvvlsr//0f1ezeo8ILfqnD7/hrg9/baBs//VRfP/Swtn35pbMC25KyRu2vvNEHafQVl6tbnz5xvxy1NTX6+tHHtP7991U8f76qS0qVkpej3kcfpWHTpilvFFXTQKPZAt5wq2fLRO/fa6v6lW1cxjZXkfbQtHkGAAAAAABAUxEsA22ox3B3cFi6enXkdqC2Vl8//ri+uPZa1ZZXOeYFqqpV/MGHKv7gQy295z4N/dUFGn/rLbI8Hse8suJiffiHP2rdS/+NuYbq7SXa9OZsbXpzthaPHKETX3hBGX3jB0iOddQG9MHlV2j1k087xi1/ik6YObOes9x8MULd9XPnKm/ffWPOzxo0SBMef0Q1torv9Px817wdK1fqg0svVfHcD13H9qxeozWr12jNM89ryYMP6sjHHlXvMWMcc7YtW+6oRs0efaC+vP9+Lbzmetf1ylau1pI779Z3//inTn57trKHDHHNWfbMs/rk0t+5vp9hlVuKtfy++7X8vvt16AN/04hzfuw4XrJylTa9McsxVhv6Gqx88UXtXPx1zOt++7cHJEkV27Zr8I9OVG1lpes6OfvsE7ntSUt3Hbd8KTGD5XVz5rjm7nflH4Nri/M4pWvXatm9f4u53q3zPtLWeR9JkoacOllb3nvX9TUb/Yf/U0bfvo6xmqoqLX3gAVWXlEbGfD3z1H3QoJiPkwzpeXlK7dvb8SaBys1FqigpUWpWVrNfx1W7d6totvPNBDsvOF+fXH2Ndi371rWehr63kceurdWiBx7Qwuuul9yd+aVaqeTLRSr5cpHWvvqqDn/oIQ046siYX4NwmB39uFXF27T2uRe19vkXdcD0G2OeC3QKkYDXOCp/ragAOLry114dbA9/7ccAAAAAAACA9oJgGWhDlTt2uMaMVRcoff7XO/TVrbcldK0Vjzwmy+fT+JtvqhsMBPTOeb9U8QfuUDWW0iXL9Mbpp2vqh/NcAXV9Ftx+uytUliUd+cQT6n3wwQldQ5Jy9xnpGvviqmu1bclSDZ06Vb0POdjVtnuvqVPjXrOsqEivHnu8qrZtb/Dx96xeo7fP/rFOnvWmsgsL65234/OFWvj5wrjXqtq2XfMuvUyTXn7J8XXc9Nlnmv+b38QO8WKYf/El6ta/nwYcfnhiJyTRkEk/0me/v9zRnnzTrFmq2rNHKWnOlt/r3n7Hdf7gUycnbS2+jAwNOH2qfnjqGefjvj/HFbwXffmlI1SWpEFnnSVPSkrS1hOttqZGVdu2usZN6Hvf7NdxDHMv/J+E/lzHvcbvf6+V//xPQnMrNxfp7SlTNf7RhzTszDMdx2qqqvT6KZO185sl9V8gIH15rfvNGECbiFMF7KjwtYxjz99IKBw+TvUvAAAAAAAAuhg2PgTaSHVFhVY886xrvFu/YAXmjlWr9PUdd7qOpw0aqJ7HHSN/f3dV8bd/e0BFtorVte/PiRkq5x8+QX1PPVlpgwa6ju1a9q12rFiR0HNY9tTT+vovt7vGxz/8UKP3Ac4ZMSLm9omrn3hKb0+ZqicLBunVKadrwR13ae2cOaqIarsdy+d/vcMVvpkUr3IPG6eccYe4/gasKt6mz/58S8Jr9nRLi/l9kKSiufO0bamzvfeCW251hcqFv/y5Dr7rrxp1/TXKOmB/58GAtPyJJxJeT49991X+4RPkHzjAdSx3wmHKP3yCMgoGJXSt9F691PfkkxxjteVV2rxggWOsas8ebXzjTec6xhwUs413tNSsLOUfPkG5h41zHfOk+ZV/+ATlHz5BVmqqhpx2qmvO2rfeco2tmzvXNTbkFHeVdTKtfGWmqxLZ1zNPKendkvI6jqW5ofKmBQtihsqWP0W5Ew5T9/3cFc6StODa61VZ6gzuv3v+hfihMtBcRrIsyfIYeb2WfF5LqT6P0lK9Svd71S3Nq8z0FHXvlqLsbj7lZPiU0z1VeVl+5Wf71auHX316+NUnJ039ctPVPzddfXPS1LdHmnpn+9Ur26/8rFTldU9VTqZPPTJ8yu7mU/e0FGWmpaib36tuqR6l+TzypwQfP8VjyeMx8liEygAAAAAAAOg6qFgGWtjuDRu1Mys7cn9PUZHWvP22fnjlFZUuWeaa3ytU5fvZTTcrYGvzLEn7/PEKjfnDH2R5PKqprNSC227Xkjud+8x+/9+XlT8q2D5608fuvXYn/usfGmqrJv34xulaeve9jjnFX32lnOHD4z6vtXPnav4ll7jGR9/6Z1dFYyJ8mZka/Zdb9fkfr4x5PFBdq6L35qjovTn6SpKMlDdhvAZPmaLC005VWk6OY37R4sVa8YhzD+b0wQU6/rlnI3vtFn/9td756c9UtuqHyJx1//2vym6/Tel5eXHXO/Efj2nwySfLk5KiHd9/rzemTFX5mrWOOSU//BBp5V2xc6eK5sxxHO8/5VQdftddkfv7X3SRXjlxkkq+XBQZ2zhrtmqqq+XxNvzX9dEP3C9J+vSWW/TN7c4w8+QZ/024Cj2scOpUbZj5mmNs/Zy56j9xYuT+5gULVLOn3DFn6NnTErp+v/GHqd8rM1RRUqKnCpxtw/e78k868Lf/G7mfnp+vlJwejkB1wxuvq6psj1LS6yqoN0RVT6cNGtioyvn6VJft1s4f1kTu19ZUa8sXX2jNG7O0/jV3y/c+Rx8tY5mkvI7jSe3bW3kHH6xu/fur3+ETG5wvSQoEtGC6uyK6/+mn6Yh774nss7512TK987Ofa/e3dW80qdi0WYsfeURjLr9cUvANMovuuMN1rfxjjtK46Tcqs39/rZs7V0sffUxFc+e55qETs7WGtsKtoS3jaPkcrAh2tou2rNB91Z1LcAsAAAAAAAC0DwTLQAt7/+xzEp6bNmigcoYNV01lpda97NwT2dczTwdddlkkHPT4fDrk6qu0ef58bf2oLkBe+dTTOvjKP8mTkqKyzZsdVcnpffuq8JRTHNftM/4wV7C8p6go7jqLv/pGS+//m6v6duQVv9eoi36d8PONNup/fqXSH37Qtw881PDkgCJ70y686SYdfMstGvHjsyOH1733vuuUkb+5KBIqS1Levvtq3F9v17tn2ILQWmnlzFe173m/qPeh97v6Sg2dMiVyP7uwUPv99hJ9dsUfHfPs+2XvKSpyfb22fPSRNi1YoF4HHSRjWfL6/Rp99ZXa+NF8x7yKHTsaDLpbQsFxx+qjNL8jOF43a5bGXnN15P76951huYw0+CRnpXMyeP1+FZx1hlY89GhkrLa8Sps++SSy729ZUZG2zv/Ecd6QaWfJWM1vzrF59jt6cfaBCc/ve+SRSXkdxzPo3B/r8HvvSehNB3bF33zjCnm77VWoox952HGt3BEjdPTfH9fMCUc45i67/0GN+f3vJWO0acECla1c7TieOXKETvjPfyKBf+Epp6jfhIl6+YgjXW++QPtkjC0EVjjsdQbCVigQVuiYZds/ONxSGgAAAAAAAEDnQrAMtBdGmnj//TKWUem6dY69bSUp79Bx2vnDD67TsvYa6gikKjZt1pYvvlCfsWN1xD13u+aXFRerdN06la5araIvF2rFvxPbY9Xuq5v/7BobcNZUHXLVVY2+VrTxt/xZBSdN0tLHHteGN153tRiOpXp7ieZfdLHS8vMiLbh3rlrpmtdj5EhtW77cMeaPEdiueeP1uMHygKOPdo1lx6jwrqmsjNzu1sfd8rhyc5HeOPYE+Xrmqc8xx6jnIYeo5+iDNPbaa2Wstg9lUrp1U8G0Mx0tk3d+9Y12rlmj7gODb1hY+8YbjnN6n3hCzOeaDENOmewIliVp7bvvRoLlDVGBvCQNPukU11hL633CcRp25hnB12szX8e5B8UOs7vvM1JH3Hdvo6vQJalk1SrX2MiLLooZUOftu696HX+sNs9+OzJWtW27yrZsUXqvXtoVIygeceGFjipySfL3yNZB11ylj351UaPXi8Yxlq1KOBL4GhlLtj2CTWSvYMuYYJtphY61g797AAAAAAAAALRPBMtAO+AfOEAH33i9+o0/TJJUumaNa86GGa9qxoxXE7pexY4djvubF3yuVa+9ptUvv6w9q93XTobyouKkXav/+PHqP368qsr2aNNnn2r9nLnaMn++tn7yiavq1+6DX/1a+Z99ovTcXJWs+N51/K2TJsc4y61s3fq4x7OGDHGN+aNacUdLSU9Xz+OO0Za33nEdq9xSrB+eflY/PB3cczt9yCAVnn229r3wQvl7ZLvmt6Yhp53m2ot3w7wP1f2cgdqxapWrnfvQM89osbX0GTdW/gH9VL627vuz9tVXpek3SsZow5z3HfMzR45IqJ10Mg2cdoYOvflmWR5P0l/Hdv1OOL5JobIklXzvfm3k7F3/nti5o0Y5gmVJKlm9Ohgsr3UHy33GHhL7OvvE3rcZdRoKhcOBcCQUDrWNthSeQygMAAAAAAAAoOUkPVhevXq1ZsyYoVWrVqmiokJDhw7VyJEjNWbMGOXn5zf7+k8//bQ+/PBDHXPMMZpia0XbFmsBmsrbI0vdhw1TxuBB6j3uUA2bdpZS0uoq/EpjhDWNUbV7d+T2ogcf1BdXXtOs6yWi6L05+n7GDA2dclrSrpmSnqYBRxyhAUcEW/FWlZVp8+efa/37c/Tdv/6lquJtjvlV27ar+MtFGnjM0dq5zL1/daKqy8rqPWZSvE0Oeyf89XbNOmuaY8/aWMpWrtZXt/xF3z3xpI7+++PqNWZ0kx4vGfpOmKDU3r1UsWlzZGzd++9pxDk/1vq5HzjmetL8KjjuuBZbi+XxaMhZZzn2Iy5b9YO2LlumnOHDte71Nx3zC6clttdz0xckdSssVOaQIepeWKjh556jPFt4mszXcbT0ZvwbVrraXTGd3rNn/Y8V49iudeuksWNjBsv+nNyY1wlXuXdaoUzX3go6uFewkdfrdbSPDreZjlQKh+4DAAAAAAAAQHuW1GD5jTfe0IMPPugYW79+vebMmaOsrCz95S9/Ub9+/Zp8/erqar3++usqKSnRjjiVXK2xFiBRk955S3n7j3KMNbQnqi+ze8xx401sr9jaqmpJ0ncvvVRvqJyx93DlHzxG2cOHa+HV1yV03YZ8dt11GnjsMfJlZjb63F0bNqqipO51bXm9jv2QpWDVb/+JE9V/4kQdeNmleuf8C7Rp1luOOduWLtHAY46WLyfHFTwn+vWLx3iaHv5kDRqk0z+Yq6X//re+/n/3N7jfbPmatXrvggt02vvvyZ/dNpXLHq9XQ358tmMf7g1vvBncP/gdZxXrwDOmNul73xiDJ5/iCJYlad3776u2usYRfkvS4JOTt9dz31NP1rGPP+4Ysywr7v7NyXodx+Ltlp7QNWKJ1f69YufOeudX7Cx1jaX2CFboBwIB17GaioqY16mtrkl0iW3GGCOZqJbRCu05HBlTJDg2Cs8Phsn1XFWSr/WeBAAAAAAAAAC0kKQFy1999VUkyPX5fBo/frwGDRqk7777Th9//LFKSkp07bXX6rbbbmtStXBZWZkeeughlZSUtPlagMYwKd4Gg+Ro3QcPco1N/Pc/NHRyYq2cJSlQG9DHl/3eOWhJB/35Zg2edJK6FwSrB7d/+12TguUhv/ipNr4/x9Fau3zten1533065OqrG329dy+4wLHHrCSd8c1iZdbzBhBfRob2vejXrmB51/oNkqTsvfd2VAZn7D1cZ87/qNHrSjZvaqr2u/BC7Xv+BSr6+itt/PBDbfpovja9NTvmftJ7Vq/RD7Nna/hZZ7XBaoOGnHaqI1iuKd2t9R98oE2zZzvmFZ5+eouvpeeoUcrYe7h2La3bK3vtrNmueTljD1Z2YWHSHtcYq01ex5VVlQ1PaqSsGF+X0rVr1evA2Ps5l65278kcfm7dhwx2z1+3LvL3i/MxWqYNf0SoOrjxwXDdGAAAAAAAAACgfkkLlp944onI7SuuuELjxo2L3J81a5buv/9+FRcX68UXX9Svf/3rhK65bds2vfzyy1qzZo2++eYbVVYm9gv2llgL0Jq6DyxwjW1ZsCBmIFW2dasqoyr4swYPVum6daoucVYa7nP577X/RRc5xraviN+WOZYhv/ipDr/rbn0/Y4Y+OO98x7Eld9+jvc46y1Vt3JCc/fd3BcurXpmpURfV/xrdvvxb11h6r16SpKy99pJ9p+RdS5dr95Yt6hbV1jdQW6uSVc7gzJedrfTc2O18m+q7l17S1q++dowdeOnv1HPUKO1/0UWqLi/Xxo8/1sI77tTWec4AfPuy5WpLPUeNUubIEY79lD+99jpHEJ7au5f6TpzQ8osxRoXTztKiG26KDBXNmavyLVsc04acMbXl19KAZLyOW0JWjDD42yeerHdda1543jFmvJYyBwwIrdG93/j3L74Q2S/e8RjPPe8ac1449CkS9BIMAwAAAAAAAEB70vy+sJLWrFmjpUuXSpKOOuooR5ArSSeccIKGDx8uSZo7d65qahJrh1lUVKQZM2Zo4cKFCYfKLbUWoDX5e2QrtW9vx9i3DzyoDfPnO8b2bNuuV445Vi+PPsTxsWf7du3euNF13UCts21tbU2Nlv3zn+4FxGhva1fwox/JWEaFp56q3EPHOk+trtXH110f9/xY8vbbzzW2+K936LuXXoo5f9Wbs/T13fe4xvsfdaSk2FWZ8y6/QrVRr/nFDz/s+vot/tv9jV5/Q3auXq2ld9/r+PjBVvHr9fs14MgjdcBll7pPrq1t9uOXb9/e9JONUeHZZzuG7CGzJA05e1qjK3rjKd+2td5jQ04+2TkQcK9n8EnJa4PdVMl4HbeEvP32c61r8+y3tfTJJx1j1eXl+jjqDQSS1G/y5Mj3usfeI1zXX/mfJ7X23Xfk8RilpFjypXi0ce77WvHYo665Pp9H2Rk+5WSmKjf0kZPhU3Y3n7LSU5SZ5lVGmlfd/F6lp3qV5vMoNcUjn9cjr8eSx2PksQiVAQAAAAAAAKA1JCUFWLJkSeT22LFjY84ZPXq0li9frl27dmnp0qXad999G7xuXl6ezj333Mj9iooKvfDCC22yFqC1HfCnP+qT314WuR+ortXbZ5yp/qeeqt6HHapt3yzR6uefd+0j3Ov4Y5Sem6ua8nLXNVc88YQGHHOs8g8Ype0rVmjR3fdo8+y3XfMS3QvVWEYH33C93jxhkmN80xuztOr1NzR40o8Suo4kDTjqKH3eK1+Vm4siY1XbtmveLy/UojvuVPbeI+XLylT51m3a+d13riBRkjJGDFP+fsH9rIeccrIW3323ox32hpmvacbxJ2jAjybJn91dq155RcVzP3Rdp+CE4xNed6JiBeefXnmVKnfuVM8xY5SSlq4dK1bo64cedM3recghzX78L+68S73GjFaP4cOV14S/8wafcrK+vO6G+o+fdmozVue29tXXlDV0qHyZ3TX4pEmO0Dp76FDljD1Y2z75LOa5PY89Whl9+yZ1PU3V3NdxS7TCTklP14FXX6WPL/6tY/zji3+rtW+/rdx99lEgUKt1b87W9s8XOuYYSzr8hmuUkeaVZRlljd5PQ38yTSueeLbuOVZV650zzlLhj6cpZ9hQbVv+nb5/5jkFYrw/whjJY5EKAwAAAAAAAEBHkJRgefnyujat+8UITyRFqoQlqbi4OKHr5ubmatq0aZH7O3fubDBYbqm1xFJdXa3q6uomn9/VVFVXK6D4lbAdXW2M5KSmukqV1e69cxsy9OxpWv3a69ps20O4Zvce/fDUM/rhqWdinmOl+XXw9BtVWV2l1Pw8+Xr3UuWmzZHjlZuLNGtSw5Wc5TtLImuurnWvvbqmOnI8d/RB6j/1dK170VlZ/Ol116jXxPHypqU1/GQlpeTnasIjD+vd005X9B+T0iXLYgbJdlaaXxMfeVhVtdVSrSR/qsbddafeOdkZeO74fKF2RIVldkPOP0+5Y0ZHnl8gulq4JhDz+1kdo/tBbU1NZG7+uLHqvv8o7Vy0OHK8qnibPrv8D3GfV2rf3up16LjIdWpr3Y9TXeP8M5Y1wl1F+t2DD+s7SQXnnK0J992jqhr3c6itran3z2r6gP7KmzhexR+4g/iMfUaoxz4jY56byOOYbunqNmyo400Au1es1CeX/E6S1H3+PGXvNdRxjYIpp9UbLBecOrlJr7mw6hr33+uBQG2bvI6r6nmTR02N+3sV3l841p8Ro4A8Vm2kxfSoc6dp6cMPq2TxN455619+RetffqXe57PPJRcpf/gQSTVSbfClethVf9T3zzyvQHXdayVQK6148tl6rxOZV1OrqhYIz9sbmqMAQNsJ2DrxlJeXy9DmAgCAhFVUVERul5eXy5vETmUA0J75/f62XgLQbiXlfwM7QvtCer1eZWZmxpyTnZ0duV1SUpKMh23ztVRWVqqsrKzJ53c15VXuCtrOpjZGy+KKykrHf8Qb46Cbp+vDLZu1c+HiBuf6Bw7QIffeJf+AAZHHO/DPN+mT838V97yeJx6nLbPecoS5G955R8MvvEApGRmqrHCHPtXV1Y7ntM9lv9P6Gf91BEtlK1Zr0f0PaN//vaTBtYfljBmtg+66Q4uuu141pbsTPi+lV54OvvNOdSsc4lhXjwMP0D7Tr9OS6Tc71lafQef/XPtf+UfHNWpiBHuxvp+Vle6xmpqaurmWpbH33a13TjpZtbv2JPK0ZLyWxj30oGp9KZHrxGrfX1FRqYBtTXnjxsp4rZjPuaY2uKbKGM+h2r7eGPqfOjlmsFwwdaoq6tmuINHH6XfySfr2rntjXqOqyv0a6nPsMVqoq92TLan3kUc0+TUnKebWC7W1ta32Oh53393KKChQoLpKKUbyed27VnhMrVJNTaQFdHjPYUkKWO4A3FKNrNCbRMIv9UlP/UNvX/x7Fc2Zl9DzGH7RBTrkT1dozx7n3+X+vr11xGMPau6vL3G1zbYbev5PtWbmG6rcUveGrurqatf1OptAQKqqavobHQAAybN7d+L/vwQAAG67du1q6yUAQKsgWAbql5Q9lktLSyVJGRkZ9c5JT0+P3G7JYLk9rQWQJI8vtcnnduvbV8f992UdcPutSsnLqXdevzOn6vg3XnW1TB5w4gk66J47ldIrz3VOav++GvHHK3T4Iw+r54knOo7tXLhYG957P7j+VJ/rXCvFOZY5eJAKL/q1a963d96tyh2Ne40NOetMTfponoZfcZmsjPjVzlZGmkb86f80ac776hvaWzna3uefr+Pfe089f3RizOOS5OuVr3H/elxjpk+XJ6rC2kpzfv+set6wEnN9Ud/7rKFDdfw7b6vvmafHP9FIA86ZpuPee0f5ow9yHPKkRv15siQrxfkeIV9Wlg79z7+Ue/j4eh/C43N/X2ON2Q04/riY/2r0j/O1TfRxhv38Zyr4+c+kBIuI0vv0Ud5Rh7vGe02apNSc+l8rTWU18J9Jo2Cw67GMvJalFMtSqsdSqtdSbkF/TX79FR18121xX8eDf3ymznr/TQ078jB1T/Mow+9RN79H3TLcj+2xjLye4ON5LBMJlaXYX18r+s+NpMz+/XXqi09q1JWXy8QIr8N8eTk6+snHdMSt0+VNj/2aHHbaKTr1rdeUMcy9t7mxpGH/c56OvP0W+bK6O58H/0kHAAAAAAAAgA7DBOy9wZrokksu0Zo1a9SvXz89+KB7f1BJKioq0vnnny9JOv300/WLX/yi0Y+zc+dO/eQnP5EkTZkyReedd16brUUKVrXFqmxDbDv37O70rbBbUnVFhUpXrVLJiu9VsX27PGlpytprqLILhyolo1vccytLS1W8aLF2rVkjX1aWeowYoawhg6V23gqwuqxMpWvXaff69dq9fr32FBXJn5OjbgP6K6N/f2UOGCCv7Y0iDSnbtFklK1eqZMUKeXw+pfXsqay99lJGv34yrbzPa8X27dq2ZKl2LF+uqj1l8mVkKiUzU+l9eqt7QYG6JWmP4LJNm1SxY4dqq6rlSU2Vr0e20vPzk3LtllBbXa09mzerfNt2Ga9HHl+qMgYOkCclxTX3m0cf0+JrrneMHfr3RzXopEmuufUxMsGXgTEyCoag4ZDYRB83gUgr6eBQ8Fhj/uRUV5Rr+/ertP3b77QZBixuAAAgAElEQVRn+w5509OUN2wv9dhrqHwx3hAVXemaEuPrkAw1lZUqWbVaW79doe3frZDH71fuiGHKGVqozAH9ZEyC70MLBLR99WptWbhINTU1yho4UD3320cpjXiddj5GNTUt830DADSsvLyuM0ZqaiqtsAEAaAT7v6MSFXwAuo54hYtAVxcpc5s3b55mz57dqJPHjBmjyZMnq3v3YAVS9H827Oxtx7Kyshq7zoS15lp8Pp98DVT4oU5FLftRN0uqXxn7H6A++x/Q6FP9qX51P+aYFlhUC0v1K6NHjjRqVFIu5y8oUE5BgXTUUUm5XrPW0ruPsnr3kY4+umUfp2CQVNCiD5FcqVL6kAxpSMNTt33xheO+NytTe58ySb70bsHAN/IRDIItqy4sljGhkLhFnkX90tKUObqHBkZVotfHsqxIC+7UVL9SY3QQSNa6Mg7YX/0O2L/5lxo5Un1HjkzCojoLI4lfvgBAW6moqIjss5yRkUGwDABAI3i93kj7a7/fT9ACAADqguUNGzboyy+/bNTJfUMVdTmhtqPx9tkIt6iW6sLfltCe1gIAsDHhUDcU+MrIWJKlcAVwcI4lyVh1Y8ZWPVy0bKkClVX6buZrWvfSDMfl97ngPOXkttwblwAAAAAAAAAA6MoiwXJhYaFOOumkRp18wAHByskePXpICr4bfNOmTerdu7drbnFxceR2Xp57v9dkaU9rAYAOLRwEW6GtlcNVvjGC4PAxGWcb6fB9qfnVwbU11Xpiv0PqPX7AeT9t3gMAAAAAAAAAAIB6RYLl0aNHa/To0U26yPDhwyO3lyxZEjPMnT9/vqTgvlZ77713kx6no60FAFqcqwpYjgBYUiTwlaJCYIVCYMc1bKFxBzL03GnKH8nf5wAAAAAAAAAAtBRvw1MaNmbMGPn9fpWXl+upp57SYYcdJr+/bj/B4uJiLViwQJJ00EEHtei+xO1pLQC6MBP+5A59jWxVvKqr/K27bYIBcOh+3Vxn+Bs+p6vLGztaR996Y1svAwAAAAAAAACATi0pwbLf79eRRx6pN998U1u2bNH999+vc845R3369NHq1at16623qrq6WpJc7bZnzpypf/7zn5Kkyy67TBMmTGiztQDopKJCXtunYNAbuR9VrWsLeyNhbqz7BL6twhhLB/zhUtVUVMrypah7v37qUThYQ084VpY3pa2XBwAAAAAAAABAp5aUYFmSfvnLX2rNmjVasmSJ5syZozlz5igtLU179uyJzDnhhBM0atQox3mVlZWqqqqSJNXW1rbpWgAkiT3IDd+PDnOluhbMttOMsZ/vDH8jl44EvlHhbvhYVAiMzsFYlo79y81tvQwAAAAAAAAAALqkpAXLfr9f1113nW699VYtWrRIkiJBrtfr1eTJk/Wzn/3MdZ5lWa6xRKSk1F+d1tS1AO2Ssd80zjF7WCtFAtvQTXdoG3Wuc9zYzou6vrFfKXodJuY5AAAAAAAAAAAA6DxMIBAIJPuiu3fv1tKlS7Vx40bl5uZq5MiRys7OTvbDdLi1dHVbd+5onQeKCmKNpEB9QazkqJ4NnxN9OWOiBhSVz9pC2agl1I3FDWdDIyb2uQC6poqKClVUVEiSUlP9Sk31tfGK0HhGkr+tFwEAXdbWrVsV/pE3NzdXhv9gAwCQsPLycu3atUtSsJAnIyOjjVcEAADaWosEy0As5VW7Iredwa4tpA0HtI7DjqQ4ckJ0QMzviAB0NgTLnQHBMgC0JYJlAACajmAZAABES1orbKAh/hSvJN7HAAAAAAAAAAAAAHQ0TdvgGAAAAAAAAAAAAADQZRAsAwAAAAAAAAAAAADiIlgGAAAAAAAAAAAAAMRFsAwAAAAAAAAAAAAAiItgGQAAAAAAAAAAAAAQF8EyAAAAAAAAAAAAACAugmUAAAAAAAAAAAAAQFwEywAAAAAAAAAAAACAuAiWAQAAAAAAAAAAAABxESwDAAAAAAAAAAAAAOIiWAYAAAAAAAAAAAAAxEWwDAAAAAAAAAAAAACIi2AZAAAAAAAAAAAAABAXwTIAAAAAAAAAAAAAIC6CZQAAAAAAAAAAAABAXATLAAAAAAAAAAAAAIC4CJYBAAAAAAAAAAAAAHERLAMAAAAAAAAAAAAA4iJYBgAAAAAAAAAAAADERbAMAAAAAAAAAAAAAIiLYBkAAAAAAAAAAAAAEBfBMgAAAAAAAAAAAAAgLoJlAAAAAAAAAAAAAEBcBMsAAAAAAAAAAAAAgLgIlgEAAAAAAAAAAAAAcREsAwAAAAAAAAAAAADiIlgGAAAAAAAAAAAAAMRFsAwAAAAAAAAAAAAAiItgGQAAAAAAAAAAAAAQF8EyAAAAAAAAAAAAACAugmUAAAAAAAAAAAAAQFwEywAAAAAAAAAAAACAuAiWAQAAAAAAAAAAAABxESwDAAAAAAAAAAAAAOIiWAYAAAAAAAAAAAAAxEWwDAAAAAAAAAAAAACIi2AZAAAAAAAAAAAAABAXwTIAAAAAAAAAAAAAIC6CZQAAAAAAAAAAAABAXATLAAAAAAAAAAAAAIC4CJYBAAAAAAAAAAAAAHERLAMAAAAAAAAAAAAA4iJYBgAAAAAAAAAAAADERbAMAAAAAAAAAAAAAIiLYBkAAAAAAAAAAAAAEBfBMgAAAAAAAAAAAAAgLoJlAAAAAAAAAAAAAEBcBMsAAAAAAAAAAAAAgLgIlgEAAAAAAAAAAAAAcREsAwAAAAAAAAAAAADiIlgGAAAAAAAAAAAAAMRFsAwAAAAAAAAAAAAAiItgGQAAAAAAAAAAAAAQl7etF4CuhPcxAEBjWFaKvF4Tuu2V5GnbBaEJTFsvAAC6NL/fr0Ag0NbLAACgQ/J6vfL7/ZKklJSUNl4NAABoD0yAn7IBAAAAAAAAAAAAAHFQQgoAAAAAAID/396dR1Vd7f8ffzGIHBBkUkFNcQSpzKlyqMwpM2lQc7x1yyYra6Wlfitvdr3ZzauY95rk1Gp02eCUWWm6MjWnytIcQDSTUBQEFARBkeH3hz8+8eFzzgGZyedjrbPWZ+/P3vu8PwfW+qxz3p+9NwAAAAA4RWIZAAAAAAAAAAAAAOAUiWUAAAAAAAAAAAAAgFMklgEAAAAAAAAAAAAATpFYBgAAAAAAAAAAAAA4RWIZAAAAAAAAAAAAAOAUiWUAAAAAAAAAAAAAgFMklgEAAAAAAAAAAAAATpFYBgAAAAAAAAAAAAA4RWIZAAAAAAAAAAAAAOAUiWUAAAAAAAAAAAAAgFMklgEAAAAAAAAAAAAATpFYBgAAAAAAAAAAAAA45V7TAQAAcDX4+OOPtX37dvXr109Dhgxx2nbPnj3au3evjhw5oqNHj8rPz08tWrTQddddp8jISLm5uVn6vP/++zp//rzTcbt166abb765QtcBAEBNKeu9tCL3xPj4eK1Zs0bHjh3TxYsX1bZtW0VERKhbt25q1KhRha8BAICakp6ern/84x+SpNmzZ8tms5nOJycna8WKFVc05t13360WLVpIkmJjY7Vp0yan7d3d3TV27Fh5eHhc0fsAAIDag8QyAABVLC8vT19//bUyMjKUnp7utO0XX3yhd955x1SXk5OjU6dO6YcfftCWLVv00ksvmX7czs/P1+eff66CggKnY3t4eJBYBgDUSWW9l1bknrhu3TotWLDAVJeYmKgtW7aoYcOGmjlzppo1a1b+iwAAoAZt27ZNCQkJkqTCwkLL+XPnzumbb765ojFvvPFGI7G8f//+MvUfOXIkiWUAAOowEssAAFSh7OxsLVy4UBkZGaW2XbdunZFUbtCggXr16qU2bdro3LlzWr9+vVJTU/Xbb79pwYIFmjZtmtHv9OnTxg/obdq0sTujWZKCgoIq4YoAAKheV3IvLe89cf/+/UZS2cPDQ7169VJoaKiOHDmiXbt2KSMjQ6+88or+85//MHMZAFDn7N+/Xx999JHTNvXq1VPjxo1LHev06dPGcYMGDYzjkydPSpIaNmyoJk2aOOzv7s7P0QAA1GXcyQEAqGRnzpzR6tWrlZCQoIMHDyo3N7fUPvn5+frss88kSTabTa+99pratGljnI+MjNSUKVOUkJCg3bt3KyYmRhEREZIuL1kmXf6CHhUV5fBHdAAA6ory3Eul8t8Tly5dahxPmjRJ3bt3N8rffPONoqOjlZqaqpUrV+rJJ5+8gisBAKBmfPfdd9qzZ4+OHDmixMTEUtuHhoZaVs8q6ffff9eUKVOUm5urkSNHGt9JpT8Ty/fdd5+GDRtWseABAECt5VrTAQAA8FeTkpKiNWvWaM+ePWX+ITw+Pl5paWmSLu9TVTypLEleXl4aM2aMUT5y5IhxfOrUKUlSs2bNSCoDAP4SynMvlcp3T0xISFBsbKwkqU+fPqaksiQNHDhQYWFhkqStW7cqPz+/zPEAAFBTtm7dqs2bN5cpqVwWWVlZmjlzpnJzc9WxY0eNHj3adP7EiROSpKZNm1bK+wEAgNqJGcsAAFSyoKAg/e1vfzPKFy9e1IoVK5z2SUlJMY5LJpWLFP+CXrx9UlKSJOmaa64pV7wAANQ25bmXSuW7J8bExBjHJfddLtK1a1fFxcUpKytLsbGxuu6668o8PgAANaFPnz4KDw83yrt371ZcXFy5x3vnnXeUlJQkm82m559/Xq6uf85XysrKUlZWliQSywAA/NWRWAYAoJIFBgZq5MiRRvncuXOl/hjeqFEj3XnnnZJkzIoq6Y8//jCOi39ZL3oCPTg4WD/++KPi4+N14sQJ+fv7q2XLlrrxxhvl4+NT7usBAKC6ledeKpXvnlj8R/brr7/e7rjF782pqalXdC0AANSE2267zVTOysoqd2J579692rRpkyRp1KhRCggIMJ0verCryIYNGxQfH6+cnBy1aNFCYWFhpmWzAQBA3UViGQCAWqBNmzZ6+umnHZ7PyMjQBx98YJSLP3le9CO6ox/cfX199fjjj6t3796VFC0AALVTee6J6enpki7vy+zoQSw/Pz/jOCMjo7LCBQCg1rt06ZLefvttSZcf3Bo8eLClTfHE8sSJE5WXl2dp07NnTz3xxBOWpDQAAKhbSCwDAFDLxcXFac6cOcYMqcjISLVu3VqSlJ+fr+TkZKOtu7u72rVrp6CgIB09elQnT57UuXPnNGfOHNWrV089e/askWsAAKCqlfeemJmZKUlq0KCBw7G9vLyMYxLLAICryebNm43E8cMPPywPDw9Lm+KJ5by8PAUGBiosLEzZ2dk6ePCgLl26pB07dig5OVmzZ8+Wuzs/SQMAUFdxFwcAoJY6d+6cli1bpq+//tqou/nmm/X3v//dKKemphpPg4eFhWnq1KnGrKqCggKtW7dOixYtkiTNnz9f1157rRo2bFiNVwEAQPUo7z3xwoULkiRvb2+HYxffR7KgoKCqLgEAgFqloKBAK1eulCRFRESoR48edtudPHlSkuTm5qbx48erf//+xrmkpCRFRUXp8OHDOnr0qD777DONGTOm6oMHAABVgsQyAAC1TGFhob7++mstXbpU58+fl3R5ptRDDz2kO++8Uy4uLkbbgIAAzZs3Tzk5OWrdurXq169vnHN1ddXgwYOVmJioL7/8UllZWTp06JBuvvnmar8mAACqWnnvib6+vpJkJJjtKbofS+IBLQDAVWPXrl1G0njIkCGm76LFjRkzRoMGDZKnp6euueYa07ng4GBNnjxZzzzzjC5evKhdu3aRWAYAoA5zLb0JAACoLmlpaXrllVe0aNEinT9/Xq6urho4cKAWLlyoQYMGWb7I16tXT6GhoerQoYPpB/TibrnlFuP42LFjVRo/AAA1pbz3xKK9HrOyshyOXbRctiQjEQ0AwF/d8uXLJV1+qKpbt24O2wUFBaldu3aWpHKRJk2aKDw8XJJ0/Phx5ebmVn6wAACgWjBjGQCAWiI9PV0vvviisT9ku3bt9Oyzzyo0NLRC4xYtAypdng0NAMDVyt490d/fX5J08eJFJSUlKTg42NIvNTXVOA4KCqriKAEAqHn79u3T0aNHJUn9+/eXm5tbhcYrepCL76QAANRtJJYBAKgl5syZYySVhw8frjFjxpT65X3x4sU6evSo/Pz89NJLL9ltc/z4cePY0RPkAADUdeW9J4aFhRl1MTExdhPLO3fulCTVr19fHTp0qMywAQColX788UfjuF+/fg7b/f7771q0aJEkacSIEeratavddvHx8ZKkkJAQeXh4VF6gAACgWrEUNgAAtUB6erp+/fVXSdKdd96pBx98sExPhLu7uys2NlY7d+40niYvrrCwUKtWrTLKbdq0qbygAQCoRcp7T+zWrZs8PT0lScuWLbPstZyamqrdu3dLkrp06cKP4QCAq8Ivv/wiSWrZsqWaN2/usF2jRo0UGxur2NhYrV+/3m6bvXv3GltQ8IAWAAB1G4llAABqgbi4OOM4ODhYmzdvdvoq+lLepUsXo9+MGTMUExNjLC2WmZmpqKgoxcbGSpIGDhyokJCQarwqAACqT3nviZ6enrr99tslSadPn1Z0dLROnTol6fLsqqlTpyovL0+SNHjw4Oq6HAAAakxKSopOnDghSerUqZPTtj4+Psb+yT/88IOWLFmi7OxsSZcf6tq9e7dmzZol6fJDYCNGjKjCyAEAQFVjKWwAAGqBmJgY4/j9998vtf3o0aPVqlUrderUSXfffbfWrl2rtLQ0vfjii7LZbPLx8dHp06eN9k2bNtWYMWOqInQAAGqFitwTH3nkESUkJCgmJkZbtmzRli1bZLPZlJOTY7QZOHCgOnbsWG3XAwBATTlw4IBxXJQ0dmbixIl64YUXlJWVpbVr12rt2rVq0qSJMjIyTCuBPPjgg3a3nAAAAHUHM5YBAKhG9erVs1t/+PDhKxqn+DLZjzzyiMaOHSsfHx9JUk5OjukH9AEDBmju3Lny9/cvR8QAANQuju6lUvnviZ6enpo2bZpuuOEGo64oqezu7q6hQ4fqqaeeqszLAACgxri6Ov9JuPiDz23bti11vJCQEL3xxhvq1q2bUZecnGwklQMDA/Wvf/1LQ4YMKWfEAACgtnApLFobDAAA1GkXLlxQfHy8Tp06JVdXVzVv3lxNmzaVzWar6dAAAKhWFbknnj9/XrGxsTp16pQCAwMVEREhPz+/aogaAIC679SpU0pMTNSZM2fUqFEjNW3aVI0bN5aLi0tNhwYAACoBiWUAAAAAAAAAAAAAgFMshQ0AAAAAAAAAAAAAcIrEMgAAAAAAAAAAAADAKRLLAAAAAAAAAAAAAACnSCwDAAAAAAAAAAAAAJwisQwAAAAAAAAAAAAAcIrEMgAAAAAAAAAAAADAKRLLAAAAAAAAAAAAAACnSCwDAAAAAAAAAAAAAJwisQwAAAAAAAAAAAAAcIrEMgAAAAAAAAAAAADAKfeaDgAAAAAAyiM7O1tRUVGW+vDwcI0YMaIGIqp+q1at0rPPPmuU58+fryFDhtRgRHVPRkaGli5daqrr2bOnOnfuXO2xTJ06Ve+//74kycvLS1u3blVISEi1xwEAAAAAgD0uhYWFhTUdBAAAAABcqdWrV2vo0KGWeh8fH6WkpKh+/fo1EFX1SU1NVfv27XX27FlJUmhoqA4dOvSXv+6yys/P15EjR0x1gYGBatSokanu2LFjat26tanuv//9r5577rkqj7GkX375RV27djXKw4YN04oVK6o9DgAAAAAA7GEpbAAAAAB1UslZpkUyMzP17bffVnM01W/SpElGUlmSpk+fTlK5mMzMTHXo0MH0WrJkSU2H5VSXLl10//33G+WVK1eSWAYAAAAA1BoklgEAAADUOWlpaVqzZo3D88uWLavGaKrf1q1b9cEHHxjloKCgq2b577+6iRMnmspPPfWUzp8/X0PRAAAAAADwJxLLAAAAAOqcNWvWKD8/3+H55cuX69y5c9UYUfV65ZVXTOXJkyfL09OzhqJBZerZs6e6d+9ulFNTU2v9TGsAAAAAwNWBxDIAAACAOufDDz90ej43N1dfffXVFY+bn5+v48ePKy8vr7yhGQoLC/XHH3/o5MmTFR6ruG+//VZbt241yvXq1dOjjz56RWNcuHBBycnJTpPzkpSenq4LFy6UK86iPY63b99eqZ9BSkqKkpKSVFhYWGljlub06dNKTEwsV9+MjAzt379fR44cUVZWVpn6TJo0yVT+5z//qczMzHK9PwAAAAAAlYXEMgAAAIA6JT4+Xlu2bDHV2dtb2NEezCVduHBBM2bMUN++feXt7a0WLVrIZrPpxhtv1Pr165Wfn68RI0Zo4MCBxmv58uV2x8rLy9PcuXPVp08feXt7KzQ0VM2aNVNwcLBGjBihN998U+np6Vd+0cXMnz/fVL7jjjsUGBhoqnv11Vd13333Ga9//OMfunTpkhYuXKg2bdrIy8tLwcHB8vDwUL9+/bRjxw6j7w8//KCnn35aHTp0kL+/v7y9vdWtWzfT0tuOZGdna+rUqerevbu8vLzUvn173XLLLWrWrJl8fX01YMAAvffeew77JyUlmeK+7777tHPnTh0/flzjx4+XzWZT48aNFRISIk9PT912221av369aYw9e/ZowoQJevHFFy3jr1mzRhMmTNALL7xQ6oz2hIQEPfHEE2rVqpWaNGmi5s2by8/PT4MHDzZ9Xvb88ccfGjt2rAICAuTn56eOHTuqffv28vHxka+vr5577jnt37/fYf877rhDrq5/fl3PyMhgr2UAAAAAQI1zKazOx7wBAAAAoIKioqI0efJkU927776radOm6cSJE0adq6urEhMTFRwc7HCs1NRU3X///ZZEdXEzZ860JCmjoqL0wgsvmOoOHz6shx56SLt27XIaf3BwsFauXKmePXs6bWdPRkaGgoKCTDOq33rrLT3zzDOmdoMGDTIlXPv27avw8HC9/fbbdsf19PTUwYMHlZiYqP79+ys3N9duuyeeeELR0dFyd3e3nIuLi9Pw4cOdJkyLjB49WgsWLFDDhg1N9ceOHVPr1q1NddHR0Xr99dedznp+5pln9NZbb0mSVq1apWHDhpUaQ2xsrMLDw+2+54MPPqiVK1cqOzvbbl9XV1dFR0frySeftJx77733NG7cOF26dKnUGN555x2Hs8379eunTZs2GeW77rqrXLPwAQAAAACoLMxYBgAAAFCnlJzx6urqqsjISI0aNcpUX1BQoM8//9zhOBcuXFCPHj2cJpUl2Z35WlJSUpI6d+5calK5qO2AAQMUFxdXatuSNm7caFmmu2/fvqX227Rpk8OksnT5s+jTp48GDBjgMKksSYsXL9YXX3xhqf/11191ww03lCmpLEkff/yxbrrpJoeJ2+LGjx9f6lLa8+fP17p168r03mXx0UcfOY2toKBATz31lHbu3Gmq3759ux577LEyJZUl6fHHH9fGjRvtnrvrrrtM5fXr1+vs2bNlGhcAAAAAgKpAYhkAAABAnfHrr78qJibGVNe/f381atRI99xzj6W9s72Yly5dqt9++61S4po2bZolEenm5qZu3bqpS5cupmWNpctLRpclYV3SypUrTWUfHx916NDhygO2IyEhQRcvXpQkubi4yM3NzW67qKgoS92UKVOMvsWFhISoV69estlslnOHDx92muy2x9/fX56ennbPvfPOO5IkPz8/9ejRQ926dbO08fDwUI8ePdSjRw+H4xTn5uam6667zjKzukjJZclfeuklFRQUmOrGjh2refPmafr06YqIiDCdKyws1KJFi+yO3atXL1O5oKDAsuw3AAAAAADVicQyAAAAgDrj008/tdQNHz5cktSjRw9LAnDnzp06evSopU9ubq6mT59uqe/bt682b96szMxM7d27V7179y41pp9//llLliwx1YWEhGj//v366aef9PPPP+vnn39WSEiIqc0XX3yh5OTkUscvruRSyKGhoXJxcSlT306dOungwYO6dOmSfv31VzVt2tRuu4kTJyotLU3Z2dmaN2+e5fzOnTuVn59vlDdu3KgNGzaY2nh6emrt2rU6efKktm3bpszMTLuJ9FdffVWpqamlxt6zZ08dP35cZ86cUVZWlv7v//7P0mbfvn2SLv8Nd+zYYXcm8KuvvqodO3Zox44dCg0Ndfqed9xxh5KSkrR//36dPXvW7ntu3rzZOE5PT9f27dtN5++99169++67evbZZzVt2jTt3r3bklz+6quv7M5wLvn/Iklbt251GjMAAAAAAFWJxDIAAACAOiE/P9+yDLaLi4siIyMlSe7u7ho9erSl34oVKyx1O3fuNO3HLF1O5H366afq3bu3GjRooBtuuEEbNmxQ+/btncZlbxbplClTTDOJO3XqpMWLF5vaFBQU2I3NkezsbGVmZprqmjVrVub+ixcvVkREhNzd3dWxY0fNmDHD0ubaa6/V7Nmz5e/vLw8PDz377LMKCwuztCsex8KFCy3nFyxYYPxdpMszf9944w0NHTrUck3Lly93Gre3t7dWrlyp5s2bG2O9/vrrql+/vqnd77//bkp4V4SHh4eWLl2qoKAgSZf/z1566SVLEj8tLc04Tk5OtsxW/u6777Rjxw4jLpvNppkzZ+r55583Xk8//bTOnDljiSEwMNBSl5CQUOFrAwAAAACgvEgsAwAAAKgTtm3bpqSkJFNd7969FRwcbJTvvfdeS7+SyWhJOnbsmKVu0qRJRiKxiIeHh15++WWncR05csRSd/311+vAgQOmV+PGjS3tSi5t7UzJa5fsz2p1JDw83FRu3bq1pc2tt95qWQK7a9eulnbnz583jvfu3Ws617BhQ7sJfkmaMGGCpS42NtZx0P8/puJ/Y+lycrlLly6muoKCgjLvbVya4cOHq1GjRqa6hg0bWpYdL77fdVHiu7hz586pV69e8vf316hRoxQdHa2QkBDNnj1bc+bMMV5NmjSx9G3QoIE8PDxMdX/88UdFLgsAAAAAgApxr+kAAAAAAKAsPvnkE0vdyPQ3gNAAAAqhSURBVJEjTeXevXurfv36pv1+4+LitGfPHnXu3Nmo+/333y1j2ZuZK12ebeyMvcRo//79nfYpciWJQnuJZXvJanu8vLzk4+NjqiuZrJWkVq1aWers7Y9cNHM3JyfHkqTv3LmzZTZxkWuvvdZSd/DgQceB63KS3h5HS3lXBntJd+ny51N8j2939z+/Unt7e+v22283LY9dJDMzU59++qmxlHvTpk31yCOPaOLEiQoICHAYR7NmzUyfr73/WwAAAAAAqgszlgEAAADUejk5Ofrwww8t9dHR0YqMjDRew4cPNyWVi3z22Wemsr0lhR3tuVty5mpJBw4ccHremezs7DK3LSwstNSVnGFdUa6uV/YV8ezZs5bloe3N3C0SEBBgmRFd2ozlqkwgO+Is2Vtcbm6uqbxkyRK1aNGi1H4nT57UjBkzFB4erh07djhsVzL5n5OTU2mzsgEAAAAAuFIklgEAAADUet98843dJOyBAwf01VdfmV72vPfee6b9d+3tX2tvRrAku/vfFmcvuevq6lqm15UouSyyJF24cOGKxqgsRclkT09Py77Czj6v7Oxsyz7IpSWOSyauq0N537Nt27aKi4vT3LlzS30gQZJSUlI0dOhQnT171u75nJwcU9nX11f16tUrV2wAAAAAAFQUiWUAAAAAtd6yZcsq1D85OVnbtm0zym3btrW02bdvn92+hw4dcjp2x44dTeVWrVopPz+/TK9Tp06V+RrsJWDT0tLK3L8yFSVeAwIC5O/vbzrn7POyt/S3o6Wu6ypPT09NmDBBSUlJ+umnnzRr1iwNGjTIYUI4OTlZa9assXuu5MMO7du3r/R4AQAAAAAoKxLLAAAAAGq1M2fOaNWqVRUep/gezfb2Eo6OjlZ6erqprqCgQP/+97+djtuhQwdT+dixY3ZnP+fn5ysuLs70On36dJnjb9KkiWWWc2pqapn7V5Xie1dLl/cB/v777+22tbeceXh4eJXEVd2WLl2qF154wXhNnjxZbdu21eTJk/X1118rIyND69ev10033WTp62g59ZJ/X3v/twAAAAAAVBf3mg4AAAAAAJxZs2aNZfnk8PBwPf/88w77HD58WFFRUaa6Dz/8UHPnzpWnp6e6dOmi+vXrm/ZjPnr0qB588EHNmDFD119/vRITEzVx4kTt2bPHaXz2EqOPPPKI1q5da9pP+M0339SUKVNM7Z5//nnNmTPH6fhF3N3d1bRpU504ccKoS0lJKVPfqhQZGalNmzaZ6iZMmKCvvvrKtEfw1q1bNXfuXEv/AQMGVHmMRary8zp69KjefPNNU13Hjh310EMPSZJsNpsGDhyovLw8RUZGmtqVXE5ckjIzM5WXl2eqK8v+zQAAAAAAVBUSywAAAABqtY8++shSN27cOD3++OMO+5w/f17z5s1Tbm6uUZedna0NGzbonnvuUePGjTV16lRNmzbN1O/LL7/Ul19+KTc3N0sy25H7779f06dPV0JCglG3bt06derUSUOHDlVAQIA++eQT7dq1y9L33nvvLdN7FOnRo4eWL19ulH/66ScVFhZW+z7Exd/vySef1JtvvmlKeP/yyy/q1KmTHnjgATVo0EDHjx/X+++/b0mgPvDAA+rSpUu1xb1ixQp16NBBvr6+GjZsWKXuV2zvOsaPH6+MjAz16NFD3t7eiouL06xZsyztbrnlFktdXFycpa5Tp06VEywAAAAAAOVAYhkAAABArZWQkKDvvvvOUn/fffc57eft7a177rlHK1asMNUvW7ZM99xzjyTpueee07x58+wuJ13WpLIk+fr66sMPP9Ttt99uqj9w4IDDJY4l6bHHHtNtt91W5veRpBEjRpgSy2fOnNHhw4cVFhZ2ReNUJpvNplmzZmnMmDGm+uTkZKezsd3c3PTaa69VWVx+fn4KDQ1VfHy8UXfixAmNGzdOkhQTE2NZxrwi+vXrp4iICMXExBh158+f13PPPee0n7+/v/r372+p3759u6ns5uamwYMHV06wAAAAAACUA3ssAwAAAKi1Vq5caanr3r27QkNDS+1rL/m8atUqYx9lX19f7d69W927d3c6ziuvvFLqe/Xu3VuzZ8+27IHsyLhx4/S///2vTG2LGzhwoDw8PEx1O3bsuOJxKqrkDOlRo0bp7bfflrt72Z5dDg4O1nfffVemv2NFjB49ukrHL87Ly0vLly+3/H2ccXNz09q1a+Xr62s5V/KBisjISPn7+1c4TgAAAAAAyovEMgAAAIBaa/Xq1Za6kjNjHRk4cKAl0Xvp0iVt3rzZKLds2VJbtmxRVFSU7r77biNxZ7PZ1LdvX33zzTcaNWqUZWybzWapmzRpkmJiYnTXXXc5jKlhw4ZavXq1Fi5cKC8vrzJdR3E+Pj4aOnSoqW7Lli1XPI4keXp6lqufZE0su7i46KmnntJPP/1kd8/p4oYMGaL9+/fr1ltvtZyrX79+ueN0d3c37WktXZ6V/thjjzldKvxK3tPe3724iIgIxcXFacSIEU7bubi46IEHHtCBAwfUq1cvy/m8vDxt2LDBVDdy5EinYwIAAAAAUNVcCgsLC2s6CAAAAACoLTIzM+Xj42OU169fr0GDBpnarFixQsOGDXM4RmJiog4dOqRDhw6pfv36CgkJUUREhFq2bFnmWc2OrF692pRc9vLy0unTp+Xt7V2hcStTcnKyDh06pNjYWJ06dUpt2rRRRESEwsLCTJ9tdbl06ZJOnjyp1NRUubm5yWazqVWrVlc0u/hKpaWlac+ePTpw4ICysrLk5+cnX19fNW/eXG3btlWLFi0c9t24caPuuOMOo+zu7q6UlBT5+flVWbwAAAAAAJSGxDIAAACAq85vv/2md99911QXEBCgSZMmWdo+/PDD+uCDD0x133//vW655ZYqjdGRS5cuqX379qa9g999912NHTu2RuJB5RsyZIg+//xzozxhwgTNnTu3BiMCAAAAAIDEMgAAAICrUFpamho3bqyCggJTfXR0tB599FF5eHgoISFB0dHRmj17tqmNl5eXUlJSyrWUdWX54IMP9PDDDxvljh07au/evU6XfEbdcOzYMbVp00ZFX9Xd3NwUHx+v5s2b13BkAAAAAICrHXssAwAAALjqBAYGqnfv3pb68ePHy2azydPTU6GhoZaksiSNGzeuRpPK0uV9pjt37myU9+3bp7Vr19ZgRKgsb7zxhoo///3yyy+TVAYAAAAA1ArMWAYAAABwVTpy5IhuvfVWJScnl7lP586dtWnTplqx1+3evXvVtWtXY9b1ddddp71798rNza2GI0N5HT58WB06dDD+pmFhYdqzZ49sNlsNRwYAAAAAADOWAQAAAFyl2rVrp23btmnIkCGlLiHt6uqqiRMn6ttvv60VSWVJ6tSpk2bNmmWUDxw4YNqXF3XPzJkzjaSyu7u7PvnkE5LKAAAAAIBagxnLAAAAAK56CQkJ2rhxo44fP64TJ04oKytLAQEBCgoKUpcuXXTrrbcqMDCwpsO0KCgo0L59+4xy8+bNFRQUVIMRoSKOHz+utLQ0SVKDBg3Utm3bGo4IAAAAAIA/kVgGAAAAAAAAAAAAADjFUtgAAAAAAAAAAAAAAKdILAMAAAAAAAAAAAAAnCKxDAAAAAAAAAAAAABw6v8BUrorAw0jeuQAAAAASUVORK5CYII=;" vertex="1" parent="-kNc6pRZ_eXD2U5e0rUi-113">
          <mxGeometry x="249.32000000000005" y="16" width="123.86" height="83.04" as="geometry" />
        </mxCell>
        <mxCell id="-kNc6pRZ_eXD2U5e0rUi-146" value="" style="shape=flexArrow;endArrow=classic;html=1;rounded=0;fillColor=#e1d5e7;strokeColor=#9673a6;movable=1;resizable=1;rotatable=1;deletable=1;editable=1;locked=0;connectable=1;" edge="1" parent="WIyWlLk6GJQsqaUBKTNV-1">
          <mxGeometry width="50" height="50" relative="1" as="geometry">
            <mxPoint x="342.65999999999997" y="528" as="sourcePoint" />
            <mxPoint x="342.65999999999997" y="548" as="targetPoint" />
          </mxGeometry>
        </mxCell>
        <mxCell id="-kNc6pRZ_eXD2U5e0rUi-147" value="" style="shape=flexArrow;endArrow=classic;html=1;rounded=0;fillColor=#e1d5e7;strokeColor=#9673a6;movable=1;resizable=1;rotatable=1;deletable=1;editable=1;locked=0;connectable=1;" edge="1" parent="WIyWlLk6GJQsqaUBKTNV-1">
          <mxGeometry width="50" height="50" relative="1" as="geometry">
            <mxPoint x="215.99999999999997" y="475.5" as="sourcePoint" />
            <mxPoint x="236" y="475.5" as="targetPoint" />
          </mxGeometry>
        </mxCell>
        <mxCell id="-kNc6pRZ_eXD2U5e0rUi-174" value="" style="group;strokeWidth=0.5;" vertex="1" connectable="0" parent="WIyWlLk6GJQsqaUBKTNV-1">
          <mxGeometry x="459" y="260" width="198.5" height="203" as="geometry" />
        </mxCell>
        <mxCell id="-kNc6pRZ_eXD2U5e0rUi-66" value="" style="ellipse;whiteSpace=wrap;html=1;aspect=fixed;strokeWidth=0.5;" vertex="1" parent="-kNc6pRZ_eXD2U5e0rUi-174">
          <mxGeometry x="4" width="194.5" height="194.5" as="geometry" />
        </mxCell>
        <mxCell id="-kNc6pRZ_eXD2U5e0rUi-161" value="&lt;span style=&quot;color: rgb(0, 0, 0); font-family: Helvetica; font-size: 10px; font-style: normal; font-variant-ligatures: normal; font-variant-caps: normal; font-weight: 400; letter-spacing: normal; orphans: 2; text-indent: 0px; text-transform: none; widows: 2; word-spacing: 0px; -webkit-text-stroke-width: 0px; white-space: nowrap; background-color: rgb(236, 236, 236); text-decoration-thickness: initial; text-decoration-style: initial; text-decoration-color: initial; float: none; display: inline !important;&quot;&gt;linked-external-data&lt;/span&gt;" style="text;whiteSpace=wrap;html=1;align=center;strokeWidth=0.5;" vertex="1" parent="-kNc6pRZ_eXD2U5e0rUi-174">
          <mxGeometry x="37" y="4" width="120" height="40" as="geometry" />
        </mxCell>
        <mxCell id="-kNc6pRZ_eXD2U5e0rUi-162" value="&lt;span style=&quot;color: rgb(0, 0, 0); font-family: Helvetica; font-size: 10px; font-style: normal; font-variant-ligatures: normal; font-variant-caps: normal; font-weight: 400; letter-spacing: normal; orphans: 2; text-indent: 0px; text-transform: none; widows: 2; word-spacing: 0px; -webkit-text-stroke-width: 0px; white-space: nowrap; background-color: rgb(236, 236, 236); text-decoration-thickness: initial; text-decoration-style: initial; text-decoration-color: initial; float: none; display: inline !important;&quot;&gt;culture-environment&lt;/span&gt;" style="text;whiteSpace=wrap;html=1;align=center;strokeWidth=0.5;" vertex="1" parent="-kNc6pRZ_eXD2U5e0rUi-174">
          <mxGeometry x="40.25" y="163" width="120" height="40" as="geometry" />
        </mxCell>
        <mxCell id="-kNc6pRZ_eXD2U5e0rUi-164" value="" style="ellipse;whiteSpace=wrap;html=1;aspect=fixed;strokeWidth=0.5;" vertex="1" parent="-kNc6pRZ_eXD2U5e0rUi-174">
          <mxGeometry x="30.25" y="28" width="140" height="140" as="geometry" />
        </mxCell>
        <mxCell id="-kNc6pRZ_eXD2U5e0rUi-163" value="&lt;span style=&quot;color: rgb(0, 0, 0); font-family: Helvetica; font-size: 10px; font-style: normal; font-variant-ligatures: normal; font-variant-caps: normal; font-weight: 400; letter-spacing: normal; orphans: 2; text-indent: 0px; text-transform: none; widows: 2; word-spacing: 0px; -webkit-text-stroke-width: 0px; white-space: nowrap; background-color: rgb(236, 236, 236); text-decoration-thickness: initial; text-decoration-style: initial; text-decoration-color: initial; float: none; display: inline !important;&quot;&gt;genetics&lt;/span&gt;" style="text;whiteSpace=wrap;html=1;align=center;rotation=-90;strokeWidth=0.5;" vertex="1" parent="-kNc6pRZ_eXD2U5e0rUi-174">
          <mxGeometry x="-15" y="84" width="70" height="40" as="geometry" />
        </mxCell>
        <mxCell id="-kNc6pRZ_eXD2U5e0rUi-165" value="&lt;span style=&quot;color: rgb(0, 0, 0); font-family: Helvetica; font-size: 10px; font-style: normal; font-variant-ligatures: normal; font-variant-caps: normal; font-weight: 400; letter-spacing: normal; orphans: 2; text-indent: 0px; text-transform: none; widows: 2; word-spacing: 0px; -webkit-text-stroke-width: 0px; white-space: nowrap; background-color: rgb(236, 236, 236); text-decoration-thickness: initial; text-decoration-style: initial; text-decoration-color: initial; float: none; display: inline !important;&quot;&gt;imaging&lt;/span&gt;" style="text;whiteSpace=wrap;html=1;align=center;strokeWidth=0.5;" vertex="1" parent="-kNc6pRZ_eXD2U5e0rUi-174">
          <mxGeometry x="65" y="25" width="70" height="40" as="geometry" />
        </mxCell>
        <mxCell id="-kNc6pRZ_eXD2U5e0rUi-168" value="" style="ellipse;whiteSpace=wrap;html=1;aspect=fixed;strokeWidth=0.5;" vertex="1" parent="-kNc6pRZ_eXD2U5e0rUi-174">
          <mxGeometry x="58.5" y="58" width="83.5" height="83.5" as="geometry" />
        </mxCell>
        <mxCell id="-kNc6pRZ_eXD2U5e0rUi-166" value="&lt;span style=&quot;color: rgb(0, 0, 0); font-family: Helvetica; font-size: 10px; font-style: normal; font-variant-ligatures: normal; font-variant-caps: normal; font-weight: 400; letter-spacing: normal; orphans: 2; text-indent: 0px; text-transform: none; widows: 2; word-spacing: 0px; -webkit-text-stroke-width: 0px; white-space: nowrap; background-color: rgb(236, 236, 236); text-decoration-thickness: initial; text-decoration-style: initial; text-decoration-color: initial; float: none; display: inline !important;&quot;&gt;mental-health&lt;/span&gt;" style="text;whiteSpace=wrap;html=1;align=center;strokeWidth=0.5;" vertex="1" parent="-kNc6pRZ_eXD2U5e0rUi-174">
          <mxGeometry x="55" y="64" width="90" height="40" as="geometry" />
        </mxCell>
        <mxCell id="-kNc6pRZ_eXD2U5e0rUi-167" value="&lt;span style=&quot;color: rgb(0, 0, 0); font-family: Helvetica; font-size: 10px; font-style: normal; font-variant-ligatures: normal; font-variant-caps: normal; font-weight: 400; letter-spacing: normal; orphans: 2; text-indent: 0px; text-transform: none; widows: 2; word-spacing: 0px; -webkit-text-stroke-width: 0px; white-space: nowrap; background-color: rgb(236, 236, 236); text-decoration-thickness: initial; text-decoration-style: initial; text-decoration-color: initial; float: none; display: inline !important;&quot;&gt;neurocognition&lt;/span&gt;" style="text;whiteSpace=wrap;html=1;align=center;rotation=-90;strokeWidth=0.5;" vertex="1" parent="-kNc6pRZ_eXD2U5e0rUi-174">
          <mxGeometry x="6.5" y="79" width="100" height="40" as="geometry" />
        </mxCell>
        <mxCell id="-kNc6pRZ_eXD2U5e0rUi-169" value="&lt;span style=&quot;color: rgb(0, 0, 0); font-family: Helvetica; font-size: 10px; font-style: normal; font-variant-ligatures: normal; font-variant-caps: normal; font-weight: 400; letter-spacing: normal; orphans: 2; text-indent: 0px; text-transform: none; widows: 2; word-spacing: 0px; -webkit-text-stroke-width: 0px; white-space: nowrap; background-color: rgb(236, 236, 236); text-decoration-thickness: initial; text-decoration-style: initial; text-decoration-color: initial; float: none; display: inline !important;&quot;&gt;novel-technologies&lt;/span&gt;" style="text;whiteSpace=wrap;html=1;align=center;rotation=90;strokeWidth=0.5;" vertex="1" parent="-kNc6pRZ_eXD2U5e0rUi-174">
          <mxGeometry x="85" y="74" width="120" height="40" as="geometry" />
        </mxCell>
        <mxCell id="-kNc6pRZ_eXD2U5e0rUi-170" value="&lt;span style=&quot;color: rgb(0, 0, 0); font-family: Helvetica; font-size: 10px; font-style: normal; font-variant-ligatures: normal; font-variant-caps: normal; font-weight: 400; letter-spacing: normal; orphans: 2; text-indent: 0px; text-transform: none; widows: 2; word-spacing: 0px; -webkit-text-stroke-width: 0px; white-space: nowrap; background-color: rgb(236, 236, 236); text-decoration-thickness: initial; text-decoration-style: initial; text-decoration-color: initial; float: none; display: inline !important;&quot;&gt;substance-use&lt;/span&gt;" style="text;whiteSpace=wrap;html=1;align=center;strokeWidth=0.5;" vertex="1" parent="-kNc6pRZ_eXD2U5e0rUi-174">
          <mxGeometry x="50" y="104" width="100" height="40" as="geometry" />
        </mxCell>
        <mxCell id="-kNc6pRZ_eXD2U5e0rUi-171" value="&lt;span style=&quot;color: rgb(0, 0, 0); font-family: Helvetica; font-size: 10px; font-style: normal; font-variant-ligatures: normal; font-variant-caps: normal; font-weight: 400; letter-spacing: normal; orphans: 2; text-indent: 0px; text-transform: none; widows: 2; word-spacing: 0px; -webkit-text-stroke-width: 0px; white-space: nowrap; background-color: rgb(236, 236, 236); text-decoration-thickness: initial; text-decoration-style: initial; text-decoration-color: initial; float: none; display: inline !important;&quot;&gt;physical-health&lt;/span&gt;" style="text;whiteSpace=wrap;html=1;align=center;strokeWidth=0.5;" vertex="1" parent="-kNc6pRZ_eXD2U5e0rUi-174">
          <mxGeometry x="50" y="134.5" width="100" height="40" as="geometry" />
        </mxCell>
        <mxCell id="-kNc6pRZ_eXD2U5e0rUi-172" value="&lt;span style=&quot;color: rgb(0, 0, 0); font-family: Helvetica; font-size: 10px; font-style: normal; font-variant-ligatures: normal; font-variant-caps: normal; font-weight: 400; letter-spacing: normal; orphans: 2; text-indent: 0px; text-transform: none; widows: 2; word-spacing: 0px; -webkit-text-stroke-width: 0px; white-space: nowrap; background-color: rgb(236, 236, 236); text-decoration-thickness: initial; text-decoration-style: initial; text-decoration-color: initial; float: none; display: inline !important;&quot;&gt;gender-identity-sexual&lt;/span&gt;" style="text;whiteSpace=wrap;html=1;align=center;rotation=90;strokeWidth=0.5;" vertex="1" parent="-kNc6pRZ_eXD2U5e0rUi-174">
          <mxGeometry x="93.5" y="74" width="160" height="40" as="geometry" />
        </mxCell>
        <mxCell id="-kNc6pRZ_eXD2U5e0rUi-173" value="&lt;b&gt;&lt;font style=&quot;font-size: 16px;&quot;&gt;Y&lt;/font&gt;&lt;/b&gt;" style="text;html=1;align=center;verticalAlign=middle;resizable=0;points=[];autosize=1;strokeColor=none;fillColor=none;strokeWidth=0.5;" vertex="1" parent="-kNc6pRZ_eXD2U5e0rUi-174">
          <mxGeometry x="82" y="84" width="30" height="30" as="geometry" />
        </mxCell>
        <mxCell id="-kNc6pRZ_eXD2U5e0rUi-175" value="Domains&amp;nbsp;analysis" style="text;html=1;align=left;verticalAlign=middle;resizable=1;points=[];autosize=1;strokeColor=default;fillColor=none;movable=1;rotatable=1;deletable=1;editable=1;locked=0;connectable=1;fontStyle=1" vertex="1" parent="WIyWlLk6GJQsqaUBKTNV-1">
          <mxGeometry x="9" y="342" width="120" height="25" as="geometry" />
        </mxCell>
        <mxCell id="-kNc6pRZ_eXD2U5e0rUi-280" value="" style="shape=flexArrow;endArrow=classic;html=1;rounded=0;fillColor=#e1d5e7;strokeColor=#9673a6;movable=1;resizable=1;rotatable=1;deletable=1;editable=1;locked=0;connectable=1;" edge="1" parent="WIyWlLk6GJQsqaUBKTNV-1">
          <mxGeometry width="50" height="50" relative="1" as="geometry">
            <mxPoint x="490" y="500" as="sourcePoint" />
            <mxPoint x="510" y="450" as="targetPoint" />
          </mxGeometry>
        </mxCell>
        <mxCell id="-kNc6pRZ_eXD2U5e0rUi-282" value="" style="group;strokeColor=default;strokeWidth=0.5;" vertex="1" connectable="0" parent="WIyWlLk6GJQsqaUBKTNV-1">
          <mxGeometry x="502" y="91" width="130" height="90" as="geometry" />
        </mxCell>
        <mxCell id="-kNc6pRZ_eXD2U5e0rUi-2" value="Senstivity Analyses" style="text;html=1;align=left;verticalAlign=middle;resizable=0;points=[];autosize=1;strokeColor=none;fillColor=none;" vertex="1" parent="-kNc6pRZ_eXD2U5e0rUi-282">
          <mxGeometry width="130" height="30" as="geometry" />
        </mxCell>
        <mxCell id="-kNc6pRZ_eXD2U5e0rUi-6" value="Sex" style="text;html=1;align=left;verticalAlign=middle;resizable=1;points=[];autosize=1;strokeColor=none;fillColor=none;movable=1;rotatable=1;deletable=1;editable=1;locked=0;connectable=1;" vertex="1" parent="-kNc6pRZ_eXD2U5e0rUi-282">
          <mxGeometry x="10" y="30" width="40" height="30" as="geometry" />
        </mxCell>
        <mxCell id="-kNc6pRZ_eXD2U5e0rUi-7" value="dervied variable" style="text;html=1;align=left;verticalAlign=middle;resizable=0;points=[];autosize=1;strokeColor=none;fillColor=none;" vertex="1" parent="-kNc6pRZ_eXD2U5e0rUi-282">
          <mxGeometry x="10" y="60" width="110" height="30" as="geometry" />
        </mxCell>
      </root>
    </mxGraphModel>
  </diagram>
</mxfile>
